<?xml version="1.0" encoding="UTF-8" standalone="no"?>
<!-- Created with Inkscape (http://www.inkscape.org/) -->
<svg id="svg3336" xmlns:rdf="http://www.w3.org/1999/02/22-rdf-syntax-ns#" xmlns="http://www.w3.org/2000/svg" height="476" width="512" version="1.1" xmlns:cc="http://creativecommons.org/ns#" xmlns:xlink="http://www.w3.org/1999/xlink" xmlns:dc="http://purl.org/dc/elements/1.1/">
 <defs id="defs3338">
  <linearGradient id="linearGradient3828" gradientUnits="userSpaceOnUse" x2="305.74" y1="476" x1="305.74">
   <stop id="stop3824" style="stop-color:#ececea" offset="0"/>
   <stop id="stop3826" style="stop-color:#fafafa" offset="1"/>
  </linearGradient>
  <filter id="filter3847">
   <feGaussianBlur id="feGaussianBlur3849" stdDeviation="9.2352307"/>
  </filter>
 </defs>
 <metadata id="metadata3341">
  <rdf:RDF>
   <cc:Work rdf:about="">
    <dc:format>image/svg+xml</dc:format>
    <dc:type rdf:resource="http://purl.org/dc/dcmitype/StillImage"/>
    <dc:title/>
   </cc:Work>
  </rdf:RDF>
 </metadata>
 <g id="layer2">
  <rect id="rect3052" style="color:#000000;fill:url(#linearGradient3828)" height="476" width="512" y="0" x="0"/>
  <path id="path3834" style="fill-rule:evenodd;filter:url(#filter3847);stroke:#fff;stroke-width:4;fill:#fff" d="m256.62 70.094c-44.69 0-94.61 16.664-105.12 71.936-1.06 5.89 3.17 8.99 7 9.85l45.62 4.9c4.24-0.2 7.34-4.39 8.13-8.62 3.9-19.05 19.93-28.22 37.84-28.22 9.66 0 20.63 3.56 26.38 12.22 6.54 9.65 5.69 22.89 5.69 34.06v6.09c-27.24 3.11-62.89 5.08-88.41 16.31-29.42 12.7-50.13 38.7-50.13 76.85 0 48.86 30.81 73.25 70.35 73.25 33.45 0 51.71-7.87 77.5-34.19 8.59 12.36 11.36 18.39 26.97 31.35 3.5 1.85 8.02 1.65 11.12-1.13l0.13 0.13c9.39-8.34 26.44-23.19 36.03-31.19 3.83-3.18 3.17-8.27 0.12-12.5-8.59-11.9-17.72-21.55-17.72-43.57v-73.28c0-31 2.19-59.48-20.68-80.84-18.05-17.322-47.94-23.406-70.82-23.406zm25.54 139.91v10.16c0 18.31 0.44 33.61-8.82 49.87-7.47 13.22-19.3 21.35-32.53 21.35-18.05 0-28.56-13.74-28.56-34.04 0-40.06 35.92-47.34 69.91-47.34zm145.75 105.12c-14.11 0.2-30.77 3.38-43.38 12.26-3.9 2.71-3.24 6.46 1.09 5.93 14.22-1.68 45.89-5.49 51.5 1.72 5.66 7.24-6.27 37.02-11.59 50.31-1.62 4.04 1.83 5.67 5.47 2.63 23.7-19.8 29.8-61.3 24.97-67.28-2.41-2.98-13.96-5.76-28.06-5.57zm-369.72 7.94c-3.459-0.19-5.264 3.75-1.907 6.78 52.599 47.51 122.12 76.07 199.34 76.07 55.08 0 119.03-17.35 163.16-49.88 7.31-5.42 1.07-13.48-6.4-10.31-49.46 20.99-103.24 31.09-152.13 31.09-72.5 0-142.68-19.85-199.44-52.87-0.927-0.55-1.824-0.83-2.622-0.88z"/>
  <g id="g2976" transform="matrix(3.1486 0 0 3.1486 54.491 2.8942)">
   <g id="g2914" transform="matrix(.40048 0 0 .40048 -36.771 52.478)">
    <path id="path8" style="fill:#f90;fill-rule:evenodd" d="m380.72 149.02c-34.999 25.797-85.729 39.561-129.41 39.561-61.243 0-116.38-22.651-158.09-60.325-3.2771-2.9625-0.34083-6.9999 3.5917-4.6928 45.014 26.191 100.67 41.947 158.17 41.947 38.775 0 81.43-8.0224 120.65-24.67 5.925-2.5168 10.88 3.8801 5.0861 8.1796"/>
    <path id="path10" style="fill:#f90;fill-rule:evenodd" d="m395.27 132.37c-4.4569-5.7153-29.573-2.7003-40.846-1.3633-3.4344 0.41947-3.9587-2.5692-0.86517-4.719 20.003-14.078 52.827-10.015 56.655-5.2958 3.8276 4.7453-0.99624 37.647-19.794 53.351-2.8838 2.412-5.6366 1.1273-4.352-2.0711 4.2209-10.539 13.685-34.161 9.2021-39.902"/>
   </g>
   <path id="path30" d="m72.304 69.008c0 5.8166 0.14698 10.667-2.7928 15.833-2.3729 4.1997-6.1316 6.7826-10.331 6.7826-5.7326 0-9.0714-4.3677-9.0714-10.814 0-12.725 11.402-15.035 22.196-15.035v3.2338m15.055 36.391c-0.98694 0.88195-2.4149 0.94494-3.5278 0.35699-4.9557-4.1157-5.8376-6.0266-8.5674-9.9534-8.1895 8.3575-13.985 10.856-24.61 10.856-12.557 0-22.343-7.7485-22.343-23.266 0-12.116 6.5726-20.369 15.917-24.4 8.1055-3.5698 19.424-4.1997 28.075-5.1867v-1.9319c0-3.5488 0.27298-7.7485-1.8059-10.814-1.8269-2.7508-5.3127-3.8848-8.3785-3.8848-5.6906 0-10.772 2.9188-12.011 8.9664-0.25199 1.3439-1.2389 2.6668-2.5828 2.7298l-14.489-1.555c-1.2179-0.27297-2.5618-1.2599-2.2259-3.1288 3.3388-17.555 19.193-22.847 33.388-22.847 7.2655 0 16.757 1.9319 22.49 7.4335 7.2655 6.7826 6.5726 15.833 6.5726 25.681v23.266c0 6.9926 2.8978 10.058 5.6276 13.838 0.96593 1.3439 1.1759 2.9608-0.042 3.9687-3.0448 2.5408-8.4624 7.2655-11.444 9.9114l-0.04199-0.042" style="fill:#221f1f;fill-rule:evenodd"/>
  </g>
 </g>
 <g id="layer1" style="display:none" transform="translate(0 -576.36)">
  <g id="layer1-3" style="display:inline" transform="matrix(3.5556 0 0 3.5522 0 -2685.9)">
   <g id="layer1-2" transform="translate(0 10)">
    <path id="path3774" d="m46.703 908.36h50.595c40.862 0 46.702 5.84 46.702 46.7v40.595c0 40.865-5.8378 46.702-46.703 46.702h-50.595c-40.864 0-46.702-5.9-46.702-46.74v-40.6c0-40.86 5.8378-46.7 46.703-46.7z" style="display:inline"/>
   </g>
  </g>
 </g>
</svg>
