<?xml version="1.0" encoding="UTF-8" standalone="no"?>
<!-- Created with Inkscape (http://www.inkscape.org/) -->
<svg id="svg3289" xmlns:rdf="http://www.w3.org/1999/02/22-rdf-syntax-ns#" xmlns="http://www.w3.org/2000/svg" height="134" width="144" version="1.1" xmlns:cc="http://creativecommons.org/ns#" xmlns:xlink="http://www.w3.org/1999/xlink" xmlns:dc="http://purl.org/dc/elements/1.1/">
 <metadata id="metadata3294">
  <rdf:RDF>
   <cc:Work rdf:about="">
    <dc:format>image/svg+xml</dc:format>
    <dc:type rdf:resource="http://purl.org/dc/dcmitype/StillImage"/>
    <dc:title/>
   </cc:Work>
  </rdf:RDF>
 </metadata>
 <g id="layer1" transform="translate(0 -918.36)">
  <g id="g4451" transform="translate(-789 604.36)">
   <rect id="rect3011" style="color:#000000;fill:#25211f" height="134" width="144" y="314" x="789"/>
   <path id="path3330" style="color:#000000;fill:#ccc" d="m831 347c-10.739 0-15.034 2.161-16.781 8.3437 16.2 15.095 33.272 31.469 38.156 35.438 2.905 2.3604 4.6096 3.4313 5.625 3.8438 1.0154 0.41236 1.5 0.65624 3 0.65624s1.9846-0.24388 3-0.65624c1.0154-0.4125 2.72-1.4834 5.625-3.8438 4.8844-3.9686 21.97-20.349 38.156-35.438-1.75-6.18-6.04-8.34-16.78-8.34h-60zm-17.812 15c-0.2133 3.3172-0.1874 7.2425-0.1874 12v12.375c0 20.94 0 26.62 18 26.62h60c9.4871 0 13.909-1.6875 16.031-6.2813l-23.906-20.625c-6.1498 5.7318-11.245 10.355-13.5 12.188-2.905 2.3604-4.6096 3.4313-5.625 3.8438-1.0154 0.41236-1.5 0.65624-3 0.65624s-1.9846-0.24388-3-0.65624c-1.0154-0.4125-2.72-1.4834-5.625-3.8438-2.2488-1.8271-7.2847-6.4817-13.406-12.188l-23.906 20.719 20.625-23.719c-6.83-6.4-14.68-13.83-22.49-21.1zm93.844 44.719c1.91-4.12 1.97-10.58 1.97-20.34v-12.38c0-4.7575 0.027-8.6828-0.1874-12-7.7042 7.1746-15.439 14.47-22.219 20.812l20.438 23.906zm-60.47-16.6c2.5007 2.2816 4.6307 4.196 5.8125 5.1562-1.2416-1.0088-3.2231-2.7853-5.8125-5.1562z"/>
   <rect id="rect3332" style="fill:none" height="144" width="144" y="309" x="789"/>
   <path id="path3334" d="m831 347c-10.961 0-15.199 2.1483-16.875 8.5312 17.206 15.974 33.043 31.019 38.25 35.25 2.905 2.3604 4.6096 3.4313 5.625 3.8438s1.5 0.65624 3 0.65624 1.9846-0.24388 3-0.65624c1.0154-0.4125 2.72-1.4834 5.625-3.8438 5.2071-4.2307 21.062-19.286 38.25-35.25-1.71-6.29-6-8.53-16.88-8.53h-60z" style="color:#000000;fill:#ccc"/>
   <path id="path3336" d="m814.22 355.34c-0.32258 1.1413-0.5795 2.4146-0.75 3.8438 16.523 15.385 33.94 32.058 38.906 36.094 2.905 2.3604 4.6096 3.4313 5.625 3.8438s1.5 0.65624 3 0.65624 1.9846-0.24388 3-0.65624c1.0154-0.4125 2.72-1.4834 5.625-3.8438 4.9662-4.035 22.398-20.716 38.906-36.094-0.1704-1.4292-0.4274-2.7024-0.75-3.8438-16.186 15.088-33.272 31.469-38.156 35.438-2.905 2.3604-4.6096 3.4313-5.625 3.8438-1.0154 0.41236-1.5 0.65624-3 0.65624s-1.9846-0.24388-3-0.65624c-1.0154-0.4125-2.72-1.4834-5.625-3.8438-4.8847-3.9688-21.956-20.342-38.156-35.438z" style="opacity:.2;color:#000000;fill:#c8c8c8"/>
   <path id="path3338" style="opacity:.5;fill:#ccc" d="m813.47 359.19c-0.1212 0.90582-0.21764 1.7937-0.28124 2.8125 7.8119 7.2717 15.664 14.699 22.5 21.094l-20.625 23.719 23.906-20.719c6.1215 5.7058 11.157 10.36 13.406 12.188 2.9051 2.3603 4.6096 3.4313 5.625 3.8438s1.5 0.65624 3 0.65624 1.9846-0.24388 3-0.65624c1.0154-0.4125 2.7199-1.4834 5.625-3.8438 2.2554-1.8325 7.3501-6.4557 13.5-12.188l23.906 20.625-20.438-23.906c6.7799-6.3423 14.515-13.638 22.219-20.812-0.064-1.0188-0.16-1.9067-0.28126-2.8125-8.1029 7.548-16.379 15.411-23.344 21.938l-3.75 3.4687c-5.3232 4.9626-9.7713 9.029-11.812 10.688-2.9051 2.3603-4.6096 3.4313-5.625 3.8438-1.0154 0.41236-1.5 0.65624-3 0.65624s-1.9846-0.24388-3-0.65624c-1.0154-0.4125-2.7199-1.4834-5.625-3.8438-2.0284-1.648-6.4462-5.6785-11.719-10.594l-3.0937-2.9063c-0.1382-0.1294-0.23574-0.24452-0.375-0.375-7.0234-6.5805-15.491-14.557-23.719-22.219z"/>
  </g>
 </g>
</svg>
