<?xml version="1.0" encoding="UTF-8" standalone="no"?>
<!-- Generator: Adobe Illustrator 16.0.3, SVG Export Plug-In . SVG Version: 6.00 Build 0)  -->
<svg id="Google_x2B_" xmlns:rdf="http://www.w3.org/1999/02/22-rdf-syntax-ns#" xmlns="http://www.w3.org/2000/svg" enable-background="new 0 0 266.667 267" xml:space="preserve" height="90" viewBox="0 0 90.000003 90" width="90" version="1.1" y="0px" x="0px" xmlns:cc="http://creativecommons.org/ns#" xmlns:dc="http://purl.org/dc/elements/1.1/"><metadata id="metadata24"><rdf:RDF><cc:Work rdf:about=""><dc:format>image/svg+xml</dc:format><dc:type rdf:resource="http://purl.org/dc/dcmitype/StillImage"/><dc:title/></cc:Work></rdf:RDF></metadata><g id="g3" xml:space="preserve" transform="translate(0 -177)"><linearGradient id="SVGID_1_" y2="55.334" xml:space="preserve" gradientUnits="userSpaceOnUse" x2="-402.67" gradientTransform="matrix(1,0,0,-1,244,322)" y1="-20.666" x1="-402.67"><stop id="stop6" style="stop-color:#7D2617" offset="0"/><stop id="stop8" style="stop-color:#BF3B27" offset="1"/></linearGradient><path id="path10" style="display:none;fill:url(#SVGID_1_)" d="m-125.67 342.67h-65.289c-2.979 0-5.711-2.748-5.711-5.726v-64.777c0-2.979 2.732-5.497 5.711-5.497h64.736c2.98 0 5.553 2.521 5.553 5.497v65.503c0 2.977-2.02 5-5 5zm-65.289-75c-2.752 0-4.711 1.745-4.711 4.497v64.777c0 2.753 1.959 4.726 4.711 4.726h64.289c3 0 5-2 5-5v-64.503c0-2.752-1.798-4.497-4.553-4.497h-64.736z" xml:space="preserve" display="none"/></g><path id="path14" style="fill:#808080" d="m36 6c-24.352 0-29.166 0.047-29.879 13.254 0.2394-0.225 0.4903-0.46 0.7325-0.668 6.4805-5.364 13.592-6.26 19.552-6.371h24.026l-6.381 5.15h-6.967c2.791 2.42 6.955 6.745 6.955 14.451 0 8.442-4.45 12.442-9.225 16.202-1.477 1.48-3.181 3.081-3.181 5.595 0 2.507 1.705 3.876 2.953 4.905l4.096 3.187c5 4.224 11.535 9.114 11.535 16.988 0 1.983-0.213 3.769-0.807 5.307h4.59c27 0 30 0 30-18v-33.316h-14.217v14.543h-6.179v-14.543h-14.416v-6.051h14.416v-14.418h6.179v14.418h14.217v-2.633c0-18-3-18-30-18h-9-9zm-15.424 10.072c-2.959 0-6.137 1.484-7.959 3.766-1.933 2.397-2.232 5.473-2.232 8.445 0 7.641 4.013 18.944 13.791 18.944 2.84 0 5.754-0.722 7.625-2.854 2.133-2.444 2.969-5.662 2.969-7.307 0-8.215-4.763-20.994-14.194-20.994zm-14.576 31.203v18.725c0 0.489 0.0127 0.914 0.0176 1.377 5.1604-4.049 14.018-3.322 18.341-3.613-1.594-2.058-3.41-4.223-3.41-7.756 0-1.94 0.568-3.083 1.135-4.453-1.253 0.111-2.497 0.228-3.637 0.228-5.125 0-9.3364-1.942-12.447-4.508zm19.615 19.682c-1.027 0-7.168 0.229-11.941 1.828-1.55 0.567-4.9619 1.89-7.3146 4.715 1.3088 10.46 7.1096 10.5 29.641 10.5h6.75c0.17-0.435 0.383-0.834 0.373-1.76-0.064-5.83-6.258-9-14.902-15.164-0.906-0.118-1.475-0.119-2.606-0.119z" transform="translate(0,-1.5e-6)"/></svg>
