<?xml version="1.0" encoding="UTF-8" standalone="no"?>
<!-- Created with Inkscape (http://www.inkscape.org/) -->
<svg id="svg4460" xmlns:rdf="http://www.w3.org/1999/02/22-rdf-syntax-ns#" xmlns="http://www.w3.org/2000/svg" height="24" width="24" version="1.1" xmlns:cc="http://creativecommons.org/ns#" xmlns:dc="http://purl.org/dc/elements/1.1/">
 <metadata id="metadata4465">
  <rdf:RDF>
   <cc:Work rdf:about="">
    <dc:format>image/svg+xml</dc:format>
    <dc:type rdf:resource="http://purl.org/dc/dcmitype/StillImage"/>
    <dc:title/>
   </cc:Work>
  </rdf:RDF>
 </metadata>
 <g id="layer1" transform="translate(0 -1028.4)">
  <g id="restaurant-24" transform="translate(-318 -22)">
   <g id="g16702" transform="translate(0,-1)">
    <path id="path5418" style="opacity:.3;stroke-linejoin:round;stroke-width:2;color:#000000;stroke:#fff;fill:#fff" d="m523.5 26c-0.5 0-0.5 0.5-0.5 0.5v6c0 0.50515 0.5 1 1 1.5s0.52601 1.0058 0.5 1.5v1.5l-0.5 6.5c-0.0383 0.4985 0.5 1.5 1.5 1.5s1.5385-1 1.5-1.5l-0.5-6.5v-1.5c0-0.47862 0-1 0.5-1.5 0.46054-0.46054 1-0.97862 1-1.5v-6s0-0.5-0.5-0.5-0.5 0.5-0.5 0.5v4.5s0 0.5-0.5 0.5-0.5-0.5-0.5-0.5v-4.5s0-0.5-0.5-0.5-0.5 0.5-0.5 0.5v4.5s0 0.5-0.5 0.5-0.5-0.5-0.5-0.5v-4.5s0-0.5-0.5-0.5zm10.5 0c-1 0-2.8675 0.2351-3.5 1.5-0.5 1-0.5 3.5-0.5 4.5v5c0 0.5 0.5 1 1 1h1v6c0 0.5 0.5 1 1 1s1-0.5 1-1z" transform="translate(-198 1027.4)"/>
    <path id="path5304" style="color:#000000;fill:#444" d="m523.5 26c-0.5 0-0.5 0.5-0.5 0.5v6c0 0.5 0.5 1 1 1.5s0.5 1 0.5 1.5v1.5c0 0.5-0.5 6.5-0.5 6.5-0.0383 0.4985 0.5 1.5 1.5 1.5s1.5385-1 1.5-1.5c0 0-0.5-6-0.5-6.5v-1.5c0-0.5 0-1 0.5-1.5 0.46054-0.46054 1-1 1-1.5v-6s0-0.5-0.5-0.5-0.5 0.5-0.5 0.5v4.5s0 0.5-0.5 0.5-0.5-0.5-0.5-0.5v-4.5s0-0.5-0.5-0.5-0.5 0.5-0.5 0.5v4.5s0 0.5-0.5 0.5-0.5-0.5-0.5-0.5v-4.5s0-0.5-0.5-0.5zm10.5 0c-1 0-2.8675 0.2351-3.5 1.5-0.5 1-0.5 3.5-0.5 4.5v5c0 0.5 0.5 1 1 1h1v6c0 0.5 0.5 1 1 1s1-0.5 1-1z" transform="translate(-198 1027.4)"/>
   </g>
   <rect id="rect22282-0" style="opacity:.5;color:#000000;fill:none" height="24" width="24" y="1050.4" x="318"/>
  </g>
 </g>
</svg>
