<?xml version="1.0" encoding="UTF-8" standalone="no"?>
<!-- Created with Inkscape (http://www.inkscape.org/) -->
<svg id="svg4460" xmlns:rdf="http://www.w3.org/1999/02/22-rdf-syntax-ns#" xmlns="http://www.w3.org/2000/svg" height="24" width="24" version="1.1" xmlns:cc="http://creativecommons.org/ns#" xmlns:dc="http://purl.org/dc/elements/1.1/">
 <metadata id="metadata4465">
  <rdf:RDF>
   <cc:Work rdf:about="">
    <dc:format>image/svg+xml</dc:format>
    <dc:type rdf:resource="http://purl.org/dc/dcmitype/StillImage"/>
    <dc:title/>
   </cc:Work>
  </rdf:RDF>
 </metadata>
 <g id="layer1" transform="translate(0 -1028.4)">
  <path id="path4598" style="opacity:.3;block-progression:tb;text-indent:0;color:#000000;text-transform:none;fill:#fff" d="m8.9062 1c-0.2325 0.017-0.458 0.1184-0.625 0.2812l-4 4c-0.1836 0.1898-0.2873 0.4548-0.2812 0.7188v7 3c0 1.091 0.9093 2 2 2h0.5625l-2.2813 2.281c-0.5743 0.556-0.0799 1.738 0.7188 1.719h4c0.3358-0.001 0.6654-0.184 0.8438-0.469l2.0002-3c0.104-0.166 0.142-0.341 0.125-0.531h1.062c-0.01 0.191 0.019 0.368 0.125 0.531l2 3c0.179 0.285 0.508 0.468 0.844 0.469h4c0.799 0.019 1.293-1.163 0.719-1.719l-2.281-2.281h0.562c1.091 0 2-0.909 2-2v-3-7c0.006-0.264-0.098-0.529-0.281-0.7188l-4-4c-0.19-0.1836-0.455-0.2873-0.719-0.2812h-7-0.0938zm-0.9062 7h9v2h-9v-2z" transform="translate(0 1028.4)"/>
  <path id="rect3226" style="fill:#444" d="m9 2l-4 4v7 3c0 0.554 0.446 1 1 1h13c0.554 0 1-0.446 1-1v-3-7l-4-4h-7zm1 2h5v2h-5v-2zm-3 3h11v4h-11v-4zm1 6c0.5523 0 1 0.448 1 1s-0.4477 1-1 1-1-0.448-1-1 0.4477-1 1-1zm9 0c0.552 0 1 0.448 1 1s-0.448 1-1 1-1-0.448-1-1 0.448-1 1-1z" transform="translate(0 1028.4)"/>
  <path id="path3047" d="m11 1046.4h-3l-3 3h4z" style="fill:#444"/>
  <path id="path3049" style="fill:#444" d="m14 1046.4h3l3 3h-4z"/>
 </g>
</svg>
