<?xml version="1.0" encoding="UTF-8" standalone="no"?>
<!-- Created with Inkscape (http://www.inkscape.org/) -->
<svg id="svg3336" xmlns:rdf="http://www.w3.org/1999/02/22-rdf-syntax-ns#" style="enable-background:new" xmlns="http://www.w3.org/2000/svg" height="512" viewBox="0 0 512.40002 512" width="512.4" version="1.1" xmlns:cc="http://creativecommons.org/ns#" xmlns:xlink="http://www.w3.org/1999/xlink" xmlns:dc="http://purl.org/dc/elements/1.1/">
 <defs id="defs3338">
  <filter id="filter4352" style="color-interpolation-filters:sRGB" height="1.2182" width="1.1714" y="-.10911" x="-0.0857">
   <feGaussianBlur id="feGaussianBlur4354" stdDeviation="6.1830937"/>
  </filter>
  <linearGradient id="linearGradient4242" y2="402.97" gradientUnits="userSpaceOnUse" x2="321.29" gradientTransform="matrix(1.3232 0 0 1.3232 -163.45 -197.57)" y1="274.78" x1="321.29">
   <stop id="stop4237" style="stop-color:#fafafa" offset="0"/>
   <stop id="stop4240" style="stop-color:#dbe6f1" offset="1"/>
  </linearGradient>
  <linearGradient id="linearGradient4302" y2="-464.25" gradientUnits="userSpaceOnUse" x2="-123.7" y1="-659.68" x1="-123.7">
   <stop id="stop4256" style="stop-color:#fff" offset="0"/>
   <stop id="stop4258" style="stop-color:#fff;stop-opacity:0" offset="1"/>
  </linearGradient>
  <clipPath id="clipPath4348" clipPathUnits="userSpaceOnUse">
   <path id="path4350" style="color:#000000;enable-background:accumulate;fill:#f0f" d="m350 18v476h512v-476zm307.41 238c37.71 0 68.59 30.51 68.59 68.01 0 37.49-30.88 67.99-68.59 67.99h-58.469c-25.301 0-46.098-20.617-46.098-45.881 0-23.561 17.95-43.495 41.225-46.176 9.93-25.55 34.27-43.94 63.34-43.94z"/>
  </clipPath>
  <linearGradient id="linearGradient4912" y2="494" gradientUnits="userSpaceOnUse" x2="256" gradientTransform="matrix(1 0 0 1.0756 0 -37.361)" y1="18" x1="256">
   <stop id="stop7539-5-8" style="stop-color:#c8d9ea" offset="0"/>
   <stop id="stop7541-23-2" style="stop-color:#e2e7ed" offset="1"/>
  </linearGradient>
  <linearGradient id="linearGradient4297" y2="320.39" xlink:href="#linearGradient4291" gradientUnits="userSpaceOnUse" x2="301.42" gradientTransform="translate(0,34)" y1="150.71" x1="301.42"/>
  <linearGradient id="linearGradient4291">
   <stop id="stop4293" style="stop-color:#fff" offset="0"/>
   <stop id="stop4295" style="stop-color:#fff;stop-opacity:0" offset="1"/>
  </linearGradient>
  <linearGradient id="linearGradient4310" y2="245.2" xlink:href="#linearGradient4291" gradientUnits="userSpaceOnUse" x2="173.98" gradientTransform="translate(0,34)" y1="152.22" x1="173.98"/>
  <filter id="filter4331" style="color-interpolation-filters:sRGB" height="1.0287" width="1.0206" y="-.014372" x="-0.0103">
   <feGaussianBlur id="feGaussianBlur4333" stdDeviation="1.3046669"/>
  </filter>
  <filter id="filter4338" style="color-interpolation-filters:sRGB" height="1.23" width="1.1648" y="-.11498" x="-0.0824">
   <feGaussianBlur id="feGaussianBlur4340" stdDeviation="10.437335"/>
  </filter>
  <linearGradient id="linearGradient4343" y2="158.54" spreadMethod="reflect" gradientUnits="userSpaceOnUse" x2="188.7" y1="240.92" x1="271.08">
   <stop id="stop4339" offset="0"/>
   <stop id="stop4341" style="stop-opacity:0" offset="1"/>
  </linearGradient>
  <linearGradient id="linearGradient4351" y2="328" gradientUnits="userSpaceOnUse" x2="732.45" y1="328" x1="538.01">
   <stop id="stop4347" offset="0"/>
   <stop id="stop4349" style="stop-opacity:0" offset="1"/>
  </linearGradient>
  <linearGradient id="linearGradient4359" y2="-644.7" gradientUnits="userSpaceOnUse" x2="-55.332" y1="-644.7" x1="-203.28">
   <stop id="stop4355" offset="0"/>
   <stop id="stop4357" style="stop-opacity:0" offset="1"/>
  </linearGradient>
 </defs>
 <metadata id="metadata3341">
  <rdf:RDF>
   <cc:Work rdf:about="">
    <dc:format>image/svg+xml</dc:format>
    <dc:type rdf:resource="http://purl.org/dc/dcmitype/StillImage"/>
    <dc:title/>
   </cc:Work>
  </rdf:RDF>
 </metadata>
 <g id="layer1" transform="translate(0,18)">
  <rect id="rect4158" style="color:#000000;enable-background:accumulate;fill:url(#linearGradient4912)" height="512" width="512" y="-18" x="0"/>
  <path id="path4305-3" style="opacity:.12;color:#000000;enable-background:accumulate;fill:#fff" d="m0 512 512-512v512z" transform="translate(0,-18)"/>
 </g>
 <g id="layer4">
  <path id="path4288" d="m267.88 122c-41.671 0-77.067 25.712-93.892 62.225-39.14 2.86-69.99 36.67-69.99 77.59 0 42.757 33.577 78.059 75.208 78.059h171.32c31.83 0 57.47-27.01 57.47-59.54 0-24.67-14.86-45.51-35.94-54.46-2.6-57.45-47.91-103.87-104.18-103.87z" style="opacity:.1;enable-background:accumulate;color-rendering:auto;color:#000000;shape-rendering:auto;filter:url(#filter4331);block-progression:tb;text-decoration-line:none;image-rendering:auto;text-indent:0;text-transform:none"/>
  <path id="path4336" style="opacity:.3;enable-background:accumulate;color-rendering:auto;color:#000000;shape-rendering:auto;filter:url(#filter4338);block-progression:tb;text-decoration-line:none;image-rendering:auto;text-indent:0;text-transform:none;fill:url(#linearGradient4343)" d="m267.88 122c-41.671 0-77.067 25.712-93.892 62.225-39.14 2.86-69.99 36.67-69.99 77.59 0 42.757 33.577 78.059 75.208 78.059h171.32c31.83 0 57.47-27.01 57.47-59.54 0-24.67-14.86-45.51-35.94-54.46-2.6-57.45-47.91-103.87-104.18-103.87z"/>
  <path id="path4233" style="enable-background:accumulate;color-rendering:auto;color:#000000;shape-rendering:auto;block-progression:tb;text-decoration-line:none;image-rendering:auto;text-indent:0;text-transform:none;fill:url(#linearGradient4242)" d="m267.88 120c-41.671 0-77.067 25.712-93.892 62.225-39.14 2.86-69.99 36.67-69.99 77.59 0 42.757 33.577 78.059 75.208 78.059h171.32c31.83 0 57.47-27.01 57.47-59.54 0-24.67-14.86-45.51-35.94-54.46-2.6-57.45-47.91-103.87-104.18-103.87z"/>
  <g id="g4342" style="opacity:.1;filter:url(#filter4352);fill:url(#linearGradient4351)" transform="translate(-350)" clip-path="url(#clipPath4348)">
   <g id="g4312" style="fill:url(#linearGradient4359)" transform="matrix(1.1704 0 0 1.1704 790.76 1082.5)">
    <path id="path4314" style="enable-background:accumulate;color-rendering:auto;color:#000000;shape-rendering:auto;block-progression:tb;text-decoration-line:none;image-rendering:auto;text-indent:0;text-transform:none;fill:url(#linearGradient4359)" d="m-113.94-702.8c32.215 0 58.603 26.065 58.603 58.105 0 32.039-26.388 58.096-58.603 58.096h-49.957c-21.618 0-39.387-17.615-39.387-39.201 0-20.131 15.338-37.164 35.224-39.454 8.4844-21.833 29.281-37.546 54.12-37.546z"/>
    <g id="g4316" style="fill:url(#linearGradient4359);display:none">
     <path id="path4318" d="m47.333 17c-7.8421 0-14.554 5.0292-17.318 12.187-0.0612-0.000673-0.12078 0-0.18229 0-7.087 0.001-12.833 6.003-12.833 13.407 0 7.4041 5.7457 13.406 12.833 13.406h33.833c5.1547 0 9.3333-4.3653 9.3333-9.7501 0-4.5434-2.9741-8.3631-7-9.4453 0.0013-0.10288 0-0.20152 0-0.30467 0.001-10.77-8.356-19.5-18.666-19.5z" style="stroke-width:3.4177;color:#000000;stroke:#ccc;enable-background:accumulate;display:inline;fill:url(#linearGradient4359)"/>
    </g>
   </g>
  </g>
  <path id="path812" d="m-208.32 605.62c-7.8421 0-14.554 5.0292-17.318 12.187-0.0612-0.00067-0.12078 0-0.18229 0-7.0877 0-12.833 6.0022-12.833 13.406 0 7.4041 5.7457 13.406 12.833 13.406h33.833c5.1547 0 9.3333-4.3653 9.3333-9.7501 0-4.5434-2.9741-8.3631-7-9.4452 0.001-0.10288 0-0.20153 0-0.30467 0-10.77-8.3574-19.5-18.667-19.5z" style="stroke-width:4;color:#000000;stroke:#ccc;enable-background:accumulate;display:none;fill:#fff"/>
  <path id="path4340" style="stroke-width:4;color:#000000;stroke:#ccc;enable-background:accumulate;display:none;fill:none" d="m288.87 828.08c-6.3492 0-11.783 4.0718-14.021 9.8674-0.0496-0.00055-0.0978 0-0.14759 0-5.7384 0-10.39 4.8596-10.39 10.854 0 5.9946 4.6519 10.854 10.39 10.854h27.393c4.1734 0 7.5566-3.5343 7.5566-7.894 0-3.6784-2.4079-6.7711-5.6674-7.6472 0.001-0.0833 0-0.16316 0-0.24667 0-8.7194-6.7664-15.788-15.113-15.788z"/>
  <path id="path4330" style="stroke-width:4;color:#000000;stroke:#ccc;enable-background:accumulate;display:none;fill:none" d="m736.16 1098.4c-9.1783 0-17.034 5.8861-20.268 14.264-0.0716-0.0008-0.14136 0-0.21335 0-8.2953 0-15.02 7.0249-15.02 15.69 0 8.6656 6.7246 15.69 15.02 15.69h39.598c6.0329 0 10.924-5.109 10.924-11.411 0-5.3174-3.4808-9.7881-8.1927-11.054 0.002-0.1205 0-0.2359 0-0.3566 0-12.605-9.7813-22.822-21.847-22.822z"/>
  <path id="path4398" style="enable-background:accumulate;color-rendering:auto;color:#000000;shape-rendering:auto;block-progression:tb;text-decoration-line:none;image-rendering:auto;text-indent:0;text-transform:none;fill:#fff" d="m267.88 102c-41.671 0-77.068 25.711-93.893 62.225-39.14 2.86-69.99 36.67-69.99 77.59 0 0.32879 0.0195 0.65258 0.0234 0.98047 0.50946-40.46 31.151-73.738 69.959-76.564 16.83-36.52 52.22-62.23 93.9-62.23 56.275 0 101.58 46.425 104.18 103.87 20.761 8.8194 35.471 29.153 35.92 53.332 0.004-0.28923 0.0215-0.57511 0.0215-0.86524 0-24.677-14.855-45.509-35.941-54.467-2.6-57.44-47.91-103.86-104.18-103.86z" transform="translate(0,18)"/>
  <path id="path4299" style="opacity:.8;color:#000000;enable-background:accumulate;fill:url(#linearGradient4310)" d="m182.14 181.77a78.041 78.041 0 0 0 -78.041 78.041 78.041 78.041 0 0 0 78.041 78.041 78.041 78.041 0 0 0 44.793 -14.252c-19.418-13.891-32.086-36.613-32.086-62.309 0.00023-26.604 13.574-50.03 34.166-63.756a78.041 78.041 0 0 0 -46.873 -15.766z"/>
  <path id="path4286" style="opacity:.8;color:#000000;enable-background:accumulate;fill:url(#linearGradient4297)" d="m271.42 184.71c-42.292-0.00073-76.578 34.284-76.578 76.576-0.00073 42.293 34.285 76.579 76.578 76.578h77.041c32.88 0.0003 59.535-26.655 59.535-59.535 0.0003-32.88-26.655-59.535-59.535-59.535-4.1871 0.0245-8.3599 0.49058-12.449 1.3906-14.051-22.088-38.413-35.468-64.592-35.475z"/>
  <g id="g4262" transform="matrix(1.1704 0 0 1.1704 440.76 1078.5)">
   <path id="path4294" style="enable-background:accumulate;color-rendering:auto;color:#000000;shape-rendering:auto;block-progression:tb;text-decoration-line:none;image-rendering:auto;text-indent:0;text-transform:none;fill:url(#linearGradient4302)" d="m-113.94-702.8c32.215 0 58.603 26.065 58.603 58.105 0 32.039-26.388 58.096-58.603 58.096h-49.957c-21.618 0-39.387-17.615-39.387-39.201 0-20.131 15.338-37.164 35.224-39.454 8.4844-21.833 29.281-37.546 54.12-37.546z"/>
   <g id="layer2" style="display:none">
    <path id="path812-2" d="m47.333 17c-7.8421 0-14.554 5.0292-17.318 12.187-0.0612-0.000673-0.12078 0-0.18229 0-7.087 0.001-12.833 6.003-12.833 13.407 0 7.4041 5.7457 13.406 12.833 13.406h33.833c5.1547 0 9.3333-4.3653 9.3333-9.7501 0-4.5434-2.9741-8.3631-7-9.4453 0.0013-0.10288 0-0.20152 0-0.30467 0.001-10.77-8.356-19.5-18.666-19.5z" style="stroke-width:3.4177;color:#000000;stroke:#ccc;enable-background:accumulate;display:inline;fill:none"/>
   </g>
  </g>
 </g>
</svg>
