<?xml version="1.0" encoding="UTF-8" standalone="no"?>
<!-- Created with Inkscape (http://www.inkscape.org/) -->
<svg id="svg3336" xmlns:rdf="http://www.w3.org/1999/02/22-rdf-syntax-ns#" style="enable-background:new" xmlns="http://www.w3.org/2000/svg" height="512" viewBox="0 0 512.40002 512" width="512.4" version="1.1" xmlns:cc="http://creativecommons.org/ns#" xmlns:xlink="http://www.w3.org/1999/xlink" xmlns:dc="http://purl.org/dc/elements/1.1/">
 <defs id="defs3338">
  <linearGradient id="linearGradient4243">
   <stop id="stop4245" style="stop-color:#fff" offset="0"/>
   <stop id="stop4247" style="stop-color:#fff;stop-opacity:0" offset="1"/>
  </linearGradient>
  <linearGradient id="linearGradient4912" y2="494" gradientUnits="userSpaceOnUse" x2="256" gradientTransform="matrix(1 0 0 1.0756 0 -37.361)" y1="18" x1="256">
   <stop id="stop7539-5" style="stop-color:#747d86" offset="0"/>
   <stop id="stop7541-23" style="stop-color:#b6bbbf" offset="1"/>
  </linearGradient>
  <linearGradient id="linearGradient4258" y2="265.45" xlink:href="#linearGradient4243" gradientUnits="userSpaceOnUse" x2="331.26" y1="207.36" x1="374.26"/>
  <filter id="filter4457" style="color-interpolation-filters:sRGB" height="1.2027" width="1.1823" y="-.10137" x="-.091171">
   <feGaussianBlur id="feGaussianBlur4459" stdDeviation="5.7766557"/>
  </filter>
  <linearGradient id="linearGradient4249" y2="293.89" xlink:href="#linearGradient4243" gradientUnits="userSpaceOnUse" x2="227.81" gradientTransform="translate(6.3685e-7 18)" y1="171.1" x1="227.81"/>
  <linearGradient id="linearGradient4263" y2="293.2" gradientUnits="userSpaceOnUse" x2="260.51" gradientTransform="matrix(.94667 0 0 .94667 18.029 32.336)" y1="111.81" x1="260.51">
   <stop id="stop4237" style="stop-color:#e4e9ee" offset="0"/>
   <stop id="stop4240" style="stop-color:#b6bec6" offset="1"/>
  </linearGradient>
  <linearGradient id="linearGradient4336" y2="283.12" spreadMethod="reflect" gradientUnits="userSpaceOnUse" x2="410.95" y1="192.09" x1="319.91">
   <stop id="stop4332" offset="0"/>
   <stop id="stop4334" style="stop-opacity:0" offset="1"/>
  </linearGradient>
  <filter id="filter4344" style="color-interpolation-filters:sRGB" height="1.2513" width="1.1553" y="-.12566" x="-.077668">
   <feGaussianBlur id="feGaussianBlur4346" stdDeviation="9.8378946"/>
  </filter>
  <filter id="filter4324" style="color-interpolation-filters:sRGB" height="1.0314" width="1.0194" y="-.015708" x="-.0097084">
   <feGaussianBlur id="feGaussianBlur4326" stdDeviation="1.2297368"/>
  </filter>
 </defs>
 <metadata id="metadata3341">
  <rdf:RDF>
   <cc:Work rdf:about="">
    <dc:format>image/svg+xml</dc:format>
    <dc:type rdf:resource="http://purl.org/dc/dcmitype/StillImage"/>
    <dc:title/>
   </cc:Work>
  </rdf:RDF>
 </metadata>
 <g id="layer1" transform="translate(0,18)">
  <rect id="rect4158" style="color:#000000;enable-background:accumulate;fill:url(#linearGradient4912)" height="512" width="512" y="-18" x="0"/>
  <path id="path4305-3" style="opacity:.05;color:#000000;enable-background:accumulate;fill:#fff" d="m0 512 512-512v512z" transform="translate(0,-18)"/>
 </g>
 <g id="layer4">
  <path id="path4274" d="m293.22 126c-25.935 0.0326-50.29 12.467-65.525 33.455-5.644-1.594-11.478-2.4132-17.343-2.4351-34.824 0.0389-63.37 27.635-64.588 62.437-23.809 2.8568-41.738 23.039-41.768 47.019-0.00085 26.188 21.228 47.418 47.417 47.418h199.87c31.32 0 56.72-25.4 56.72-56.73-0.02-22.42-13.24-42.73-33.74-51.81-0.95-44.09-36.94-79.34-81.04-79.36z" style="opacity:.1;color:#000000;filter:url(#filter4324);enable-background:accumulate"/>
  <path id="path4306" style="opacity:.4;color:#000000;filter:url(#filter4344);enable-background:accumulate;fill:url(#linearGradient4336)" d="m293.22 126c-25.935 0.0326-50.29 12.467-65.525 33.455-5.644-1.594-11.478-2.4132-17.343-2.4351-34.824 0.0389-63.37 27.635-64.588 62.437-23.809 2.8568-41.738 23.039-41.768 47.019-0.00085 26.188 21.228 47.418 47.417 47.418h199.87c31.32 0 56.72-25.4 56.72-56.73-0.02-22.42-13.24-42.73-33.74-51.81-0.95-44.09-36.94-79.34-81.04-79.36z"/>
  <path id="path4246" style="color:#000000;enable-background:accumulate;fill:url(#linearGradient4263)" d="m293.22 124c-25.935 0.0326-50.29 12.467-65.525 33.455-5.644-1.594-11.478-2.4132-17.343-2.4351-34.824 0.0389-63.37 27.635-64.588 62.437-23.809 2.8568-41.738 23.039-41.768 47.019-0.00085 26.188 21.228 47.418 47.417 47.418h199.87c31.32 0 56.72-25.4 56.72-56.73-0.02-22.42-13.24-42.73-33.74-51.81-0.95-44.09-36.94-79.34-81.04-79.36z"/>
  <path id="path4265" style="opacity:.3;color:#000000;enable-background:accumulate;fill:#fff" d="m293.22 124c-25.935 0.0326-50.29 12.467-65.525 33.455-5.644-1.594-11.479-2.4137-17.344-2.4356-34.824 0.0389-63.37 27.635-64.588 62.438-23.809 2.8568-41.737 23.04-41.768 47.02-0.00001 0.32762 0.0188 0.65053 0.0254 0.97656 0.53219-23.527 18.274-43.18 41.742-45.996 1.2176-34.803 29.764-62.399 64.588-62.438 5.8647 0.0219 11.7 0.84156 17.344 2.4356 15.236-20.988 39.591-33.422 65.525-33.455 44.094 0.0235 80.088 35.274 81.033 79.357 20.154 8.9311 33.267 28.71 33.721 50.682 0.004-0.29036 0.0215-0.57773 0.0215-0.86914-0.018-22.422-13.243-42.728-33.742-51.812-0.94-44.1-36.93-79.35-81.03-79.37z"/>
  <path id="path4238" style="opacity:.3;color:#000000;enable-background:accumulate;fill:url(#linearGradient4249)" d="m227.81 189.1c-22.996 0.0241-44.051 12.896-54.555 33.354-6.7444-3.5188-14.237-5.3631-21.844-5.377-26.184-0.00019-47.41 21.226-47.41 47.41-0.00018 26.184 21.226 47.41 47.41 47.41h76.398c33.909 0.00014 61.399-27.489 61.398-61.398 0.00013-33.909-27.489-61.399-61.398-61.398z"/>
  <path id="path4247" style="opacity:.2;color:#000000;filter:url(#filter4457);enable-background:accumulate" d="m292.29 249.23c-0.34508-0.006-0.69124 0.001-1.0391 0.0195-5.006 0.2719-9.5434 3.0851-12.049 7.459l-61.252 106.87c-5.6069 9.7749 1.6342 22.417 12.842 22.422h122.5c11.208-0.005 18.449-12.647 12.842-22.422l-61.252-106.87c-2.6114-4.5581-7.4177-7.3854-12.594-7.4785z"/>
  <path id="path812" d="m-208.32 605.62c-7.8421 0-14.554 5.0292-17.318 12.187-0.0612-0.00067-0.12078 0-0.18229 0-7.0877 0-12.833 6.0022-12.833 13.406 0 7.4041 5.7457 13.406 12.833 13.406h33.833c5.1547 0 9.3333-4.3653 9.3333-9.7501 0-4.5434-2.9741-8.3631-7-9.4452 0.001-0.10288 0-0.20153 0-0.30467 0-10.77-8.3574-19.5-18.667-19.5z" style="stroke-width:4;color:#000000;stroke:#ccc;enable-background:accumulate;display:none;fill:#fff"/>
  <path id="path4340" style="stroke-width:4;color:#000000;stroke:#ccc;enable-background:accumulate;display:none;fill:none" d="m288.87 828.08c-6.3492 0-11.783 4.0718-14.021 9.8674-0.0496-0.00055-0.0978 0-0.14759 0-5.7384 0-10.39 4.8596-10.39 10.854 0 5.9946 4.6519 10.854 10.39 10.854h27.393c4.1734 0 7.5566-3.5343 7.5566-7.894 0-3.6784-2.4079-6.7711-5.6674-7.6472 0.001-0.0833 0-0.16316 0-0.24667 0-8.7194-6.7664-15.788-15.113-15.788z"/>
  <path id="path4330" style="stroke-width:4;color:#000000;stroke:#ccc;enable-background:accumulate;display:none;fill:none" d="m736.16 1098.4c-9.1783 0-17.034 5.8861-20.268 14.264-0.0716-0.0008-0.14136 0-0.21335 0-8.2953 0-15.02 7.0249-15.02 15.69 0 8.6656 6.7246 15.69 15.02 15.69h39.598c6.0329 0 10.924-5.109 10.924-11.411 0-5.3174-3.4808-9.7881-8.1927-11.054 0.002-0.1205 0-0.2359 0-0.3566 0-12.605-9.7813-22.822-21.847-22.822z"/>
  <path id="path17" style="color:#000000;enable-background:accumulate;fill:#df382c" d="m43.994 45.582c-3.1944 5.1865-6.1228 10.556-9.2148 15.812-0.46107 1.1476 0.45851 2.4179 1.6962 2.2617h17.44c1.2223-0.17725 1.8653-1.6081 1.1089-2.6008-2.9067-5.0348-5.8135-10.07-8.7202-15.104-0.79174-0.74032-1.3236-0.82136-2.3105-0.36914z" transform="matrix(6.8698 0 0 6.9198 -17.104 -61.005)"/>
  <text id="text4264" style="font-size:102.9px;font-weight:500;letter-spacing:0px;text-anchor:middle;line-height:125%;word-spacing:0px;text-align:center;font-family:Ubuntu;fill:#ffffff" xml:space="preserve" transform="scale(1.0001 .99986)" y="362.15933" x="292.02893"><tspan id="tspan4266" x="292.02893" y="362.15933">!</tspan></text>
  <path id="path4240" style="color-rendering:auto;color:#000000;shape-rendering:auto;text-decoration-line:none;fill:#fff;mix-blend-mode:normal;block-progression:tb;text-indent:0;image-rendering:auto;isolation:auto;enable-background:accumulate;text-transform:none" d="m291.25 247.25c-5.006 0.2719-9.5436 3.0865-12.049 7.4604l-61.251 106.87c-5.6069 9.7749 1.633 22.417 12.841 22.422h122.5c11.208-0.005 18.448-12.647 12.841-22.422l-61.25-106.87c-2.7855-4.862-8.067-7.7548-13.632-7.4604zm0.48303 9.0282c2.2152-0.11716 4.2852 1.0111 5.3939 2.9463l61.251 106.87c2.3694 4.1308-0.34901 8.8775-5.0853 8.8795h-122.49c-4.7363-0.002-7.4547-4.7487-5.0853-8.8795l61.251-106.87c0.99533-1.7377 2.7879-2.8383 4.7767-2.9463z"/>
 </g>
</svg>
