<?xml version="1.0" encoding="UTF-8" standalone="no"?>
<!-- Created with Inkscape (http://www.inkscape.org/) -->
<svg id="svg7384" xmlns:rdf="http://www.w3.org/1999/02/22-rdf-syntax-ns#" xmlns="http://www.w3.org/2000/svg" xmlns:osb="http://www.openswatchbook.org/uri/2009/osb" height="16" width="16.038" version="1.1" xmlns:cc="http://creativecommons.org/ns#" xmlns:dc="http://purl.org/dc/elements/1.1/">
 <metadata id="metadata90">
  <rdf:RDF>
   <cc:Work rdf:about="">
    <dc:format>image/svg+xml</dc:format>
    <dc:type rdf:resource="http://purl.org/dc/dcmitype/StillImage"/>
    <dc:title>Gnome Symbolic Icon Theme</dc:title>
   </cc:Work>
  </rdf:RDF>
 </metadata>
 <title id="title9167">Gnome Symbolic Icon Theme</title>
 <g id="layer9" transform="translate(-462.96 105)">
  <path id="path12403" style="color:#bebebe;text-indent:0;block-progression:tb;text-decoration-line:none;text-transform:none;fill:#bebebe" d="m466.41-103.99c-1.0881 0-2.0827 0.70238-2.2175 1.7113l-1.1827 7.7163c-0.23162 1.7327 0.29768 3.5857 2.0555 3.5603l10.822-0.15625c1.7578-0.0254 2.3307-1.6724 2.0913-3.4041l-1.2185-7.6805c-0.14428-1.0438-1.1105-1.7472-2.2175-1.7472zm-0.12178 0.99331 8.2076 0.004 0.4841 4.7673-0.30266 0.78741 0.46885 0.62631 0.50336 3.808h-10.328l0.43945-3.9052 0.48554-0.59708-0.37686-0.53694z"/>
  <path id="path12416" style="color:#000000;text-indent:0;block-progression:tb;text-decoration-line:none;text-transform:none;fill:#bebebe" d="m474.02-100.97-3.0024-0.013 0.0435 1.0204h1.9434l-2.0094 4.9367 1.3003-0.0389 1.7245-4.6984zm-6.5329 1.6176c1.1554-0.89693 1.5747-0.23156 1.1354 0.77095l-1.607 3.0178v0.55073l2.9852-0.013 0.0326-0.98533-1.4834 0.013 0.88135-1.8291c1.4181-2.2958-0.36954-4.3557-2.3383-2.5838z"/>
 </g>
</svg>
