<?xml version="1.0" encoding="UTF-8" standalone="no"?>
<!-- Created with Inkscape (http://www.inkscape.org/) -->
<svg id="svg4874" xmlns:rdf="http://www.w3.org/1999/02/22-rdf-syntax-ns#" xmlns="http://www.w3.org/2000/svg" height="96" viewBox="0 0 96 96.000001" width="96" version="1.1" xmlns:cc="http://creativecommons.org/ns#" xmlns:dc="http://purl.org/dc/elements/1.1/">
 <metadata id="metadata4879">
  <rdf:RDF>
   <cc:Work rdf:about="">
    <dc:format>image/svg+xml</dc:format>
    <dc:type rdf:resource="http://purl.org/dc/dcmitype/StillImage"/>
    <dc:title/>
   </cc:Work>
  </rdf:RDF>
 </metadata>
 <g id="layer1" transform="translate(67.857 -78.505)">
  <rect id="rect4782" style="color:#000000;fill:none" transform="rotate(90)" height="96" width="96" y="-28.143" x="78.505"/>
  <path id="path4179" style="color-rendering:auto;text-decoration-color:#000000;color:#000000;font-variant-numeric:normal;shape-rendering:auto;solid-color:#000000;text-decoration-line:none;fill:#808080;font-variant-position:normal;mix-blend-mode:normal;font-feature-settings:normal;shape-padding:0;font-variant-alternates:normal;text-indent:0;font-variant-ligatures:normal;font-variant-caps:normal;image-rendering:auto;white-space:normal;text-decoration-style:solid;text-orientation:mixed;isolation:auto;text-transform:none" d="m23.977 8c-5.033 0.0582-8.714-0.1203-11.725 1.541-1.506 0.831-2.6969 2.236-3.3555 3.99-0.6587 1.755-0.8965 3.839-0.8965 6.469v56c0 2.63 0.2378 4.712 0.8965 6.467 0.6586 1.754 1.8495 3.159 3.3555 3.99 3.011 1.661 6.692 1.485 11.725 1.543h0.011 48.024 0.011c5.033-0.058 8.714 0.118 11.725-1.543 1.506-0.831 2.697-2.236 3.356-3.99 0.658-1.755 0.896-3.837 0.896-6.467v-10h-4v10c0 2.37-0.25 4.023-0.641 5.062-0.39 1.04-0.809 1.488-1.543 1.893-0.764 0.422-2.061 0.669-3.816 0.82v-21.775h1 5 4v-22h-4v18h-6v-22h1 5 4v-4-12c0-2.63-0.238-4.714-0.896-6.469-0.659-1.754-1.85-3.159-3.356-3.99-3.011-1.6613-6.692-1.4828-11.725-1.541h-0.011-48.024-0.011zm0.023 4h48c5.038 0.059 8.352 0.237 9.816 1.045 0.734 0.405 1.153 0.853 1.543 1.893 0.391 1.039 0.641 2.692 0.641 5.062v12h-10v26 4 21.957c-0.657 0.015-1.27 0.034-2 0.043h-47.977-0.023c-0.73-0.009-1.343-0.028-2-0.043v-71.914c0.657-0.015 1.27-0.034 2-0.043z" transform="translate(-67.857 78.505)"/>
  <path id="path4202" style="color-rendering:auto;text-decoration-color:#000000;color:#000000;font-variant-numeric:normal;text-orientation:mixed;shape-rendering:auto;solid-color:#000000;text-decoration-line:none;fill:#808080;font-variant-position:normal;mix-blend-mode:normal;font-feature-settings:normal;shape-padding:0;font-variant-alternates:normal;text-indent:0;font-variant-caps:normal;image-rendering:auto;white-space:normal;text-decoration-style:solid;font-variant-ligatures:normal;isolation:auto;text-transform:none" d="m-20.402 102.51c-1.6108 0-3.1604 0.3093-4.582 0.93359-1.4069 0.59259-2.6607 1.4662-3.6953 2.5859l-0.0098 0.0117-0.01172 0.0117c-1.0131 1.1307-1.7864 2.4824-2.3262 3.998-0.55132 1.5223-0.81445 3.1776-0.81445 4.9336 0 1.7812 0.26181 3.4521 0.81641 4.9805 0.5413 1.4917 1.3163 2.8282 2.3242 3.9531l0.01172 0.0117 0.0098 0.0117c0.25016 0.27074 0.5148 0.5266 0.78906 0.76953-0.0627 0.0242-0.12724 0.0454-0.18945 0.0703-2.1882 0.87636-4.0615 2.1046-5.5371 3.6875l-0.0098 0.0117-0.0098 0.01c-1.4433 1.5913-2.527 3.4741-3.2344 5.582l-0.0059 0.0176-0.0059 0.0195c-0.65406 2.0789-0.97461 4.303-0.97461 6.6504v4.5117l0.73828 0.59961s1.5799 1.2612 4.3711 2.3965 6.9231 2.2441 12.346 2.2441c5.4226 0 9.5525-1.1089 12.344-2.2441 2.7912-1.1353 4.3711-2.3965 4.3711-2.3965l0.73828-0.59961v-4.5117c0-2.351-0.34143-4.5818-1.0371-6.6641-0.67119-2.1263-1.7681-4.0293-3.2598-5.625-0.60895-0.65324-1.3019-1.2311-2.041-1.7637-0.94748 1.0321-2.0537 1.9195-3.2539 2.6426 0.92127 0.53559 1.7156 1.1446 2.3691 1.8457v0.002h0.002c1.089 1.1643 1.8691 2.5074 2.373 4.1094l0.0059 0.0195 0.0059 0.0176c0.55252 1.6468 0.83594 3.4404 0.83594 5.4141v2.4043c-0.35542 0.25956-0.77633 0.64971-2.6172 1.3984-2.3602 0.95995-5.9556 1.9492-10.836 1.9492-4.8803 0-8.4777-0.98927-10.838-1.9492-1.8409-0.74873-2.2618-1.1389-2.6172-1.3984v-2.4043c0-1.9801 0.26886-3.7828 0.78711-5.4356 0.54418-1.6121 1.3331-2.97 2.3867-4.1348 1.0306-1.103 2.3647-2.0024 4.0898-2.6934 1.6627-0.66589 3.7113-1.0308 6.168-1.0332 0.0079 0.00002 0.01554 0.002 0.02344 0.002 1.6039 0 3.144-0.28863 4.5625-0.88282l0.01758-0.01 0.01758-0.008c1.4018-0.61806 2.6386-1.5102 3.6504-2.6367 1.0352-1.1241 1.8299-2.464 2.373-3.9609 0.5546-1.5283 0.81641-3.1992 0.81641-4.9805 0-1.756-0.26313-3.4113-0.81445-4.9336-0.54186-1.5215-1.3356-2.8775-2.377-4.0078-1.0115-1.1256-2.2555-2.005-3.6602-2.5976-1.4227-0.62543-2.9737-0.93555-4.5859-0.93555zm0 4c1.1172 0 2.0872 0.20292 2.9824 0.59766l0.01758 0.006 0.01758 0.01c0.90109 0.37744 1.6308 0.89735 2.2617 1.6016l0.0098 0.01 0.0098 0.0117c0.65453 0.70835 1.174 1.5712 1.5586 2.6523l0.002 0.006 0.002 0.006c0.37522 1.034 0.57617 2.2139 0.57617 3.5762 0 1.3911-0.20242 2.5872-0.57617 3.6172-0.38298 1.0554-0.90171 1.9099-1.5625 2.625l-0.0098 0.0117-0.0098 0.01c-0.63332 0.70686-1.3754 1.2418-2.2832 1.6445-0.89712 0.37272-1.8745 0.56836-2.9961 0.56836v-0.002h-0.02344c-1.1115-0.003-2.0839-0.19635-2.9746-0.5664-0.90692-0.40227-1.6645-0.94198-2.3262-1.6543-0.63913-0.71547-1.1535-1.5741-1.5391-2.6367-0.37376-1.03-0.57617-2.2261-0.57617-3.6172 0-1.3623 0.20095-2.5422 0.57617-3.5762l0.002-0.006 0.0039-0.006c0.38689-1.0875 0.9006-1.9536 1.5332-2.6621 0.65935-0.70988 1.4046-1.2363 2.3047-1.6133l0.01758-0.008 0.01758-0.006c0.8952-0.39474 1.8672-0.59766 2.9844-0.59766z"/>
 </g>
</svg>
