<?xml version="1.0" encoding="UTF-8" standalone="no"?>
<!-- Created with Inkscape (http://www.inkscape.org/) -->
<svg id="svg4874" xmlns:rdf="http://www.w3.org/1999/02/22-rdf-syntax-ns#" xmlns="http://www.w3.org/2000/svg" height="96" viewBox="0 0 96 96.000001" width="96" version="1.1" xmlns:cc="http://creativecommons.org/ns#" xmlns:dc="http://purl.org/dc/elements/1.1/">
 <metadata id="metadata4879">
  <rdf:RDF>
   <cc:Work rdf:about="">
    <dc:format>image/svg+xml</dc:format>
    <dc:type rdf:resource="http://purl.org/dc/dcmitype/StillImage"/>
    <dc:title/>
   </cc:Work>
  </rdf:RDF>
 </metadata>
 <g id="layer1" transform="translate(67.857 -78.505)">
  <rect id="rect4782-35" style="color:#000000;fill:none" transform="rotate(90)" height="96" width="96" y="-28.143" x="78.505"/>
  <path id="path4116-8" d="m-19.856 84.505c-23.173 0-42 18.827-42 41.999s18.827 41.999 42 41.999 42-18.827 42-41.999-18.827-41.999-42-41.999zm0 3.9984c21.01 0 38 16.99 38 38.001s-16.99 38.001-38 38.001-38-16.99-38-38.001 16.99-38.001 38-38.001z" style="color-rendering:auto;text-decoration-color:#000000;color:#000000;font-variant-numeric:normal;shape-rendering:auto;solid-color:#000000;text-decoration-line:none;fill:#808080;font-variant-position:normal;mix-blend-mode:normal;font-feature-settings:normal;shape-padding:0;font-variant-alternates:normal;text-indent:0;font-variant-caps:normal;image-rendering:auto;white-space:normal;text-decoration-style:solid;font-variant-ligatures:none;isolation:auto;text-transform:none"/>
  <path id="ellipse4183" d="m-21.663 100.57c2.815-0.19766 5.6957 0.0631 8.5352 0.8239 11.358 3.0433 19.27 13.356 19.27 25.113h-4c0-9.9674-6.6798-18.67-16.307-21.249-9.6269-2.5795-19.761 1.618-24.744 10.25l-3.4648-1.9992c4.4092-7.6369 12.266-12.346 20.711-12.938z" style="color-rendering:auto;text-decoration-color:#000000;color:#000000;font-variant-numeric:normal;shape-rendering:auto;solid-color:#000000;text-decoration-line:none;fill:#808080;font-variant-position:normal;mix-blend-mode:normal;font-feature-settings:normal;shape-padding:0;font-variant-alternates:normal;text-indent:0;font-variant-caps:normal;image-rendering:auto;white-space:normal;text-decoration-style:solid;font-variant-ligatures:none;isolation:auto;text-transform:none"/>
  <path id="path4187" d="m-18.052 152.44c-2.815 0.19767-5.6957-0.0612-8.5352-0.82193-11.358-3.0433-19.27-13.356-19.27-25.113h4c0 9.9674 6.6798 18.67 16.307 21.249 9.6269 2.5795 19.761-1.6181 24.744-10.25l3.4668 1.9992c-4.4092 7.6369-12.268 12.344-20.713 12.936z" style="color-rendering:auto;text-decoration-color:#000000;color:#000000;font-variant-numeric:normal;shape-rendering:auto;solid-color:#000000;text-decoration-line:none;fill:#808080;font-variant-position:normal;mix-blend-mode:normal;font-feature-settings:normal;shape-padding:0;font-variant-alternates:normal;text-indent:0;font-variant-caps:normal;image-rendering:auto;white-space:normal;text-decoration-style:solid;font-variant-ligatures:none;isolation:auto;text-transform:none"/>
  <path id="path5918" style="color:#000000;fill:#808080" d="m-6.5222 122.42 18.665-7.1843c-0.22375 3.2869-0.5836 6.6835-1.0752 10.19-0.50612 3.481-1.1013 6.8801-1.7886 10.196-2.6998-2.0116-5.4056-4.1394-8.1157-6.3818-2.7182-2.2723-5.2797-4.5458-7.686-6.8213z"/>
  <path id="path4471" style="color:#000000;fill:#808080" d="m-33.192 130.59-18.665 7.1843c0.22375-3.2869 0.5836-6.6834 1.0752-10.19 0.50612-3.481 1.1013-6.8801 1.7886-10.196 2.6998 2.0116 5.4056 4.1394 8.1157 6.3818 2.7182 2.2723 5.2797 4.5458 7.686 6.8213z"/>
 </g>
</svg>
