<?xml version="1.0" encoding="UTF-8" standalone="no"?>
<!-- Created with Inkscape (http://www.inkscape.org/) -->
<svg id="svg4874" xmlns:rdf="http://www.w3.org/1999/02/22-rdf-syntax-ns#" xmlns="http://www.w3.org/2000/svg" height="96" viewBox="0 0 96 96.000001" width="96" version="1.1" xmlns:cc="http://creativecommons.org/ns#" xmlns:dc="http://purl.org/dc/elements/1.1/">
 <metadata id="metadata4879">
  <rdf:RDF>
   <cc:Work rdf:about="">
    <dc:format>image/svg+xml</dc:format>
    <dc:type rdf:resource="http://purl.org/dc/dcmitype/StillImage"/>
    <dc:title/>
   </cc:Work>
  </rdf:RDF>
 </metadata>
 <g id="layer1" transform="translate(67.857 -78.505)">
  <rect id="rect4782" style="color:#000000;fill:none" transform="rotate(90)" height="96" width="96" y="-28.143" x="78.505"/>
  <path id="path4223" style="color:#000000;fill:#808080" d="m96 0l-42.547 24.631a24.013 24.013 0 0 1 11.526 6.39 24.013 24.013 0 0 1 6.38 11.543l24.641-42.564z" transform="translate(-67.857 78.505)"/>
  <path id="path4225" style="color-rendering:auto;text-decoration-color:#000000;color:#000000;font-variant-numeric:normal;shape-rendering:auto;solid-color:#000000;text-decoration-line:none;fill:#808080;font-variant-position:normal;mix-blend-mode:normal;block-progression:tb;font-feature-settings:normal;shape-padding:0;font-variant-alternates:normal;text-indent:0;font-variant-caps:normal;image-rendering:auto;white-space:normal;text-decoration-style:solid;font-variant-ligatures:none;isolation:auto;text-transform:none" d="m48 22c-6.662 0-13.324 2.535-18.395 7.605-7.112 7.113-9.228 17.353-6.365 26.334l-23.125 39.946 39.946-23.125c8.981 2.863 19.219 0.747 26.332-6.365 10.141-10.142 10.143-26.648 0.002-36.79-5.071-5.07-11.733-7.605-18.395-7.605zm0 3.975c5.63 0 11.26 2.154 15.566 6.461 8.614 8.613 8.612 22.515-0.002 31.128-5.905 5.906-14.297 7.763-21.765 5.571l-1.264-0.453c-3.034-1.088-5.792-2.829-8.08-5.1-0.005-0.005-0.011-0.009-0.016-0.014l-0.003-0.004c-0.002-0.001-0.003-0.002-0.004-0.003-0.005-0.005-0.009-0.011-0.014-0.016-2.27-2.289-4.011-5.047-5.098-8.082l-0.463-1.295c-2.177-7.461-0.32-15.836 5.577-21.732 4.306-4.307 9.936-6.461 15.566-6.461zm-22.793 34.548c1.155 2.105 2.616 4.085 4.397 5.866l0.003 0.004c0.001 0 0 0.001 0 0.002l0.004 0.001c1.782 1.781 3.761 3.242 5.866 4.397l-24.387 14.117 14.117-24.387z" transform="translate(-67.857 78.505)"/>
 </g>
</svg>
