<?xml version="1.0" encoding="UTF-8" standalone="no"?>
<!-- Created with Inkscape (http://www.inkscape.org/) -->
<svg id="svg3336" xmlns:rdf="http://www.w3.org/1999/02/22-rdf-syntax-ns#" style="enable-background:new" xmlns="http://www.w3.org/2000/svg" height="512" viewBox="0 0 512 512" width="512" version="1.1" xmlns:cc="http://creativecommons.org/ns#" xmlns:xlink="http://www.w3.org/1999/xlink" xmlns:dc="http://purl.org/dc/elements/1.1/">
 <defs id="defs3338">
  <linearGradient id="linearGradient4285" y2="496" gradientUnits="userSpaceOnUse" x2="368" gradientTransform="matrix(.84848 0 0 .94118 95.03 0)" y1="16" x1="128">
   <stop id="stop4366" style="stop-color:#6b8fea" offset="0"/>
   <stop id="stop4368" style="stop-color:#87a6f3" offset="1"/>
  </linearGradient>
  <clipPath id="clipPath4277-8" clipPathUnits="userSpaceOnUse">
   <rect id="rect4279-6" style="opacity:0.82;color:#000000;enable-background:accumulate;fill:#88b637" ry="1" height="512" width="512" y="0" x="5.6e-7"/>
  </clipPath>
  <filter id="filter4261" style="color-interpolation-filters:sRGB" height="1.0244" width="1.0237" y="-.012176" x="-.011829">
   <feGaussianBlur id="feGaussianBlur4263" stdDeviation="2.76"/>
  </filter>
  <linearGradient id="linearGradient4273" y2="496" spreadMethod="reflect" gradientUnits="userSpaceOnUse" x2="448" y1="256" x1="448">
   <stop id="stop4267" offset="0"/>
   <stop id="stop4269" style="stop-opacity:0" offset="1"/>
  </linearGradient>
  <filter id="filter4275" style="color-interpolation-filters:sRGB" height="1.1948" width="1.1893" y="-.097412" x="-.094629">
   <feGaussianBlur id="feGaussianBlur4277" stdDeviation="22.08"/>
  </filter>
 </defs>
 <metadata id="metadata3341">
  <rdf:RDF>
   <cc:Work rdf:about="">
    <dc:format>image/svg+xml</dc:format>
    <dc:type rdf:resource="http://purl.org/dc/dcmitype/StillImage"/>
    <dc:title/>
   </cc:Work>
  </rdf:RDF>
 </metadata>
 <g id="layer3">
  <path id="rect4158" style="color:#000000;enable-background:accumulate;fill:#f3f2eb" d="m166.05 18c-145.29 0-166.05 20.737-166.05 165.9v144.2c0 145.16 20.757 165.9 166.05 165.9h179.9c145.29 0 166.05-20.74 166.05-165.9v-144.2c0-145.16-20.76-165.9-166.05-165.9z"/>
  <rect id="rect4362" style="color:#000000;enable-background:accumulate;fill:#e93549" transform="scale(1,-1)" height="152" width="176" y="-152" x="336"/>
  <rect id="rect4287" style="color:#000000;enable-background:accumulate;fill:#88b637" height="104" width="176" y="152" x="336"/>
  <rect id="rect4289" style="color:#000000;enable-background:accumulate;fill:#faf8f6" height="168" width="176" y="344" x="336"/>
  <rect id="rect4327" style="color:#000000;enable-background:accumulate;fill:#fac82e" height="104" width="176" y="256" x="336"/>
  <g id="g4275" style="enable-background:new" clip-path="url(#clipPath4277-8)">
   <g id="g4268">
    <rect id="rect4259" style="opacity:.1;color:#000000;filter:url(#filter4261);enable-background:accumulate" height="544" width="560" y="0" x="-110"/>
    <rect id="rect4265" style="opacity:.4;color:#000000;filter:url(#filter4275);enable-background:accumulate;fill:url(#linearGradient4273)" height="544" width="560" y="0" x="-110"/>
   </g>
  </g>
  <rect id="rect4268" style="color:#000000;enable-background:accumulate;fill:url(#linearGradient4285)" height="512" width="448" y="0" x="1.6484e-8"/>
  <rect id="rect4280" style="color:#000000;enable-background:accumulate;fill:#3b63c8" height="512" width="64" y="-5.5652e-7" x="5.6e-7"/>
  <path id="rect4342" style="opacity:.1;color:#000000;enable-background:accumulate;fill:#fff" d="m446 0v512h2v-512h-2z"/>
 </g>
 <g id="layer4">
  <rect id="rect4275" style="opacity:.4;color:#000000;enable-background:accumulate;fill:#fff" height="16" width="176" y="360" x="168"/>
  <rect id="rect4277" style="opacity:.4;color:#000000;enable-background:accumulate;fill:#fff" height="16" width="176" y="392" x="168"/>
  <path id="path4202" style="color-rendering:auto;text-decoration-color:#000000;color:#000000;font-variant-numeric:normal;shape-rendering:auto;solid-color:#000000;text-decoration-line:none;fill:#e4ebfe;font-variant-position:normal;mix-blend-mode:normal;font-feature-settings:normal;shape-padding:0;font-variant-alternates:normal;text-indent:0;font-variant-caps:normal;image-rendering:auto;white-space:normal;text-decoration-style:solid;font-variant-ligatures:normal;isolation:auto;enable-background:accumulate;text-transform:none" d="m256 104.52c-8.045 0.00026-15.715 1.5031-22.77 4.5574l-0.002 0.002c-6.9746 2.8913-13.155 7.1409-18.3 12.617l-0.0228 0.0247-0.0145 0.0164-0.009 0.009-0.0352 0.0414c-5.0285 5.5194-8.8937 12.136-11.606 19.616l0.0889-0.2069c-0.00015 0.00031-0.0596 0.14932-0.0952 0.23999l0.004-0.0247c-0.0101 0.0256-0.0154 0.053-0.0247 0.0785-0.00099 0.003-0.005 0.0126-0.006 0.0145-0.0122 0.0392-0.014 0.0426-0.002 0.004l-0.0952 0.30618v0.002c-2.6664 7.3899-3.9678 15.436-3.9678 24.018 0 8.8568 1.3262 17.112 4.1002 24.63 2.7171 7.3642 6.5849 13.904 11.593 19.405l0.002 0.002 0.004 0.006 0.004 0.004 0.0352 0.0393 0.0247 0.0268 0.0206 0.0248c2.0779 2.2117 4.3851 4.1152 6.773 5.898-1.4877 0.46215-2.9999 0.85252-4.4436 1.4212-11.031 4.3448-20.403 10.384-27.787 18.174l-0.0186 0.0205-0.0456 0.0475-0.0559 0.0661c-7.2053 7.825-12.629 17.061-16.196 27.466l-0.0456 0.0993-0.0539 0.1779c-3.3061 10.343-4.9256 21.432-4.9256 33.165v21.984l2.9852 2.3914 0.006 0.006 0.0972 0.0765s7.8103 6.1547 21.98 11.823c14.156 5.662 35.15 11.215 62.802 11.215 27.653 0 48.645-5.5525 62.8-11.215 14.17-5.6681 21.98-11.823 21.98-11.823l0.0972-0.0765 0.006-0.006 1.1109-0.89161h1.8784v-23.483c0-11.75-1.7355-22.868-5.2546-33.224-0.003-0.0111-0.005-0.0209-0.009-0.031l-0.0475-0.13447-0.0311-0.0621c-3.3901-10.461-8.8544-19.768-16.299-27.597l-0.002-0.002c-5.4341-5.731-11.953-10.506-19.401-14.361l-1.7522-0.90817-1.4833 1.3033c-2.8957 2.547-6.0538 4.817-9.392 6.8102l-4.8615 2.9045 5.2049 2.228c8.1649 3.4942 14.681 7.9276 19.785 13.312l0.0186 0.0206c5.8084 6.1109 9.9688 13.163 12.646 21.511l0.0497 0.15101 0.0145 0.0415c2.9186 8.5549 4.4105 17.854 4.4105 28.035v13.633c-2.2208 1.5212-6.1724 3.9927-14.762 7.4288-12.405 4.9609-31.241 10.035-56.706 10.035s-44.307-5.0754-56.712-10.037c-8.5894-3.4359-12.541-5.9053-14.762-7.4267v-13.633c0-10.198 1.3993-19.523 4.1312-28.095 0.0004-0.001-0.00039-0.003 0-0.004 2.8852-8.4282 7.0998-15.56 12.743-21.693l0.006-0.006c5.5412-5.8329 12.704-10.562 21.852-14.165 8.8905-3.5018 19.74-5.3881 32.628-5.3994 0.0179-0.001 0.0811 0.004 0.11171 0.004 7.9788 0 15.583-1.4125 22.597-4.2905l0.002 0.004 0.13035-0.0497 0.17377-0.0807 0.0311-0.0165c6.9067-3.0157 12.974-7.3161 17.969-12.783 5.1613-5.503 9.1269-12.067 11.858-19.469 2.774-7.5181 4.1002-15.776 4.1002-24.632 0-8.7286-1.33-16.908-4.0899-24.401l-0.006-0.0206-0.06-0.15101-0.0434-0.0848c-2.719-7.4117-6.6317-13.974-11.752-19.436-0.004-0.004-0.006-0.0111-0.0111-0.0145l-0.0807-0.0826-0.0889-0.0786-0.004-0.004c-4.9976-5.4148-11.06-9.6286-17.959-12.487l-0.004-0.002c-6.7733-2.9302-14.125-4.3897-21.815-4.5036l-0.0678-0.0459h-0.87715zm-0.0268 16.399h0.0497c6.0374 0.002 11.357 1.0844 16.26 3.2107l0.0111 0.004 0.0311 0.0145 0.0558 0.0248 0.0456 0.0186c4.9356 2.0332 8.957 4.8476 12.412 8.639l0.004 0.004 0.0331 0.0393 0.0766 0.0766c3.5647 3.8009 6.3545 8.3952 8.4094 14.074v0.002c0.00057 0.001 0.001 0.002 0.002 0.004l0.0165 0.0475c2.019 5.4718 3.0866 11.673 3.0866 18.759 0 7.2291-1.0741 13.502-3.0866 18.956-2.0505 5.5575-4.843 10.109-8.4404 13.941l-0.0539 0.0517-0.0579 0.0682c-3.46 3.7946-7.5226 6.6874-12.481 8.8479-4.8637 1.9919-10.165 3.0264-16.146 3.0493h-0.19652c-0.0244 0-0.0511-0.00001-0.0807 0h-0.004c-6.0215-0.0111-11.35-1.0453-16.239-3.0452-4.9656-2.161-9.1278-5.0751-12.739-8.9038-3.4866-3.8364-6.2517-8.4176-8.3142-14.007-2.0124-5.454-3.0824-11.726-3.0824-18.956 0-7.0869 1.0635-13.286 3.0824-18.757l0.035-0.0889c2.0663-5.6993 4.824-10.318 8.2749-14.117 3.5958-3.8126 7.7024-6.6432 12.623-8.6742l0.0288-0.0111 0.0724-0.035 0.0475-0.0206 0.0228-0.0111 0.004-0.002c4.8953-2.1211 10.208-3.2006 16.237-3.2045zm21.928 99.94 0.27307 0.65785-0.28135-0.65371zm-21.982 4.2574c0.0729 0.16476 0.81912 1.8453 0.81922 1.8453 0.00009-0.00004-0.26288 0.0971-0.26273 0.0971 0.00058-0.00017-0.30278 0.0642-0.35788 0.0703-0.21596 0.0239-0.18516 0.0129-0.19861 0.0124z"/>
 </g>
</svg>
