<?xml version="1.0" encoding="UTF-8" standalone="no"?>
<!-- Created with Inkscape (http://www.inkscape.org/) -->
<svg id="svg3336" xmlns:rdf="http://www.w3.org/1999/02/22-rdf-syntax-ns#" style="enable-background:new" xmlns="http://www.w3.org/2000/svg" height="512" viewBox="0 0 512 512" width="512" version="1.1" xmlns:cc="http://creativecommons.org/ns#" xmlns:xlink="http://www.w3.org/1999/xlink" xmlns:dc="http://purl.org/dc/elements/1.1/">
 <defs id="defs3338">
  <linearGradient id="linearGradient4279" y2="2.6515" gradientUnits="userSpaceOnUse" x2="384.1" gradientTransform="matrix(1 0 0 -1 0 494)" y1="480" x1="384.1">
   <stop id="stop4275-0" style="stop-color:#f9af18" offset="0"/>
   <stop id="stop4277-4" style="stop-color:#fecf3b" offset="1"/>
  </linearGradient>
  <linearGradient id="linearGradient4274" y2="496" gradientUnits="userSpaceOnUse" x2="319.95" y1="16" x1="319.95">
   <stop id="stop4212" style="stop-opacity:0" offset="0"/>
   <stop id="stop4214" offset=".50477"/>
   <stop id="stop4216" style="stop-opacity:0" offset="1"/>
  </linearGradient>
  <filter id="filter4276" style="color-interpolation-filters:sRGB" height="1.1472" width="1.2761" y="-.073580" x="-.13807">
   <feGaussianBlur id="feGaussianBlur4278" stdDeviation="14.716"/>
  </filter>
  <filter id="filter4286" style="color-interpolation-filters:sRGB" height="1.0184" width="1.0345" y="-.0091975" x="-.017259">
   <feGaussianBlur id="feGaussianBlur4288" stdDeviation="1.8395"/>
  </filter>
  <clipPath id="clipPath4236" clipPathUnits="userSpaceOnUse">
   <path id="path4238" style="color:#000000;enable-background:accumulate;fill:#5a7072" d="m0 0v183.9 144.2 183.9h512v-183.9-144.2-183.9h-512z"/>
  </clipPath>
 </defs>
 <metadata id="metadata3341">
  <rdf:RDF>
   <cc:Work rdf:about="">
    <dc:format>image/svg+xml</dc:format>
    <dc:type rdf:resource="http://purl.org/dc/dcmitype/StillImage"/>
    <dc:title/>
   </cc:Work>
  </rdf:RDF>
 </metadata>
 <g id="layer3">
  <path id="rect4158" style="color:#000000;enable-background:accumulate;fill:#4d4d4d" d="m0 0v183.9 144.2 183.9h512v-183.9-144.2-183.9h-512z"/>
  <path id="path4269" style="opacity:.07;color:#000000;enable-background:accumulate;fill:#fff" d="m0 256v72.1 183.9h512v-183.9-72.1h-512z"/>
  <g id="g4230" clip-path="url(#clipPath4236)">
   <g id="g4290" style="stroke-width:.94512;enable-background:new" transform="matrix(1 0 0 1.1195 0 -30.594)">
    <path id="path4266" style="opacity:.4;color:#000000;filter:url(#filter4276);enable-background:accumulate;fill:url(#linearGradient4274)" d="m256.2 496v-480h255.8v480h-255.8z"/>
    <path id="path4280" style="opacity:.1;color:#000000;filter:url(#filter4286);enable-background:accumulate" d="m256.2 496v-480h255.8v480h-255.8z"/>
    <path id="path4231" d="m256.2 496v-480h255.8v480h-255.8z" style="color:#000000;enable-background:accumulate;fill:url(#linearGradient4279)"/>
   </g>
  </g>
 </g>
 <g id="layer4">
  <path id="path4505-6" d="m219.31 124-35.188 71.656v59.25c-4.9399 5.788-10.339 11.62-15.969 17.25-18.503 18.503-39.248 34.687-53.125 39.312l-23.374-23.35-71.656 35.19v170.69h256v-317.56c-15.42-33.45-32.37-45.92-56.69-52.44zm-97.56 229c0.007-0.005 0.0239 0.005 0.0312 0-2.6107 1.6304-5.251 3.2267-7.9062 4.8125 2.6559-1.5856 5.2637-3.1824 7.875-4.8125zm-24.094 14.062c0.008-0.004 0.0234 0.004 0.0312 0-2.7418 1.4991-5.5286 2.9806-8.3125 4.4375 2.7843-1.4568 5.5391-2.9386 8.2813-4.4375z" style="opacity:.05;fill-opacity:0;color:#000000;enable-background:accumulate"/>
  <path id="rect4125" style="color:#000000;enable-background:accumulate;fill:#f2f2f2" d="m148 120v44h-44v16h44v44h16v-44h44v-16h-44v-44z"/>
  <rect id="rect4129" style="color:#000000;enable-background:accumulate;fill:#f2f2f2" transform="matrix(0,-1,-1,0,0,0)" height="104" width="16" y="-208" x="-348"/>
  <path id="path4242" style="color:#000000;enable-background:accumulate;fill:#f2f2f2" d="m304 224v16h104v-16h-104z"/>
  <path id="rect4131" style="color:#000000;enable-background:accumulate;fill:#f2f2f2" d="m304 272v16h104v-16h-104z"/>
 </g>
</svg>
