<?xml version="1.0" encoding="UTF-8" standalone="no"?>
<!-- Created with Inkscape (http://www.inkscape.org/) -->
<svg id="svg3336" xmlns:rdf="http://www.w3.org/1999/02/22-rdf-syntax-ns#" style="enable-background:new" xmlns="http://www.w3.org/2000/svg" height="512" viewBox="0 0 512 512" width="512" version="1.1" xmlns:cc="http://creativecommons.org/ns#" xmlns:xlink="http://www.w3.org/1999/xlink" xmlns:dc="http://purl.org/dc/elements/1.1/">
 <defs id="defs3338">
  <linearGradient id="linearGradient4245" y2="494" gradientUnits="userSpaceOnUse" y1="18" x2="512">
   <stop id="stop4241" style="stop-color:#393939" offset="0"/>
   <stop id="stop4243" style="stop-color:#545454" offset="1"/>
  </linearGradient>
  <filter id="filter4278" style="color-interpolation-filters:sRGB" height="1.0245" width="1.0235" y="-.012249" x="-.011761">
   <feGaussianBlur id="feGaussianBlur4280" stdDeviation="1.3835888"/>
  </filter>
  <linearGradient id="linearGradient4290" y2="146.7" gradientUnits="userSpaceOnUse" x2="406.45" y1="429.52" x1="226.84">
   <stop id="stop4294" style="stop-opacity:0" offset="0"/>
   <stop id="stop4296" offset=".49580"/>
   <stop id="stop4298" style="stop-opacity:0" offset="1"/>
  </linearGradient>
  <filter id="filter4300" style="color-interpolation-filters:sRGB" height="1.196" width="1.1882" y="-.097992" x="-.094088">
   <feGaussianBlur id="feGaussianBlur4302" stdDeviation="11.068711"/>
  </filter>
 </defs>
 <metadata id="metadata3341">
  <rdf:RDF>
   <cc:Work rdf:about="">
    <dc:format>image/svg+xml</dc:format>
    <dc:type rdf:resource="http://purl.org/dc/dcmitype/StillImage"/>
    <dc:title/>
   </cc:Work>
  </rdf:RDF>
 </metadata>
 <g id="layer3">
  <path id="rect4158" style="color:#000000;enable-background:accumulate;fill:url(#linearGradient4245)" d="m0 0v183.9 144.2 183.9h512v-183.9-144.2-183.9h-512z"/>
  <path id="path4219-8" style="opacity:.05;color:#000000;enable-background:accumulate;fill:#fff" d="m0 103.52v80.38 144.2 183.9h512v-99.38l-512-309.1z"/>
 </g>
 <g id="layer4">
  <path id="circle4261" style="opacity:.1;color:#000000;filter:url(#filter4278);enable-background:accumulate" d="m418.56 154.91-150.71 87.01a20 20 0 0 0 -5.85 -2.99v-20.93h-12v20.945a20 20 0 0 0 -5.8535 2.9746l-91.924-53.074-8 13.857 91.912 53.066a20 20 0 0 0 -0.14 2.24 20 20 0 0 0 14 19.07v148.93h12v-148.95a20 20 0 0 0 14 -19.05 20 20 0 0 0 -0.14844 -2.2227l150.71-87.016-8-13.855z"/>
  <path id="path4282" d="m418.56 154.91-150.71 87.01a20 20 0 0 0 -5.85 -2.99v-20.93h-12v20.945a20 20 0 0 0 -5.8535 2.9746l-91.924-53.074-8 13.857 91.912 53.066a20 20 0 0 0 -0.14 2.24 20 20 0 0 0 14 19.07v148.93h12v-148.95a20 20 0 0 0 14 -19.05 20 20 0 0 0 -0.14844 -2.2227l150.71-87.016-8-13.855z" style="opacity:.4;color:#000000;filter:url(#filter4300);enable-background:accumulate;fill:url(#linearGradient4290)"/>
  <circle id="circle4527" cx="256" cy="256.64" r="6.2922" style="color:#000000;enable-background:accumulate;fill:#ccc"/>
  <path id="path4219" style="stroke-width:16;color:#000000;stroke:#f2f2f2;enable-background:accumulate;fill:none" d="m148.22 193.77 107.78 62.23"/>
  <path id="path4231" style="stroke-width:16;color:#000000;stroke:#f2f2f2;enable-background:accumulate;fill:none" d="m256 256 166.57-96.17"/>
  <circle id="path4221" r="20" style="color:#000000;enable-background:accumulate;fill:#df382c" cx="256" cy="256"/>
  <path id="path4223" style="stroke-width:12;color:#000000;stroke:#df382c;enable-background:accumulate;fill:none" d="m256 216v208"/>
 </g>
</svg>
