<?xml version="1.0" encoding="UTF-8" standalone="no"?>
<!-- Created with Inkscape (http://www.inkscape.org/) -->
<svg id="svg3336" xmlns:rdf="http://www.w3.org/1999/02/22-rdf-syntax-ns#" style="enable-background:new" xmlns="http://www.w3.org/2000/svg" height="512" viewBox="0 0 512 512" width="512" version="1.1" xmlns:cc="http://creativecommons.org/ns#" xmlns:xlink="http://www.w3.org/1999/xlink" xmlns:dc="http://purl.org/dc/elements/1.1/">
 <defs id="defs3338">
  <linearGradient id="linearGradient4226" y2="494" gradientUnits="userSpaceOnUse" y1="18" x2="512">
   <stop id="stop4222" style="stop-color:#4d9a35" offset="0"/>
   <stop id="stop4224" style="stop-color:#88b637" offset="1"/>
  </linearGradient>
  <linearGradient id="linearGradient4432" y2="255.67" gradientUnits="userSpaceOnUse" y1="236.42" x2="344.65" x1="364.35">
   <stop id="stop4144" style="stop-color:#88b637" offset="0"/>
   <stop id="stop4146" style="stop-color:#88b637;stop-opacity:0" offset="1"/>
  </linearGradient>
  <linearGradient id="linearGradient4257" y2="154.86" gradientUnits="userSpaceOnUse" y1="460.98" x2="464" x1="126.19">
   <stop id="stop4273" style="stop-color:#d9eabb" offset="0"/>
   <stop id="stop4271" style="stop-color:#f0f7e5" offset="1"/>
  </linearGradient>
  <linearGradient id="linearGradient4284" y2="48.21" gradientUnits="userSpaceOnUse" y1="463.79" gradientTransform="translate(-.0000016559 2.886)" x2="309.45" x1="309.45">
   <stop id="stop4349" style="stop-opacity:0" offset="0"/>
   <stop id="stop4355" offset=".49620"/>
   <stop id="stop4351" style="stop-opacity:0" offset="1"/>
  </linearGradient>
  <filter id="filter4300" style="color-interpolation-filters:sRGB" height="1.192" width="1.192" y="-.096002" x="-.095998">
   <feGaussianBlur id="feGaussianBlur4302" stdDeviation="16.623603"/>
  </filter>
  <filter id="filter4315" style="color-interpolation-filters:sRGB" height="1.024" width="1.024" y="-0.012" x="-0.012">
   <feGaussianBlur id="feGaussianBlur4317" stdDeviation="2.0779504"/>
  </filter>
 </defs>
 <metadata id="metadata3341">
  <rdf:RDF>
   <cc:Work rdf:about="">
    <dc:format>image/svg+xml</dc:format>
    <dc:type rdf:resource="http://purl.org/dc/dcmitype/StillImage"/>
    <dc:title/>
   </cc:Work>
  </rdf:RDF>
 </metadata>
 <g id="layer3">
  <path id="rect4158" style="color:#000000;enable-background:accumulate;fill:url(#linearGradient4226)" d="m0 0v183.9 144.2 183.9h512v-183.9-144.2-183.9h-512z"/>
  <path id="path4269" style="opacity:.1;color:#000000;enable-background:accumulate;fill:#fff" d="m0 256v72.1 183.9h512v-183.9-72.1h-512z"/>
  <path id="path4245" d="m163.31 144c-12.87 0-19.31 0-19.31 15v18.008c0 14.99 6.44 14.99 19.31 14.99h9.375c12.88 0 19.32 0 19.32-15v-18.008c0-14.45-6.44-14.99-19.31-14.99h-9.375zm60 0c-12.87 0-19.31 0-19.31 15v18.008c0 14.99 6.44 14.99 19.31 14.99h9.375c12.88 0 19.32 0 19.32-15v-18.008c0-14.45-6.44-14.99-19.31-14.99h-9.375zm60 0c-12.87 0-19.31 0-19.31 15v18.008c0 14.99 6.44 14.99 19.31 14.99h9.375c12.88 0 19.32 0 19.32-15v-18.008c0-14.45-6.44-14.99-19.31-14.99h-9.375zm-120 60c-12.87 0-19.31 0-19.31 15v18.008c0 14.99 6.44 14.99 19.31 14.99h9.375c12.88 0 19.32 0 19.32-15v-18.008c0-14.45-6.44-14.99-19.31-14.99h-9.375zm60 0c-12.87 0-19.31 0-19.31 15v18.008c0 14.99 6.44 14.99 19.31 14.99h9.375c12.88 0 19.32 0 19.32-15v-18.008c0-14.45-6.44-14.99-19.31-14.99h-9.375zm-60 60c-12.87 0-19.31 0-19.31 15v18.008c0 14.99 6.44 14.99 19.31 14.99h9.375c12.88 0 19.32 0 19.32-15v-18.008c0-14.45-6.44-14.99-19.31-14.99h-9.375z" style="opacity:.2;color:#000000;enable-background:accumulate;fill:#e5ff80" transform="translate(-32,-32)"/>
 </g>
 <g id="layer4">
  <path id="path4505-6" style="opacity:.05;fill-opacity:0;color:#000000;enable-background:accumulate" d="m219.31 124-35.188 71.656v59.25c-4.9399 5.788-10.339 11.62-15.969 17.25-18.503 18.503-39.248 34.687-53.125 39.312l-23.374-23.35-71.656 35.19v170.69h256v-317.56c-15.42-33.45-32.37-45.92-56.69-52.44zm-97.56 229c0.007-0.005 0.0239 0.005 0.0312 0-2.6107 1.6304-5.251 3.2267-7.9062 4.8125 2.6559-1.5856 5.2637-3.1824 7.875-4.8125zm-24.094 14.062c0.008-0.004 0.0234 0.004 0.0312 0-2.7418 1.4991-5.5286 2.9806-8.3125 4.4375 2.7843-1.4568 5.5391-2.9386 8.2813-4.4375z"/>
  <g id="g4342" style="stroke-width:1.443;enable-background:new" transform="matrix(.69301 0 0 .69301 78.652 78.59)">
   <path id="path4277" d="m377.06 51.096-52.99 120.5 25.464 42.436c-0.0369 0.0579-0.0783 0.11964-0.11555 0.17756l4.4192 7.4291c-19.138 25.886-40.56 49.801-62.604 71.854l0.003 0.003c-0.0523 0.0521-0.10561 0.10277-0.15783 0.15501l-0.15782 0.15782c-22.09 22.081-46.049 43.534-71.986 62.697l-7.4207-4.4135c-0.0579 0.0372-0.11684 0.0787-0.17473 0.11556l-42.43-25.48-120.5 52.99c8.4466 37.308 21.008 101.08 77.786 84.133 52.315-15.616 96.191-46.806 135.52-81.921l-0.008-0.006c21.415-17.96 41.501-37.337 60.763-56.592l0.003 0.003 0.15784-0.15784c0.0517-0.0517 0.10326-0.10617 0.155-0.15782 19.219-19.226 38.559-39.275 56.491-60.645l0.006 0.008c35.11-39.34 66.29-83.21 81.91-135.53 16.95-56.776-46.82-69.338-84.13-77.784z" style="opacity:.2;color:#000000;filter:url(#filter4300);enable-background:accumulate;fill:url(#linearGradient4284)"/>
   <path id="path4277-6" style="opacity:.1;color:#000000;filter:url(#filter4315);enable-background:accumulate" d="m377.06 51.096-52.99 120.5 25.464 42.436c-0.0369 0.0579-0.0784 0.11962-0.11558 0.17756l4.4192 7.4291c-19.138 25.886-40.56 49.801-62.604 71.854l0.003 0.003c-0.0524 0.0521-0.10562 0.10274-0.15783 0.15501l-0.15782 0.15782c-22.09 22.081-46.049 43.534-71.986 62.697l-7.4207-4.4135c-0.0579 0.0372-0.11688 0.0786-0.17473 0.11558l-42.43-25.48-120.5 52.99c8.4466 37.308 21.008 101.08 77.786 84.133 52.315-15.616 96.191-46.806 135.52-81.921l-0.009-0.006c21.415-17.96 41.501-37.337 60.763-56.592l0.003 0.003 0.15784-0.15783c0.0516-0.0518 0.10331-0.10621 0.155-0.15782 19.219-19.226 38.559-39.275 56.491-60.645l0.006 0.009c35.11-39.34 66.29-83.21 81.91-135.53 16.95-56.776-46.82-69.337-84.13-77.784z"/>
   <path id="path4341" style="color:#000000;enable-background:accumulate;fill:url(#linearGradient4257)" d="m417.65 68.222c2.164 8.4396 1.9363 18.336-1.5507 30.017-22.67 75.931-72 139.48-124.87 192.37l0.002 0.002c-0.0523 0.0521-0.10444 0.10444-0.15665 0.15667l-0.15841 0.15839-0.002-0.002c-52.885 52.864-116.43 102.19-192.37 124.86-11.681 3.487-21.576 3.7147-30.016 1.5507 11.5 25.71 30.571 45.091 66.063 34.497 75.934-22.667 134.98-76.502 187.86-129.37l0.002 0.002 0.15843-0.15843c0.0522-0.0522 0.10443-0.10454 0.15664-0.15665l-0.002-0.002c52.864-52.885 106.7-111.93 129.37-187.86 10.595-35.493-8.7858-54.565-34.497-66.065z"/>
   <path id="path4421" d="m378.78 181.51c-12.587 20.968-26.921 40.774-42.289 59.469l23.566 42.426c19.41-21.248 37.87-43.732 53.678-68.023l-34.955-33.871z" style="opacity:.1;color:#000000;enable-background:accumulate;fill:url(#linearGradient4432)"/>
   <path id="path4325" d="m377.06 48.21-52.99 120.5 25.46 42.44c-0.0369 0.0579-0.0787 0.11725-0.11594 0.17517l29.856 50.189c35.114-39.328 66.302-83.203 81.918-135.52 16.948-56.778-46.824-69.34-84.131-77.786z" style="color:#000000;enable-background:accumulate;fill:#f1f8e7"/>
   <path id="path4327" style="color:#000000;enable-background:accumulate;fill:url(#linearGradient4257)" d="m48.4 376.85 120.5-52.989 42.438 25.462c0.0579-0.0369 0.11725-0.0787 0.17518-0.11593l50.189 29.856c-39.328 35.114-83.203 66.302-135.52 81.918-56.778 16.948-69.34-46.824-77.786-84.131z"/>
   <path id="path4349" d="m339.96 112-36.723 83.51 0.50781 0.8457l36.21-82.36c22.62 5.1213 59.278 12.426 60.23 40.523 0.75-29.75-37.09-37.28-60.23-42.52zm-16.76 119.07c-13.095 17.599-27.695 33.884-42.719 48.914l0.002 0.002c-0.0363 0.0361-0.0732 0.0712-0.10938 0.10742l-0.10937 0.10937c-15.308 15.302-31.913 30.17-49.887 43.449l-5.1426-3.0586c-0.0401 0.0258-0.081 0.0545-0.12109 0.0801l-29.41-17.64-83.51 36.72c0.13199 0.583 0.27494 1.2195 0.41016 1.8203l83.1-36.541 29.408 17.645c0.0401-0.0255 0.081-0.0543 0.12109-0.0801l5.1426 3.0586c17.974-13.28 34.578-28.147 49.887-43.449l0.10937-0.10937c0.0362-0.0362 0.0731-0.0713 0.10938-0.10742l-0.002-0.002c15.277-15.282 30.122-31.856 43.385-49.795l-0.66601-1.1191z" style="color:#000000;enable-background:accumulate;fill:#fff" transform="matrix(1.443 0 0 1.443 -113.49 -113.4)"/>
  </g>
 </g>
</svg>
