<?xml version="1.0" encoding="UTF-8" standalone="no"?>
<!-- Created with Inkscape (http://www.inkscape.org/) -->
<svg id="svg3336" xmlns:rdf="http://www.w3.org/1999/02/22-rdf-syntax-ns#" style="enable-background:new" xmlns="http://www.w3.org/2000/svg" height="512" viewBox="0 0 512 512" width="512" version="1.1" xmlns:cc="http://creativecommons.org/ns#" xmlns:xlink="http://www.w3.org/1999/xlink" xmlns:dc="http://purl.org/dc/elements/1.1/">
 <defs id="defs3338">
  <clipPath id="clipPath4295" clipPathUnits="userSpaceOnUse">
   <path id="path4297" d="m166.05 18c-145.29 0-166.05 20.737-166.05 165.9v144.2c0 145.16 20.757 165.9 166.05 165.9h179.9c145.29 0 166.05-20.74 166.05-165.9v-144.2c0-145.16-20.76-165.9-166.05-165.9z" style="color:#000000;enable-background:accumulate;fill:#fed965"/>
  </clipPath>
  <linearGradient id="linearGradient4227" y2="487.12" gradientUnits="userSpaceOnUse" x2="416" y1="16" x1="144">
   <stop id="stop4223" style="stop-color:#ebebeb" offset="0"/>
   <stop id="stop4225" style="stop-color:#f7f7f7" offset="1"/>
  </linearGradient>
  <radialGradient id="radialGradient4422" gradientUnits="userSpaceOnUse" cy="268" cx="268" gradientTransform="matrix(-.98031 0 0 .98031 547.04 -26.722)" r="104">
   <stop id="stop4418" style="stop-opacity:0" offset="0"/>
   <stop id="stop4424" style="stop-color:#6fc5ef;stop-opacity:0" offset=".87711"/>
   <stop id="stop4420" offset="1"/>
  </radialGradient>
  <filter id="filter4378" style="color-interpolation-filters:sRGB" height="1.024" width="1.024" y="-.012" x="-.012">
   <feGaussianBlur id="feGaussianBlur4380" stdDeviation="1.4215723"/>
  </filter>
  <filter id="filter4384" style="color-interpolation-filters:sRGB" height="1.192" width="1.192" y="-0.096" x="-0.096">
   <feGaussianBlur id="feGaussianBlur4386" stdDeviation="11.372578"/>
  </filter>
  <radialGradient id="radialGradient4394" gradientUnits="userSpaceOnUse" cy="262.16" cx="260.16" r="169.45">
   <stop id="stop4388" offset="0"/>
   <stop id="stop4390" style="stop-opacity:0" offset="1"/>
  </radialGradient>
  <clipPath id="clipPath4333-4" clipPathUnits="userSpaceOnUse">
   <circle id="circle4335-4" style="color:#000000;enable-background:accumulate;fill:#ed3146" cx="-284.31" transform="scale(-1)" cy="-236" r="110"/>
  </clipPath>
  <linearGradient id="linearGradient4291" y2="456.68" gradientUnits="userSpaceOnUse" x2="330.59" y1="43.707" x1="167.38">
   <stop id="stop4241" style="stop-color:#e8e8e8" offset="0"/>
   <stop id="stop4243" style="stop-color:#f5f5f5" offset="1"/>
  </linearGradient>
 </defs>
 <metadata id="metadata3341">
  <rdf:RDF>
   <cc:Work rdf:about="">
    <dc:format>image/svg+xml</dc:format>
    <dc:type rdf:resource="http://purl.org/dc/dcmitype/StillImage"/>
    <dc:title/>
   </cc:Work>
  </rdf:RDF>
 </metadata>
 <g id="layer3">
  <path id="rect4158" style="color:#000000;enable-background:accumulate;fill:url(#linearGradient4227)" d="m0 0v183.9 144.2 183.9h512v-183.9-144.2-183.9h-512z"/>
  <path id="path4271" style="opacity:.5;color:#000000;enable-background:accumulate;fill:#6b8fea" d="m88 104v16h336v-16zm0 48v16h336v-16zm0 48v16h336v-16zm0 48v16h336v-16zm0 48v16h336v-16zm0 48v16h336v-16zm0 48v16h168.22v-16z"/>
  <path id="rect4250" style="opacity:.25;color:#000000;enable-background:accumulate;fill:#fff" d="m256 0v512h256v-183.9-144.2-183.9h-256z"/>
  <path id="rect4252" style="opacity:.25;color:#000000;enable-background:accumulate;fill:#fff" d="m0 256v72.1 183.9h512v-183.9-72.1h-512z"/>
  <path id="path4299" style="opacity:.75;color:#000000;enable-background:accumulate;fill:#fff" d="m512 315-199.82 197h17.067 182.75l0.00002-182.58z"/>
  <g id="g4331" style="enable-background:new" clip-path="url(#clipPath4333-4)">
   <g id="g4285" style="stroke-width:.82927" transform="matrix(1.2059 0 0 1.2059 -52.706 -52.706)">
    <path id="path4278" d="m166.05 18c152.55 0-166.05 20.737-166.05 165.9v144.2c0 145.16 20.757 165.9 166.05 165.9h179.9c145.29 0 166.05-20.74 166.05-165.9v-144.2c0-145.16-20.76-165.9-166.05-165.9z" style="color:#000000;enable-background:accumulate;fill:url(#linearGradient4291)"/>
    <path id="path4280" d="m88 104v16h336v-16zm0 48v16h336v-16zm0 48v16h336v-16zm0 48v16h336v-16zm0 48v16h336v-16zm0 48v16h336v-16zm0 48v16h168.22v-16z" style="opacity:.5;color:#000000;enable-background:accumulate;fill:#6b8fea"/>
   </g>
  </g>
 </g>
 <g id="layer4">
  <path id="path4382" d="m284.31 120c-62.374 0-113.45 48.659-117.6 110h-0.4043v8c0 28.224 9.962 54.158 26.547 74.484l-9.0312 9.0312-2.8301-2.8301-63 63 22.629 22.629 63-63-2.8301-2.8301 9.0312-9.0313c20.33 16.59 46.26 26.55 74.48 26.55 65.075 0 118-52.925 118-118s-52.925-118-118-118zm0 16c56.428 0 102 45.572 102 102s-45.572 102-102 102-102-45.572-102-102 45.572-102 102-102z" style="color-rendering:auto;text-decoration-color:#000000;color:#000000;font-variant-numeric:normal;shape-rendering:auto;solid-color:#000000;text-decoration-line:none;fill:url(#radialGradient4394);font-variant-position:normal;mix-blend-mode:normal;block-progression:tb;font-feature-settings:normal;opacity:.4;shape-padding:0;font-variant-alternates:normal;text-indent:0;font-variant-caps:normal;image-rendering:auto;white-space:normal;text-decoration-style:solid;font-variant-ligatures:normal;isolation:auto;filter:url(#filter4384);enable-background:accumulate;text-transform:none"/>
  <path id="path4365" style="color-rendering:auto;text-decoration-color:#000000;color:#000000;font-variant-numeric:normal;shape-rendering:auto;solid-color:#000000;text-decoration-line:none;font-variant-position:normal;mix-blend-mode:normal;block-progression:tb;font-feature-settings:normal;opacity:.1;shape-padding:0;font-variant-alternates:normal;text-indent:0;font-variant-caps:normal;image-rendering:auto;white-space:normal;text-decoration-style:solid;font-variant-ligatures:normal;isolation:auto;filter:url(#filter4378);enable-background:accumulate;text-transform:none" d="m284.31 120c-62.374 0-113.45 48.659-117.6 110h-0.4043v8c0 28.224 9.962 54.158 26.547 74.484l-9.0312 9.0312-2.8301-2.8301-63 63 22.629 22.629 63-63-2.8301-2.8301 9.0312-9.0313c20.33 16.59 46.26 26.55 74.48 26.55 65.075 0 118-52.925 118-118s-52.925-118-118-118zm0 16c56.428 0 102 45.572 102 102s-45.572 102-102 102-102-45.572-102-102 45.572-102 102-102z"/>
  <path id="path4505-6" d="m219.31 124-35.188 71.656v59.25c-4.9399 5.788-10.339 11.62-15.969 17.25-18.503 18.503-39.248 34.687-53.125 39.312l-23.374-23.35-71.656 35.19v170.69h256v-317.56c-15.42-33.45-32.37-45.92-56.69-52.44zm-97.56 229c0.007-0.005 0.0239 0.005 0.0312 0-2.6107 1.6304-5.251 3.2267-7.9062 4.8125 2.6559-1.5856 5.2637-3.1824 7.875-4.8125zm-24.094 14.062c0.008-0.004 0.0234 0.004 0.0312 0-2.7418 1.4991-5.5286 2.9806-8.3125 4.4375 2.7843-1.4568 5.5391-2.9386 8.2813-4.4375z" style="opacity:.05;fill-opacity:0;color:#000000;enable-background:accumulate"/>
  <path id="path4480" d="m184.31 336 24-24" style="stroke-width:24;color:#000000;stroke:#3b63c8;enable-background:accumulate;fill:none"/>
  <circle id="path4260" style="stroke-width:16;fill-opacity:.54292;color:#000000;stroke:#6b8fea;enable-background:accumulate;fill:#daf0f9" cx="-284.31" transform="scale(-1,1)" cy="236" r="110"/>
  <path id="circle4407" style="opacity:.05;color:#000000;enable-background:accumulate;fill:url(#radialGradient4422)" d="m284.31 134.05a101.95 101.95 0 0 1 101.96 101.95 101.95 101.95 0 0 1 -101.96 101.95 101.95 101.95 0 0 1 -101.95 -101.95 101.95 101.95 0 0 1 101.95 -101.95zm0 19.606a82.346 82.346 0 0 0 -82.34 82.34 82.346 82.346 0 0 0 82.34 82.35 82.346 82.346 0 0 0 82.35 -82.35 82.346 82.346 0 0 0 -82.35 -82.35z"/>
  <path id="path4478" style="stroke-width:32;color:#000000;stroke:#3957a2;enable-background:accumulate;fill:none" d="m129.31 391 63-63"/>
  <path id="circle4358" style="color-rendering:auto;text-decoration-color:#000000;color:#000000;font-variant-numeric:normal;shape-rendering:auto;solid-color:#000000;text-decoration-line:none;fill:#fff;font-variant-position:normal;mix-blend-mode:normal;block-progression:tb;font-feature-settings:normal;opacity:.3;shape-padding:0;font-variant-alternates:normal;text-indent:0;font-variant-caps:normal;image-rendering:auto;white-space:normal;text-decoration-style:solid;font-variant-ligatures:normal;isolation:auto;enable-background:accumulate;text-transform:none" d="m316.31 150c-62.374 0-113.45 48.659-117.6 110h-0.4043v2h0.4043c4.143-61.341 55.221-110 117.6-110 64.74 0 117.45 52.385 117.99 117 0.003-0.33372 0.0137-0.66564 0.0137-1 0-65.075-52.925-118-118-118zm-101.98 119c-0.003 0.33361-0.0117 0.66562-0.0117 1 0 56.428 45.572 102 102 102s102-45.572 102-102c0-0.33438-0.009-0.66639-0.0117-1-0.53569 55.964-45.895 101-101.99 101-56.093 0-101.45-45.036-101.99-101z" transform="translate(-32,-32)"/>
  <circle id="circle4415" style="color:#000000;fill-opacity:.54292;enable-background:accumulate;fill:#fff" transform="scale(-1,1)" cy="205" cx="-315.31" r="41.2"/>
 </g>
</svg>
