<?xml version="1.0" encoding="UTF-8" standalone="no"?>
<!-- Created with Inkscape (http://www.inkscape.org/) -->
<svg id="svg3336" xmlns:rdf="http://www.w3.org/1999/02/22-rdf-syntax-ns#" style="enable-background:new" xmlns="http://www.w3.org/2000/svg" height="512" viewBox="0 0 512 512" width="512" version="1.1" xmlns:cc="http://creativecommons.org/ns#" xmlns:xlink="http://www.w3.org/1999/xlink" xmlns:dc="http://purl.org/dc/elements/1.1/">
 <defs id="defs3338">
  <linearGradient id="linearGradient4319">
   <stop id="stop4322" style="stop-color:#fed965" offset="0"/>
   <stop id="stop4324" style="stop-color:#fed965;stop-opacity:0" offset="1"/>
  </linearGradient>
  <linearGradient id="linearGradient4287">
   <stop id="stop4424" style="stop-color:#ff9169" offset="0"/>
   <stop id="stop4426" style="stop-color:#f09778;stop-opacity:0" offset="1"/>
  </linearGradient>
  <linearGradient id="linearGradient4296" y2="478.31" gradientUnits="userSpaceOnUse" x2="475.4" y1="41.65" x1="34">
   <stop id="stop4292" style="stop-color:#e72662" offset="0"/>
   <stop id="stop4272" style="stop-color:#ec3c50" offset=".48272"/>
   <stop id="stop4294" style="stop-color:#ff7b66" offset="1"/>
  </linearGradient>
  <linearGradient id="linearGradient4331" y2="108" gradientUnits="userSpaceOnUse" x2="240.2" y1="404.85" x1="240.2">
   <stop id="stop4366" style="stop-opacity:0" offset="0"/>
   <stop id="stop4368" offset=".50477"/>
   <stop id="stop4370" style="stop-opacity:0" offset="1"/>
  </linearGradient>
  <filter id="filter4333" style="color-interpolation-filters:sRGB" height="1.1743" width="1.2137" y="-.087158" x="-.10684">
   <feGaussianBlur id="feGaussianBlur4335" stdDeviation="10.666022"/>
  </filter>
  <filter id="filter4360" style="color-interpolation-filters:sRGB" height="1.0218" width="1.0267" y="-.010895" x="-.013355">
   <feGaussianBlur id="feGaussianBlur4362" stdDeviation="1.3332528"/>
  </filter>
  <linearGradient id="linearGradient4370" y2="112" gradientUnits="userSpaceOnUse" x2="272" y1="400" x1="272">
   <stop id="stop4319" style="stop-color:#fdedec" offset="0"/>
   <stop id="stop4321" style="stop-color:#fff" offset="1"/>
  </linearGradient>
  <linearGradient id="linearGradient4384" y2="172" gradientUnits="userSpaceOnUse" x2="162" y1="300" x1="318">
   <stop id="stop4340" style="stop-color:#ef5145;stop-opacity:0" offset="0"/>
   <stop id="stop4346" style="stop-color:#ef5145" offset="1"/>
  </linearGradient>
  <linearGradient id="linearGradient4348" y2="192" xlink:href="#linearGradient4287" gradientUnits="userSpaceOnUse" x2="456" y1="368" x1="456"/>
  <linearGradient id="linearGradient4350" y2="128" xlink:href="#linearGradient4287" gradientUnits="userSpaceOnUse" x2="416" y1="336" x1="416"/>
  <linearGradient id="linearGradient4352" y2="96" xlink:href="#linearGradient4287" gradientUnits="userSpaceOnUse" x2="376" y1="304" x1="376"/>
  <linearGradient id="linearGradient4354" y2="152" xlink:href="#linearGradient4287" gradientUnits="userSpaceOnUse" x2="336" y1="288" x1="336"/>
  <linearGradient id="linearGradient4356" y2="72" xlink:href="#linearGradient4287" gradientUnits="userSpaceOnUse" x2="296" y1="280" x1="296"/>
  <linearGradient id="linearGradient4358" y2="184" xlink:href="#linearGradient4287" gradientUnits="userSpaceOnUse" x2="56" y1="360" x1="56"/>
  <linearGradient id="linearGradient4360" y2="162.4" xlink:href="#linearGradient4287" gradientUnits="userSpaceOnUse" x2="96.8" y1="352" x1="96.8"/>
  <linearGradient id="linearGradient4362" y2="80" xlink:href="#linearGradient4287" gradientUnits="userSpaceOnUse" x2="136" y1="312" x1="136"/>
  <linearGradient id="linearGradient4364" y2="136" xlink:href="#linearGradient4287" gradientUnits="userSpaceOnUse" x2="176" y1="264" x1="177.6"/>
  <linearGradient id="linearGradient4366" y2="-32" xlink:href="#linearGradient4287" gradientUnits="userSpaceOnUse" x2="218" y1="326.1" x1="216"/>
  <linearGradient id="linearGradient4368" y2="72" xlink:href="#linearGradient4287" gradientUnits="userSpaceOnUse" x2="288" y1="296" x1="288"/>
  <linearGradient id="linearGradient4390" y2="400" xlink:href="#linearGradient4319" gradientUnits="userSpaceOnUse" x2="256" y1="232" x1="256"/>
  <linearGradient id="linearGradient4394" y2="472" xlink:href="#linearGradient4319" gradientUnits="userSpaceOnUse" x2="256" gradientTransform="translate(-40)" y1="232" x1="256"/>
  <linearGradient id="linearGradient4398" y2="400" xlink:href="#linearGradient4319" gradientUnits="userSpaceOnUse" x2="256" gradientTransform="translate(-80)" y1="200" x1="256"/>
  <linearGradient id="linearGradient4402" y2="368" xlink:href="#linearGradient4319" gradientUnits="userSpaceOnUse" x2="256" gradientTransform="translate(-120)" y1="152" x1="256"/>
  <linearGradient id="linearGradient4406" y2="408" xlink:href="#linearGradient4319" gradientUnits="userSpaceOnUse" x2="256" gradientTransform="translate(-160)" y1="112" x1="256"/>
  <linearGradient id="linearGradient4411" y2="312" xlink:href="#linearGradient4319" gradientUnits="userSpaceOnUse" x2="256" gradientTransform="translate(-200)" y1="160" x1="256"/>
  <linearGradient id="linearGradient4415" y2="544" xlink:href="#linearGradient4319" gradientUnits="userSpaceOnUse" x2="256" gradientTransform="translate(40)" y1="160" x1="256"/>
  <linearGradient id="linearGradient4419" y2="456" xlink:href="#linearGradient4319" gradientUnits="userSpaceOnUse" x2="256" gradientTransform="translate(80)" y1="208" x1="256"/>
  <linearGradient id="linearGradient4423" y2="368" xlink:href="#linearGradient4319" gradientUnits="userSpaceOnUse" x2="256" gradientTransform="translate(120)" y1="176" x1="256"/>
  <linearGradient id="linearGradient4427" y2="376" xlink:href="#linearGradient4319" gradientUnits="userSpaceOnUse" x2="256" gradientTransform="translate(160)" y1="185.9" x1="256"/>
  <linearGradient id="linearGradient4431" y2="352" xlink:href="#linearGradient4319" gradientUnits="userSpaceOnUse" x2="256" gradientTransform="translate(200)" y1="128" x1="256"/>
 </defs>
 <metadata id="metadata3341">
  <rdf:RDF>
   <cc:Work rdf:about="">
    <dc:format>image/svg+xml</dc:format>
    <dc:type rdf:resource="http://purl.org/dc/dcmitype/StillImage"/>
    <dc:title/>
   </cc:Work>
  </rdf:RDF>
 </metadata>
 <g id="layer3">
  <path id="rect4158" style="color:#000000;enable-background:accumulate;fill:url(#linearGradient4296)" d="m0 0v183.9 144.2 183.9h512v-183.9-144.2-183.9h-512z"/>
  <path id="path4269" style="opacity:.1;color:#000000;enable-background:accumulate;fill:#fff" d="m0 256v72.1 183.9h512v-183.9-72.1h-512z"/>
  <g id="g4370" style="opacity:.5">
   <path id="rect4273" d="m272 72v16h32v-16h-32zm0 24v16h32v-16h-32zm0 24v16h32v-16h-32zm0 24v16h32v-16h-32zm0 24v16h32v-16h-32zm0 24v16h32v-16h-32zm0 24v16h32v-16h-32zm0 24v16h32v-16h-32zm0 24v16h32v-16h-32z" style="opacity:1;color:#000000;enable-background:accumulate;fill:url(#linearGradient4368)" transform="translate(-32,-32)"/>
   <path id="path4292" style="opacity:1;color:#000000;enable-background:accumulate;fill:url(#linearGradient4366)" d="m200 40v16h32v-16h-32zm0 24v16h32v-16h-32zm0 24v16h32v-16h-32zm0 24v16h32v-16h-32zm0 24v16h32v-16h-32zm0 24v16h32v-16h-32zm0 24v16h32v-16h-32zm0 24v16h32v-16h-32zm0 24v16h32v-16h-32z"/>
   <path id="path4294" style="opacity:1;color:#000000;enable-background:accumulate;fill:url(#linearGradient4364)" d="m160 40v16h32v-16h-32zm0 24v16h32v-16h-32zm0 24v16h32v-16h-32zm0 24v16h32v-16h-32zm0 24v16h32v-16h-32zm0 24v16h32v-16h-32zm0 24v16h32v-16h-32zm0 24v16h32v-16h-32zm0 24v16h32v-16h-32z"/>
   <path id="path4296" style="opacity:1;color:#000000;enable-background:accumulate;fill:url(#linearGradient4362)" d="m120 40v16h32v-16h-32zm0 24v16h32v-16h-32zm0 24v16h32v-16h-32zm0 24v16h32v-16h-32zm0 24v16h32v-16h-32zm0 24v16h32v-16h-32zm0 24v16h32v-16h-32zm0 24v16h32v-16h-32zm0 24v16h32v-16h-32z"/>
   <path id="path4298" style="opacity:1;color:#000000;enable-background:accumulate;fill:url(#linearGradient4360)" d="m80 40v16h32v-16h-32zm0 24v16h32v-16h-32zm0 24v16h32v-16h-32zm0 24v16h32v-16h-32zm0 24v16h32v-16h-32zm0 24v16h32v-16h-32zm0 24v16h32v-16h-32zm0 24v16h32v-16h-32zm0 24v16h32v-16h-32z"/>
   <path id="path4301" style="opacity:1;color:#000000;enable-background:accumulate;fill:url(#linearGradient4358)" d="m40 40v16h32v-16h-32zm0 24v16h32v-16h-32zm0 24v16h32v-16h-32zm0 24v16h32v-16h-32zm0 24v16h32v-16h-32zm0 24v16h32v-16h-32zm0 24v16h32v-16h-32zm0 24v16h32v-16h-32zm0 24v16h32v-16h-32z"/>
   <path id="path4303" style="opacity:1;color:#000000;enable-background:accumulate;fill:url(#linearGradient4356)" d="m280 40v16h32v-16h-32zm0 24v16h32v-16h-32zm0 24v16h32v-16h-32zm0 24v16h32v-16h-32zm0 24v16h32v-16h-32zm0 24v16h32v-16h-32zm0 24v16h32v-16h-32zm0 24v16h32v-16h-32zm0 24v16h32v-16h-32z"/>
   <path id="path4305" style="opacity:1;color:#000000;enable-background:accumulate;fill:url(#linearGradient4354)" d="m320 40v16h32v-16h-32zm0 24v16h32v-16h-32zm0 24v16h32v-16h-32zm0 24v16h32v-16h-32zm0 24v16h32v-16h-32zm0 24v16h32v-16h-32zm0 24v16h32v-16h-32zm0 24v16h32v-16h-32zm0 24v16h32v-16h-32z"/>
   <path id="path4307" style="opacity:1;color:#000000;enable-background:accumulate;fill:url(#linearGradient4352)" d="m360 40v16h32v-16h-32zm0 24v16h32v-16h-32zm0 24v16h32v-16h-32zm0 24v16h32v-16h-32zm0 24v16h32v-16h-32zm0 24v16h32v-16h-32zm0 24v16h32v-16h-32zm0 24v16h32v-16h-32zm0 24v16h32v-16h-32z"/>
   <path id="path4309" style="opacity:1;color:#000000;enable-background:accumulate;fill:url(#linearGradient4350)" d="m400 40v16h32v-16h-32zm0 24v16h32v-16h-32zm0 24v16h32v-16h-32zm0 24v16h32v-16h-32zm0 24v16h32v-16h-32zm0 24v16h32v-16h-32zm0 24v16h32v-16h-32zm0 24v16h32v-16h-32zm0 24v16h32v-16h-32z"/>
   <path id="path4311" style="opacity:1;color:#000000;enable-background:accumulate;fill:url(#linearGradient4348)" d="m440 40v16h32v-16h-32zm0 24v16h32v-16h-32zm0 24v16h32v-16h-32zm0 24v16h32v-16h-32zm0 24v16h32v-16h-32zm0 24v16h32v-16h-32zm0 24v16h32v-16h-32zm0 24v16h32v-16h-32zm0 24v16h32v-16h-32z"/>
  </g>
  <g id="g4433" style="opacity:.5">
   <path id="path4313" style="opacity:0.467;color:#000000;enable-background:accumulate;fill:url(#linearGradient4390)" d="m240 264v16h32v-16h-32zm0 24v16h32v-16h-32zm0 24v16h32v-16h-32zm0 24v16h32v-16h-32zm0 24v16h32v-16h-32zm0 24v16h32v-16h-32zm0 24v16h32v-16h-32zm0 24v16h32v-16h-32zm0 24v16h32v-16h-32z"/>
   <path id="path4392" style="opacity:0.467;color:#000000;enable-background:accumulate;fill:url(#linearGradient4394)" d="m200 264v16h32v-16h-32zm0 24v16h32v-16h-32zm0 24v16h32v-16h-32zm0 24v16h32v-16h-32zm0 24v16h32v-16h-32zm0 24v16h32v-16h-32zm0 24v16h32v-16h-32zm0 24v16h32v-16h-32zm0 24v16h32v-16h-32z"/>
   <path id="path4396" style="opacity:0.467;color:#000000;enable-background:accumulate;fill:url(#linearGradient4398)" d="m160 264v16h32v-16h-32zm0 24v16h32v-16h-32zm0 24v16h32v-16h-32zm0 24v16h32v-16h-32zm0 24v16h32v-16h-32zm0 24v16h32v-16h-32zm0 24v16h32v-16h-32zm0 24v16h32v-16h-32zm0 24v16h32v-16h-32z"/>
   <path id="path4400" style="opacity:0.467;color:#000000;enable-background:accumulate;fill:url(#linearGradient4402)" d="m120 264v16h32v-16h-32zm0 24v16h32v-16h-32zm0 24v16h32v-16h-32zm0 24v16h32v-16h-32zm0 24v16h32v-16h-32zm0 24v16h32v-16h-32zm0 24v16h32v-16h-32zm0 24v16h32v-16h-32zm0 24v16h32v-16h-32z"/>
   <path id="path4404" style="opacity:0.467;color:#000000;enable-background:accumulate;fill:url(#linearGradient4406)" d="m80 264v16h32v-16h-32zm0 24v16h32v-16h-32zm0 24v16h32v-16h-32zm0 24v16h32v-16h-32zm0 24v16h32v-16h-32zm0 24v16h32v-16h-32zm0 24v16h32v-16h-32zm0 24v16h32v-16h-32zm0 24v16h32v-16h-32z"/>
   <path id="path4408" style="opacity:0.467;color:#000000;enable-background:accumulate;fill:url(#linearGradient4411)" d="m40 264v16h32v-16h-32zm0 24v16h32v-16h-32zm0 24v16h32v-16h-32zm0 24v16h32v-16h-32zm0 24v16h32v-16h-32zm0 24v16h32v-16h-32zm0 24v16h32v-16h-32zm0 24v16h32v-16h-32zm0 24v16h32v-16h-32z"/>
   <path id="path4413" style="opacity:0.467;color:#000000;enable-background:accumulate;fill:url(#linearGradient4415)" d="m280 264v16h32v-16h-32zm0 24v16h32v-16h-32zm0 24v16h32v-16h-32zm0 24v16h32v-16h-32zm0 24v16h32v-16h-32zm0 24v16h32v-16h-32zm0 24v16h32v-16h-32zm0 24v16h32v-16h-32zm0 24v16h32v-16h-32z"/>
   <path id="path4417" style="opacity:0.467;color:#000000;enable-background:accumulate;fill:url(#linearGradient4419)" d="m320 264v16h32v-16h-32zm0 24v16h32v-16h-32zm0 24v16h32v-16h-32zm0 24v16h32v-16h-32zm0 24v16h32v-16h-32zm0 24v16h32v-16h-32zm0 24v16h32v-16h-32zm0 24v16h32v-16h-32zm0 24v16h32v-16h-32z"/>
   <path id="path4421" style="opacity:0.467;color:#000000;enable-background:accumulate;fill:url(#linearGradient4423)" d="m360 264v16h32v-16h-32zm0 24v16h32v-16h-32zm0 24v16h32v-16h-32zm0 24v16h32v-16h-32zm0 24v16h32v-16h-32zm0 24v16h32v-16h-32zm0 24v16h32v-16h-32zm0 24v16h32v-16h-32zm0 24v16h32v-16h-32z"/>
   <path id="path4425" style="opacity:0.467;color:#000000;enable-background:accumulate;fill:url(#linearGradient4427)" d="m400 264v16h32v-16h-32zm0 24v16h32v-16h-32zm0 24v16h32v-16h-32zm0 24v16h32v-16h-32zm0 24v16h32v-16h-32zm0 24v16h32v-16h-32zm0 24v16h32v-16h-32zm0 24v16h32v-16h-32zm0 24v16h32v-16h-32z"/>
   <path id="path4429" style="opacity:0.467;color:#000000;enable-background:accumulate;fill:url(#linearGradient4431)" d="m440 264v16h32v-16h-32zm0 24v16h32v-16h-32zm0 24v16h32v-16h-32zm0 24v16h32v-16h-32zm0 24v16h32v-16h-32zm0 24v16h32v-16h-32zm0 24v16h32v-16h-32zm0 24v16h32v-16h-32zm0 24v16h32v-16h-32z"/>
  </g>
 </g>
 <g id="layer4">
  <path id="path4338" d="m318.47 111.17c-7.0198-0.0694-14.752 0.0484-22.893 0.48237-32.566 1.7357-72.065 8.2424-99.858 29.647l-2.6009 2.0012v3.2854 64.925 130.44c-1.9707-1.3795-3.9149-2.768-5.9515-4.1328v0.007c-8.4849-5.6862-17.526-9.7324-29.673-9.7324-15.215 0-24.291 5.8266-29.783 13.5-5.4925 7.6734-7.3138 17.346-7.3138 24.823 0 9.0158 3.0804 18.637 9.7583 25.97 6.6779 7.3327 16.945 12.47 31.706 12.47 16.669 0 28.396-4.6505 35.024-13.741 5.219-7.1574 8.1027-16.724 9.1326-28.519v-0.02-0.0134c0.14418-1.431 0.24798-2.8923 0.33899-4.4066 0.13984-2.3315 0.11081-6.7011 0.11081-6.7011v-150.7c23.98-18.151 59.747-25.584 89.976-27.906 22.426-1.7229 41.171-0.80304 50.2-0.14351v142.54c-1.9707-1.3795-3.915-2.768-5.9515-4.1328v0.007c-8.4849-5.6853-17.526-9.7315-29.673-9.7315-15.215 0-24.291 5.8266-29.783 13.5-5.4925 7.6734-7.3138 17.346-7.3138 24.823 0 9.0158 3.0804 18.637 9.7583 25.97 6.6779 7.3327 16.945 12.47 31.706 12.47 16.669 0 28.396-4.6505 35.024-13.741 5.219-7.1574 8.1027-16.724 9.1326-28.519v-0.02-0.0133c0.14418-1.431 0.24798-2.8923 0.33899-4.4066 0.13985-2.3315 0.11081-6.7011 0.11081-6.7011v-150.74-59.997l-5.8211-0.74964s-14.643-1.8837-35.702-2.0925z" style="opacity:.1;filter:url(#filter4360);enable-background:new"/>
  <path id="path4321" d="m318.47 111.17c-7.0198-0.0694-14.752 0.0484-22.893 0.48237-32.566 1.7357-72.065 8.2424-99.858 29.647l-2.6009 2.0012v3.2854 64.925 130.44c-1.9707-1.3795-3.9149-2.768-5.9515-4.1328v0.007c-8.4849-5.6862-17.526-9.7324-29.673-9.7324-15.215 0-24.291 5.8266-29.783 13.5-5.4925 7.6734-7.3138 17.346-7.3138 24.823 0 9.0158 3.0804 18.637 9.7583 25.97 6.6779 7.3327 16.945 12.47 31.706 12.47 16.669 0 28.396-4.6505 35.024-13.741 5.219-7.1574 8.1027-16.724 9.1326-28.519v-0.02-0.0134c0.14418-1.431 0.24798-2.8923 0.33899-4.4066 0.13984-2.3315 0.11081-6.7011 0.11081-6.7011v-150.7c23.98-18.151 59.747-25.584 89.976-27.906 22.426-1.7229 41.171-0.80304 50.2-0.14351v142.54c-1.9707-1.3795-3.915-2.768-5.9515-4.1328v0.007c-8.4849-5.6853-17.526-9.7315-29.673-9.7315-15.215 0-24.291 5.8266-29.783 13.5-5.4925 7.6734-7.3138 17.346-7.3138 24.823 0 9.0158 3.0804 18.637 9.7583 25.97 6.6779 7.3327 16.945 12.47 31.706 12.47 16.669 0 28.396-4.6505 35.024-13.741 5.219-7.1574 8.1027-16.724 9.1326-28.519v-0.02-0.0133c0.14418-1.431 0.24798-2.8923 0.33899-4.4066 0.13985-2.3315 0.11081-6.7011 0.11081-6.7011v-150.74-59.997l-5.8211-0.74964s-14.643-1.8837-35.702-2.0925z" style="opacity:.4;filter:url(#filter4333);enable-background:new;fill:url(#linearGradient4331)"/>
  <path id="path4255" style="enable-background:new;fill:url(#linearGradient4370)" d="m318.47 109.17c-7.0198-0.0694-14.752 0.0484-22.893 0.48237-32.566 1.7357-72.065 8.2424-99.858 29.647l-2.6009 2.0012v3.2854 64.925 130.44c-1.9707-1.3795-3.9149-2.768-5.9515-4.1328v0.007c-8.4849-5.6862-17.526-9.7324-29.673-9.7324-15.215 0-24.291 5.8266-29.783 13.5-5.4925 7.6734-7.3138 17.346-7.3138 24.823 0 9.0158 3.0804 18.637 9.7583 25.97 6.6779 7.3327 16.945 12.47 31.706 12.47 16.669 0 28.396-4.6505 35.024-13.741 5.219-7.1574 8.1027-16.724 9.1326-28.519v-0.02-0.0134c0.14418-1.431 0.24798-2.8923 0.33899-4.4066 0.13984-2.3315 0.11081-6.7011 0.11081-6.7011v-150.7c23.98-18.151 59.747-25.584 89.976-27.906 22.426-1.7229 41.171-0.80304 50.2-0.14351v142.54c-1.9707-1.3795-3.915-2.768-5.9515-4.1328v0.007c-8.4849-5.6853-17.526-9.7315-29.673-9.7315-15.215 0-24.291 5.8266-29.783 13.5-5.4925 7.6734-7.3138 17.346-7.3138 24.823 0 9.0158 3.0804 18.637 9.7583 25.97 6.6779 7.3327 16.945 12.47 31.706 12.47 16.669 0 28.396-4.6505 35.024-13.741 5.219-7.1574 8.1027-16.724 9.1326-28.519v-0.02-0.0133c0.14418-1.431 0.24798-2.8923 0.33899-4.4066 0.13985-2.3315 0.11081-6.7011 0.11081-6.7011v-150.74-59.997l-5.8211-0.74964s-14.643-1.8837-35.702-2.0925z"/>
  <path id="path4372" style="opacity:0.261;color:#000000;enable-background:accumulate;fill:url(#linearGradient4384)" d="m273.07 169.54c-14.641-0.0536-30.626 1.055-47.951 3.7578v3.2852 64.926 130.44c-1.9707-1.3795-3.9146-2.768-5.9512-4.1328v0.008c-8.4849-5.6862-17.525-9.7324-29.672-9.7324-15.215 0-24.291 5.8266-29.783 13.5-5.4925 7.6734-7.3144 17.346-7.3144 24.822 0 9.0158 3.0799 18.638 9.7578 25.971 6.6779 7.3327 16.945 12.47 31.707 12.471 16.669 0 28.395-4.6515 35.023-13.742 5.219-7.1574 8.1029-16.725 9.1328-28.52v-0.0195-0.0137c0.14418-1.431 0.24884-2.892 0.33985-4.4062 0.13984-2.3315 0.10937-6.7012 0.10937-6.7012v-150.7c23.98-18.151 59.747-25.584 89.977-27.906 22.426-1.7229 41.171-0.80211 50.199-0.14258l13.352 1.3047s-39.866-34.177-118.93-34.467z" transform="translate(-32,-32)"/>
  <path id="path4386" style="enable-background:new;fill:#fff" d="m345.08 141.15c-5.5178 0.0242-11.394 0.17257-17.5 0.49805-32.566 1.7357-72.064 8.2423-99.857 29.646l-2.6016 2.002v2l2.6016-2.002c27.794-21.404 67.292-27.911 99.857-29.646 8.1414-0.43397 15.875-0.55182 22.895-0.48242 21.06 0.20876 35.701 2.0918 35.701 2.0918l5.8223 0.75v-2l-5.8223-0.75s-14.642-1.883-35.701-2.0918c-1.755-0.0173-3.5553-0.0237-5.3945-0.0156zm-2.0566 190.24c-15.215 0-24.291 5.8266-29.783 13.5-5.4925 7.6734-7.3144 17.346-7.3144 24.822 0 0.38906 0.0139 0.78079 0.0254 1.1719 0.12773-7.3558 1.9927-16.595 7.2891-23.994 5.4925-7.6734 14.569-13.5 29.783-13.5 12.147 0 21.187 4.0451 29.672 9.7305v-0.006c2.0365 1.3648 3.9805 2.7533 5.9512 4.1328v-2c-1.9707-1.3795-3.9146-2.768-5.9512-4.1328v0.006c-8.4849-5.6853-17.525-9.7305-29.672-9.7305zm-153.53 26.699c-15.215 0-24.291 5.8266-29.783 13.5-5.4925 7.6734-7.3144 17.346-7.3144 24.822 0 0.39425 0.0136 0.79117 0.0254 1.1875 0.12537-7.3583 1.989-16.605 7.2891-24.01 5.4925-7.6734 14.569-13.5 29.783-13.5 12.147 0 21.187 4.0463 29.672 9.7324v-0.008c2.0365 1.3648 3.9805 2.7533 5.9512 4.1328v-2c-1.9707-1.3795-3.9146-2.768-5.9512-4.1328v0.008c-8.4849-5.6862-17.525-9.7324-29.672-9.7324z" transform="translate(-32,-32)"/>
 </g>
</svg>
