<?xml version="1.0" encoding="UTF-8" standalone="no"?>
<!-- Created with Inkscape (http://www.inkscape.org/) -->
<svg id="svg3336" xmlns:rdf="http://www.w3.org/1999/02/22-rdf-syntax-ns#" style="enable-background:new" xmlns="http://www.w3.org/2000/svg" height="512" viewBox="0 0 512 512" width="512" version="1.1" xmlns:cc="http://creativecommons.org/ns#" xmlns:xlink="http://www.w3.org/1999/xlink" xmlns:dc="http://purl.org/dc/elements/1.1/">
 <defs id="defs3338">
  <filter id="filter4395" style="color-interpolation-filters:sRGB" height="1.0249" width="1.0232" y="-.012454" x="-.011578">
   <feGaussianBlur id="feGaussianBlur4397" stdDeviation="2.47"/>
  </filter>
  <linearGradient id="linearGradient4227" y2="494" gradientUnits="userSpaceOnUse" x2="512" y1="18">
   <stop id="stop4223" style="stop-color:#fde482" offset="0"/>
   <stop id="stop4225" style="stop-color:#fdf3cb" offset="1"/>
  </linearGradient>
 </defs>
 <metadata id="metadata3341">
  <rdf:RDF>
   <cc:Work rdf:about="">
    <dc:format>image/svg+xml</dc:format>
    <dc:type rdf:resource="http://purl.org/dc/dcmitype/StillImage"/>
    <dc:title/>
   </cc:Work>
  </rdf:RDF>
 </metadata>
 <g id="layer3">
  <path id="path4381" style="opacity:.1;color:#000000;filter:url(#filter4395);enable-background:accumulate" d="m166.05 22c-145.29 0-166.05 20.737-166.05 165.9v144.2c0 145.16 20.757 165.9 166.05 165.9h179.89c145.3 0 166.06-20.74 166.06-165.9v-144.2c0-145.16-20.76-165.9-166.05-165.9h-179.89z"/>
  <path id="rect4158" style="color:#000000;enable-background:accumulate;fill:url(#linearGradient4227)" d="m0 0v183.9 144.2 183.9h512v-183.9-144.2-183.9h-512z"/>
  <g id="g4272">
   <path id="path4452" style="opacity:.1;color:#000000;fill-opacity:.99608;enable-background:accumulate;fill:#5c81df" d="m0 231v2h512.4v-2h-512.4z"/>
   <path id="path4450" d="m0 279v2h512.4v-2h-512.4z" style="opacity:.1;color:#000000;fill-opacity:.99608;enable-background:accumulate;fill:#5c81df"/>
   <path id="path4448" d="m0 375v2h512.4v-2h-512.4z" style="opacity:.1;color:#000000;fill-opacity:.99608;enable-background:accumulate;fill:#5c81df"/>
   <rect id="rect4333-4" style="opacity:.3;color:#000000;fill-opacity:.99608;enable-background:accumulate;fill:#ef5145" height="476" width="2" y="18" x="86.75"/>
   <path id="rect4891" d="m0 1v15 104h504 8v-120z" style="color:#000000;enable-background:accumulate;fill:#fac82e"/>
   <path id="path4568" d="m8 126c-2.2091 0-4 1.7909-4 4s1.7909 4 4 4 4-1.7909 4-4-1.7909-4-4-4zm16 0c-2.2091 0-4 1.7909-4 4s1.7909 4 4 4 4-1.7909 4-4-1.7909-4-4-4zm16 0c-2.2091 0-4 1.7909-4 4s1.7909 4 4 4 4-1.7909 4-4-1.7909-4-4-4zm16 0c-2.2091 0-4 1.7909-4 4s1.7909 4 4 4 4-1.7909 4-4-1.7909-4-4-4zm16 0c-2.2091 0-4 1.7909-4 4s1.7909 4 4 4 4-1.7909 4-4-1.7909-4-4-4zm16 0c-2.2091 0-4 1.7909-4 4s1.7909 4 4 4 4-1.7909 4-4-1.7909-4-4-4zm16 0c-2.2091 0-4 1.7909-4 4s1.7909 4 4 4 4-1.7909 4-4-1.7909-4-4-4zm16 0c-2.2091 0-4 1.7909-4 4s1.7909 4 4 4 4-1.7909 4-4-1.7909-4-4-4zm16 0c-2.2091 0-4 1.7909-4 4s1.7909 4 4 4 4-1.7909 4-4-1.7909-4-4-4zm16 0c-2.2091 0-4 1.7909-4 4s1.7909 4 4 4 4-1.7909 4-4-1.7909-4-4-4zm16 0c-2.2091 0-4 1.7909-4 4s1.7909 4 4 4 4-1.7909 4-4-1.7909-4-4-4zm16 0c-2.2091 0-4 1.7909-4 4s1.7909 4 4 4 4-1.7909 4-4-1.7909-4-4-4zm16 0c-2.2091 0-4 1.7909-4 4s1.7909 4 4 4 4-1.7909 4-4-1.7909-4-4-4zm16 0c-2.2091 0-4 1.7909-4 4s1.7909 4 4 4 4-1.7909 4-4-1.7909-4-4-4zm16 0c-2.2091 0-4 1.7909-4 4s1.7909 4 4 4 4-1.7909 4-4-1.7909-4-4-4zm16 0c-2.2091 0-4 1.7909-4 4s1.7909 4 4 4 4-1.7909 4-4-1.7909-4-4-4zm16 0c-2.2091 0-4 1.7909-4 4s1.7909 4 4 4 4-1.7909 4-4-1.7909-4-4-4zm16 0c-2.2091 0-4 1.7909-4 4s1.7909 4 4 4 4-1.7909 4-4-1.7909-4-4-4zm16 0c-2.2091 0-4 1.7909-4 4s1.7909 4 4 4 4-1.7909 4-4-1.7909-4-4-4zm16 0c-2.2091 0-4 1.7909-4 4s1.7909 4 4 4 4-1.7909 4-4-1.7909-4-4-4zm16 0c-2.2091 0-4 1.7909-4 4s1.7909 4 4 4 4-1.7909 4-4-1.7909-4-4-4zm16 0c-2.2091 0-4 1.7909-4 4s1.7909 4 4 4 4-1.7909 4-4-1.7909-4-4-4zm16 0c-2.2091 0-4 1.7909-4 4s1.7909 4 4 4 4-1.7909 4-4-1.7909-4-4-4zm16 0c-2.2091 0-4 1.7909-4 4s1.7909 4 4 4 4-1.7909 4-4-1.7909-4-4-4zm16 0c-2.2091 0-4 1.7909-4 4s1.7909 4 4 4 4-1.7909 4-4-1.7909-4-4-4zm16 0c-2.2091 0-4 1.7909-4 4s1.7909 4 4 4 4-1.7909 4-4-1.7909-4-4-4zm16 0c-2.2091 0-4 1.7909-4 4s1.7909 4 4 4 4-1.7909 4-4-1.7909-4-4-4zm16 0c-2.2091 0-4 1.7909-4 4s1.7909 4 4 4 4-1.7909 4-4-1.7909-4-4-4zm16 0c-2.2091 0-4 1.7909-4 4s1.7909 4 4 4 4-1.7909 4-4-1.7909-4-4-4zm16 0c-2.2091 0-4 1.7909-4 4s1.7909 4 4 4 4-1.7909 4-4-1.7909-4-4-4zm16 0c-2.2091 0-4 1.7909-4 4s1.7909 4 4 4 4-1.7909 4-4-1.7909-4-4-4zm16 0c-2.2091 0-4 1.7909-4 4s1.7909 4 4 4 4-1.7909 4-4-1.7909-4-4-4z" style="opacity:.4;color:#000000;enable-background:accumulate;fill:#fac82e"/>
   <path id="path4460" style="opacity:.1;color:#000000;fill-opacity:.99608;enable-background:accumulate;fill:#5c81df" d="m0 183v2h512.4v-2h-512.4z"/>
   <path id="path4462" style="opacity:.1;color:#000000;fill-opacity:.99608;enable-background:accumulate;fill:#5c81df" d="m0 423v2h512.4v-2h-512.4z"/>
   <path id="path4228" style="opacity:.1;color:#000000;fill-opacity:.99608;enable-background:accumulate;fill:#5c81df" d="m0 327v2h512.4v-2h-512.4z"/>
  </g>
  <path id="rect4464" style="color:#000000;enable-background:accumulate;fill:#5e72a5" d="m120 176v16h272v-16h-272zm0 48v16h272v-16h-272zm0 48v16h272v-16h-272zm0 48v16h136.18v-16h-136.18z"/>
  <path id="path4299" style="opacity:.35;color:#000000;enable-background:accumulate;fill:#fff" d="m512 315l-199.42 197h199.42v-183.9-13.1z"/>
 </g>
 <g id="layer4">
  <path id="path4505-6" d="m219.31 124-35.188 71.656v59.25c-4.9399 5.788-10.339 11.62-15.969 17.25-18.503 18.503-39.248 34.687-53.125 39.312l-23.374-23.35-71.656 35.19v170.69h256v-317.56c-15.42-33.45-32.37-45.92-56.69-52.44zm-97.56 229c0.007-0.005 0.0239 0.005 0.0312 0-2.6107 1.6304-5.251 3.2267-7.9062 4.8125 2.6559-1.5856 5.2637-3.1824 7.875-4.8125zm-24.094 14.062c0.008-0.004 0.0234 0.004 0.0312 0-2.7418 1.4991-5.5286 2.9806-8.3125 4.4375 2.7843-1.4568 5.5391-2.9386 8.2813-4.4375z" style="opacity:.05;fill-opacity:0;color:#000000;enable-background:accumulate"/>
 </g>
</svg>
