<?xml version="1.0" encoding="UTF-8" standalone="no"?>
<!-- Created with Inkscape (http://www.inkscape.org/) -->
<svg id="svg3336" xmlns:rdf="http://www.w3.org/1999/02/22-rdf-syntax-ns#" xmlns="http://www.w3.org/2000/svg" height="512" width="512" version="1.1" xmlns:cc="http://creativecommons.org/ns#" xmlns:xlink="http://www.w3.org/1999/xlink" xmlns:dc="http://purl.org/dc/elements/1.1/">
 <metadata id="metadata3341">
  <rdf:RDF>
   <cc:Work rdf:about="">
    <dc:format>image/svg+xml</dc:format>
    <dc:type rdf:resource="http://purl.org/dc/dcmitype/StillImage"/>
    <dc:title/>
   </cc:Work>
  </rdf:RDF>
 </metadata>
 <g id="layer3" style="opacity:0.98">
  <rect id="rect4158" style="color:#000000;fill-opacity:.98039;fill:#3b5998" transform="scale(1,-1)" height="512" width="512" y="-512" x="0"/>
  <path id="path16" d="m112 400h288v-48h-288v48z" style="fill:#6d84b3"/>
  <path id="path18" d="m280 400v-123.53h-32.663v-44.475h32.66v-37.987c0-29.851 19.294-57.264 63.751-57.264 18 0 31.31 1.7256 31.31 1.7256l-1.0488 41.532s-13.574-0.1321-28.387-0.1321c-16.032 0-18.6 7.3882-18.6 19.651v32.475h48.262l-2.1 44.475h-46.162v123.53h-47.025" style="fill:#fff"/>
 </g>
 <g id="layer1" style="display:none" transform="translate(0 -558.36)">
  <path id="path3774" d="m166.05 576.36h179.89c145.3 0 166.05 20.737 166.05 165.9v144.2c0 145.16-20.757 165.9-166.05 165.9h-179.89c-145.29 0-166.05-20.8-166.05-165.94v-144.2c0-145.16 20.757-165.9 166.05-165.9z" style="stroke:#00f;fill:#00f;display:inline;fill-opacity:.081181"/>
  <circle id="path4118" style="stroke-width:.83333;fill-opacity:.081181;color:#000000;stroke:#00f;display:inline;fill:#00f" d="M 376,238 A 120,120 0 0 1 256,358 120,120 0 0 1 136,238 120,120 0 0 1 256,118 120,120 0 0 1 376,238 Z" cx="256" transform="matrix(1.2 0 0 1.2 -51.2 528.76)" cy="238" r="120"/>
  <rect id="rect4152" style="stroke-linejoin:round;fill-opacity:.081181;color:#000000;stroke:#00f;stroke-linecap:round;display:inline;fill:#00f" height="272" width="272" y="678.36" x="120"/>
  <rect id="rect4154" style="stroke-linejoin:round;fill-opacity:.081181;color:#000000;stroke:#00f;stroke-linecap:round;display:inline;fill:#00f" height="240" width="304" y="694.36" x="104"/>
  <rect id="rect4156" style="stroke-linejoin:round;fill-opacity:.081181;color:#000000;stroke:#00f;stroke-linecap:round;display:inline;fill:#00f" height="304" width="240" y="662.36" x="136"/>
 </g>
</svg>
