<?xml version="1.0" encoding="UTF-8" standalone="no"?>
<!-- Created with Inkscape (http://www.inkscape.org/) -->
<svg id="svg3336" xmlns:rdf="http://www.w3.org/1999/02/22-rdf-syntax-ns#" xmlns="http://www.w3.org/2000/svg" height="512" viewBox="0 0 512.40002 512" width="512.4" version="1.1" xmlns:cc="http://creativecommons.org/ns#" xmlns:xlink="http://www.w3.org/1999/xlink" xmlns:dc="http://purl.org/dc/elements/1.1/">
 <defs id="defs3338">
  <linearGradient id="linearGradient4691" y2="-2.3991" gradientUnits="userSpaceOnUse" x2="290.23" gradientTransform="translate(0 -512)" y1="506.91" x1="290.23">
   <stop id="stop4687" style="stop-color:#f0f0f0" offset="0"/>
   <stop id="stop4689" style="stop-color:#fefefe" offset="1"/>
  </linearGradient>
 </defs>
 <metadata id="metadata3341">
  <rdf:RDF>
   <cc:Work rdf:about="">
    <dc:format>image/svg+xml</dc:format>
    <dc:type rdf:resource="http://purl.org/dc/dcmitype/StillImage"/>
    <dc:title/>
   </cc:Work>
  </rdf:RDF>
 </metadata>
 <g id="layer3">
  <rect id="rect4158" style="color:#000000;fill:url(#linearGradient4691)" transform="scale(1,-1)" height="512" width="512" y="-512" x="0"/>
  <ellipse id="path4693" style="color:#000000;fill:#0063dc" rx="76" ry="75.914" cy="256" cx="164"/>
  <ellipse id="ellipse4695" style="color:#000000;fill:#ff0084" rx="76" ry="75.914" cy="256" cx="348"/>
 </g>
 <g id="layer1" style="display:none" transform="translate(0 -558.36)">
  <path id="path3774" d="m166.05 576.36h179.89c145.3 0 166.05 20.737 166.05 165.9v144.2c0 145.16-20.757 165.9-166.05 165.9h-179.89c-145.29 0-166.05-20.8-166.05-165.94v-144.2c0-145.16 20.757-165.9 166.05-165.9z" style="stroke:#00f;fill:#00f;display:inline;fill-opacity:.081181"/>
  <circle id="path4118" style="stroke-width:.83333;fill-opacity:.081181;color:#000000;stroke:#00f;display:inline;fill:#00f" cx="256" transform="matrix(1.2 0 0 1.2 -51.2 528.76)" cy="238" r="120"/>
  <rect id="rect4152" style="stroke-linejoin:round;fill-opacity:.081181;color:#000000;stroke:#00f;stroke-linecap:round;display:inline;fill:#00f" height="272" width="272" y="678.36" x="120"/>
  <rect id="rect4154" style="stroke-linejoin:round;fill-opacity:.081181;color:#000000;stroke:#00f;stroke-linecap:round;display:inline;fill:#00f" height="240" width="304" y="694.36" x="104"/>
  <rect id="rect4156" style="stroke-linejoin:round;fill-opacity:.081181;color:#000000;stroke:#00f;stroke-linecap:round;display:inline;fill:#00f" height="304" width="240" y="662.36" x="136"/>
 </g>
</svg>
