<?xml version="1.0" encoding="UTF-8" standalone="no"?>
<!-- Created with Inkscape (http://www.inkscape.org/) -->
<svg id="svg3336" xmlns:rdf="http://www.w3.org/1999/02/22-rdf-syntax-ns#" xmlns="http://www.w3.org/2000/svg" height="512" viewBox="0 0 512.40002 512" width="512.4" version="1.1" xmlns:cc="http://creativecommons.org/ns#" xmlns:xlink="http://www.w3.org/1999/xlink" xmlns:dc="http://purl.org/dc/elements/1.1/">
 <metadata id="metadata3341">
  <rdf:RDF>
   <cc:Work rdf:about="">
    <dc:format>image/svg+xml</dc:format>
    <dc:type rdf:resource="http://purl.org/dc/dcmitype/StillImage"/>
    <dc:title/>
   </cc:Work>
  </rdf:RDF>
 </metadata>
 <g id="layer3">
  <rect id="rect4158" style="color:#000000;fill:#f9f9f9" height="512" width="512" y="0" x="0"/>
  <path id="path4324" style="color-rendering:auto;text-decoration-color:#000000;color:#000000;font-variant-numeric:normal;shape-rendering:auto;solid-color:#000000;text-decoration-line:none;fill:#f2c20e;font-variant-position:normal;mix-blend-mode:normal;font-feature-settings:normal;shape-padding:0;font-variant-alternates:normal;text-indent:0;font-variant-caps:normal;image-rendering:auto;white-space:normal;text-decoration-style:solid;font-variant-ligatures:normal;isolation:auto;text-transform:none" d="m261.48 112c-31.119 0.0327-62.533 10.379-88.236 30.77-54.586 43.304-72.873 121.64-39.159 183.97 33.234 61.44 104.69 85.013 169.03 67.773 70.496-18.889 104.98-91.848 93.163-162.67l-0.42179 0.0712h-135.62v55.193h78.096c-6.4988 25.809-23.78 44.643-50.139 51.706-42.374 11.354-83.41-2.5922-103.38-39.51-19.489-36.029-8.1152-85.656 24.275-111.35 32.144-25.501 80.429-23.384 106.7 4.0016l41.61-39.923c-24.248-25.272-56.578-38.459-89.701-39.893-2.0702-0.0895-4.1428-0.1335-6.2174-0.1314z"/>
  <path id="path4332" d="m261.48 112c-31.119 0.0327-62.533 10.379-88.236 30.77-54.586 43.304-72.873 121.64-39.159 183.97 33.234 61.44 104.69 85.013 169.03 67.773 70.496-18.889 104.98-91.848 93.163-162.67l-0.42179 0.0712h-135.62v55.193h78.096c-6.4988 25.809-23.78 44.643-50.139 51.706-42.374 11.354-83.41-2.5922-103.38-39.51-19.489-36.029-8.1152-85.656 24.275-111.35 32.144-25.501 80.429-23.384 106.7 4.0016l41.61-39.923c-24.248-25.272-56.578-38.459-89.701-39.893-2.0702-0.0895-4.1428-0.1335-6.2174-0.1314z" style="color-rendering:auto;text-decoration-color:#000000;color:#000000;font-variant-numeric:normal;shape-rendering:auto;solid-color:#000000;text-decoration-line:none;fill:#f2c20e;font-variant-position:normal;mix-blend-mode:normal;font-feature-settings:normal;shape-padding:0;font-variant-alternates:normal;text-indent:0;font-variant-caps:normal;image-rendering:auto;white-space:normal;text-decoration-style:solid;font-variant-ligatures:normal;isolation:auto;text-transform:none"/>
  <path id="path4334" style="color-rendering:auto;text-decoration-color:#000000;color:#000000;font-variant-numeric:normal;shape-rendering:auto;solid-color:#000000;text-decoration-line:none;fill:#f2c20e;font-variant-position:normal;mix-blend-mode:normal;font-feature-settings:normal;shape-padding:0;font-variant-alternates:normal;text-indent:0;font-variant-caps:normal;image-rendering:auto;white-space:normal;text-decoration-style:solid;font-variant-ligatures:normal;isolation:auto;text-transform:none" d="m261.48 112c-31.119 0.0327-62.533 10.379-88.236 30.77-54.586 43.304-72.873 121.64-39.159 183.97 33.234 61.44 104.69 85.013 169.03 67.773 70.496-18.889 104.98-91.848 93.163-162.67l-0.42179 0.0712h-135.62v55.193h78.096c-6.4988 25.809-23.78 44.643-50.139 51.706-42.374 11.354-83.41-2.5922-103.38-39.51-19.489-36.029-8.1152-85.656 24.275-111.35 32.144-25.501 80.429-23.384 106.7 4.0016l41.61-39.923c-24.248-25.272-56.578-38.459-89.701-39.893-2.0702-0.0895-4.1428-0.1335-6.2174-0.1314z"/>
  <path id="path4341" style="color:#000000;fill:#dc3236" d="m261.48 112c-31.119 0.0327-62.532 10.379-88.234 30.77-16.578 13.151-29.8 29.537-39.242 47.721l47.354 36.283c5.6523-15.1 15.077-28.793 27.727-38.828 32.144-25.501 80.429-23.383 106.71 4.002l41.611-39.922c-24.248-25.272-56.578-38.461-89.701-39.895-2.0702-0.0895-4.1442-0.13296-6.2188-0.13086z"/>
  <path id="path4326" style="color:#000000;fill:#4583ec" d="m396.28 231.84-0.42186 0.0703h-135.62v55.193h78.096c-4.2206 16.762-12.994 30.577-25.844 40.141l46.021 35.26c32.179-32.449 45.879-82.058 37.77-130.66z"/>
  <path id="path4330" style="color:#000000;fill:#3dbb55" d="m179.14 285.87-48.436 34.189c1.0642 2.2452 2.185 4.4724 3.3789 6.6797 33.234 61.44 104.69 85.013 169.03 67.773 22.115-5.9256 40.683-17.173 55.393-32.006l-46.021-35.262c-6.9358 5.1624-15.055 9.0904-24.295 11.566-42.374 11.354-83.412-2.5924-103.38-39.51-2.3275-4.3029-4.2021-8.8048-5.666-13.432z"/>
 </g>
 <g id="layer1" style="display:none" transform="translate(0 -558.36)">
  <path id="path3774" d="m166.05 576.36h179.89c145.3 0 166.05 20.737 166.05 165.9v144.2c0 145.16-20.757 165.9-166.05 165.9h-179.89c-145.29 0-166.05-20.8-166.05-165.94v-144.2c0-145.16 20.757-165.9 166.05-165.9z" style="stroke:#00f;fill:#00f;display:inline;fill-opacity:.081181"/>
  <circle id="path4118" style="stroke-width:.83333;fill-opacity:.081181;color:#000000;stroke:#00f;display:inline;fill:#00f" cx="256" transform="matrix(1.2 0 0 1.2 -51.2 528.76)" cy="238" r="120"/>
  <rect id="rect4152" style="stroke-linejoin:round;fill-opacity:.081181;color:#000000;stroke:#00f;stroke-linecap:round;display:inline;fill:#00f" height="272" width="272" y="678.36" x="120"/>
  <rect id="rect4154" style="stroke-linejoin:round;fill-opacity:.081181;color:#000000;stroke:#00f;stroke-linecap:round;display:inline;fill:#00f" height="240" width="304" y="694.36" x="104"/>
  <rect id="rect4156" style="stroke-linejoin:round;fill-opacity:.081181;color:#000000;stroke:#00f;stroke-linecap:round;display:inline;fill:#00f" height="304" width="240" y="662.36" x="136"/>
 </g>
</svg>
