<?xml version="1.0" encoding="UTF-8" standalone="no"?>
<!-- Created with Inkscape (http://www.inkscape.org/) -->
<svg id="svg3336" xmlns:rdf="http://www.w3.org/1999/02/22-rdf-syntax-ns#" xmlns="http://www.w3.org/2000/svg" height="512" width="512.4" version="1.1" xmlns:cc="http://creativecommons.org/ns#" xmlns:xlink="http://www.w3.org/1999/xlink" xmlns:dc="http://purl.org/dc/elements/1.1/">
 <metadata id="metadata3341">
  <rdf:RDF>
   <cc:Work rdf:about="">
    <dc:format>image/svg+xml</dc:format>
    <dc:type rdf:resource="http://purl.org/dc/dcmitype/StillImage"/>
    <dc:title/>
   </cc:Work>
  </rdf:RDF>
 </metadata>
 <g id="layer3">
  <rect id="rect4158" style="color:#000000;fill:#52ade5" height="512" width="512" y="-0.000003" x="0"/>
 </g>
 <g id="layer4">
  <path id="path6437" style="fill:#fff" d="m291.18 136.04c-22.762 6.902-44.666 37.615-37.794 72.36-75.546-4.5454-108.91-44.993-128.97-64.349-20.448 36.065 0.52122 71.119 18.837 82.466-9.6663 0.53157-21.358-3.6434-27.161-7.2752-2.2052 33.272 24.93 56.337 48.016 62.315-7.38 2.1994-14.335 2.495-26.224 0.72761 10.124 33.463 37.325 42.42 57.586 43.893-26.085 22.616-57.409 27.546-91.47 25.883 88.311 53.982 177.49 20.771 220.9-21.593 36.449-35.575 52.744-88.846 53.308-136.51 8.3426-6.7742 25.211-21.133 29.796-32.371-6.6532 2.5573-19.815 8.6408-33.549 9.1878 11.311-7.4053 24.274-22.245 25.632-33.846-12.524 6.8153-27.017 12.72-39.431 14.603-23.401-22.57-46.187-22.551-69.47-15.49z"/>
 </g>
 <g id="layer1" style="display:none" transform="translate(0 -558.36)">
  <path id="path3774" d="m166.05 576.36h179.89c145.3 0 166.05 20.737 166.05 165.9v144.2c0 145.16-20.757 165.9-166.05 165.9h-179.89c-145.29 0-166.05-20.8-166.05-165.94v-144.2c0-145.16 20.757-165.9 166.05-165.9z" style="stroke:#00f;fill:#00f;display:inline;fill-opacity:.081181"/>
  <circle id="path4118" style="stroke-width:.83333;fill-opacity:.081181;color:#000000;stroke:#00f;display:inline;fill:#00f" d="M 376,238 A 120,120 0 0 1 256,358 120,120 0 0 1 136,238 120,120 0 0 1 256,118 120,120 0 0 1 376,238 Z" cx="256" transform="matrix(1.2 0 0 1.2 -51.2 528.76)" cy="238" r="120"/>
  <rect id="rect4152" style="stroke-linejoin:round;fill-opacity:.081181;color:#000000;stroke:#00f;stroke-linecap:round;display:inline;fill:#00f" height="272" width="272" y="678.36" x="120"/>
  <rect id="rect4154" style="stroke-linejoin:round;fill-opacity:.081181;color:#000000;stroke:#00f;stroke-linecap:round;display:inline;fill:#00f" height="240" width="304" y="694.36" x="104"/>
  <rect id="rect4156" style="stroke-linejoin:round;fill-opacity:.081181;color:#000000;stroke:#00f;stroke-linecap:round;display:inline;fill:#00f" height="304" width="240" y="662.36" x="136"/>
 </g>
</svg>
