<?xml version="1.0" encoding="UTF-8" standalone="no"?>
<!-- Created with Inkscape (http://www.inkscape.org/) -->
<svg id="svg3336" xmlns:rdf="http://www.w3.org/1999/02/22-rdf-syntax-ns#" style="enable-background:new" xmlns="http://www.w3.org/2000/svg" height="512" viewBox="0 0 512.40002 512" width="512.4" version="1.1" xmlns:cc="http://creativecommons.org/ns#" xmlns:xlink="http://www.w3.org/1999/xlink" xmlns:dc="http://purl.org/dc/elements/1.1/">
 <defs id="defs3338">
  <linearGradient id="linearGradient4912" y2="494" gradientUnits="userSpaceOnUse" x2="256" gradientTransform="matrix(1 0 0 1.0756 0 -19.361)" y1="18" x1="256">
   <stop id="stop7539-46" style="stop-color:#eaeaea" offset="0"/>
   <stop id="stop7541-8" style="stop-color:#f4f4f4" offset="1"/>
  </linearGradient>
 </defs>
 <metadata id="metadata3341">
  <rdf:RDF>
   <cc:Work rdf:about="">
    <dc:format>image/svg+xml</dc:format>
    <dc:type rdf:resource="http://purl.org/dc/dcmitype/StillImage"/>
    <dc:title/>
   </cc:Work>
  </rdf:RDF>
 </metadata>
 <g id="layer3">
  <rect id="rect4158" style="color:#000000;enable-background:accumulate;fill:url(#linearGradient4912)" height="512" width="512" y="0" x="0"/>
  <path id="path4314" style="opacity:.1" d="m122.31 104 24.34 273.12 109.25 30.88 109.85-30.88 24.34-273.12h-267.78zm49.876 55.812h83.717 0.59542 83.717l-0.59336 8.9068-1.7801 17.218-0.59542 7.1266h-80.748-0.59542-46.905l2.9689 34.436h43.936 0.59542 68.281 9.4981l-1.1868 8.9068-7.718 88.468-0.59338 5.9378-68.281 18.837v0.16369h-0.59542l-68.874-19-4.1557-52.843h15.438 17.811l2.3756 26.718 37.405 10.094 37.407-10.094 4.1557-43.343h-40.967-0.59542-74.812l-8.3113-92.626-0.59336-8.9068z"/>
  <path id="path4316" style="opacity:.15;fill:#fff" d="m256.5 384.25 88.469-24.344 20.781-233.94h-109.25"/>
 </g>
 <g id="layer5" transform="translate(0,18)">
  <path id="rect4209" d="m255.92-18h256.48v512h-256.48z" style="opacity:.2;color:#000000;enable-background:accumulate;fill:#fff"/>
 </g>
 <g id="layer4">
  <path id="path812" d="m-208.32 605.62c-7.8421 0-14.554 5.0292-17.318 12.187-0.0612-0.00067-0.12078 0-0.18229 0-7.0877 0-12.833 6.0022-12.833 13.406 0 7.4041 5.7457 13.406 12.833 13.406h17.5 16.333c5.1547 0 9.3333-4.3653 9.3333-9.7501 0-4.5434-2.9741-8.3631-7-9.4452 0.001-0.10288 0-0.20153 0-0.30467 0-10.77-8.3574-19.5-18.667-19.5z" style="stroke-width:4;color:#000000;stroke:#ccc;enable-background:accumulate;display:none;fill:#fff"/>
  <path id="path4340" style="stroke-width:4;color:#000000;stroke:#ccc;enable-background:accumulate;display:none;fill:none" d="m288.87 828.08c-6.3492 0-11.783 4.0718-14.021 9.8674-0.0496-0.00055-0.0978 0-0.14759 0-5.7384 0-10.39 4.8596-10.39 10.854 0 5.9946 4.6519 10.854 10.39 10.854h14.169 13.224c4.1734 0 7.5566-3.5343 7.5566-7.894 0-3.6784-2.4079-6.7711-5.6674-7.6472 0.001-0.0833 0-0.16316 0-0.24667 0-8.7194-6.7664-15.788-15.113-15.788z"/>
 </g>
 <g id="layer1" style="display:none" transform="translate(0 -558.36)">
  <path id="path3774" d="m166.05 576.36h179.89c145.3 0 166.05 20.737 166.05 165.9v144.2c0 145.16-20.757 165.9-166.05 165.9h-179.89c-145.29 0-166.05-20.8-166.05-165.94v-144.2c0-145.16 20.757-165.9 166.05-165.9z" style="stroke:#00f;fill:#00f;display:inline;fill-opacity:.081181"/>
  <circle id="path4118" style="stroke-width:.83333;fill-opacity:.081181;color:#000000;stroke:#00f;enable-background:accumulate;display:inline;fill:#00f" cx="256" transform="matrix(1.2 0 0 1.2 -51.2 528.76)" cy="238" r="120"/>
  <rect id="rect4152" style="stroke-linejoin:round;fill-opacity:.081181;color:#000000;stroke:#00f;stroke-linecap:round;enable-background:accumulate;display:inline;fill:#00f" height="272" width="272" y="678.36" x="120"/>
  <rect id="rect4154" style="stroke-linejoin:round;fill-opacity:.081181;color:#000000;stroke:#00f;stroke-linecap:round;enable-background:accumulate;display:inline;fill:#00f" height="240" width="304" y="694.36" x="104"/>
  <rect id="rect4156" style="stroke-linejoin:round;fill-opacity:.081181;color:#000000;stroke:#00f;stroke-linecap:round;enable-background:accumulate;display:inline;fill:#00f" height="304" width="240" y="662.36" x="136"/>
 </g>
</svg>
