<?xml version="1.0" encoding="UTF-8" standalone="no"?>
<!-- Created with Inkscape (http://www.inkscape.org/) -->
<svg id="svg3336" xmlns:rdf="http://www.w3.org/1999/02/22-rdf-syntax-ns#" style="enable-background:new" xmlns="http://www.w3.org/2000/svg" height="512" viewBox="0 0 512 512" width="512" version="1.1" xmlns:cc="http://creativecommons.org/ns#" xmlns:xlink="http://www.w3.org/1999/xlink" xmlns:dc="http://purl.org/dc/elements/1.1/">
 <defs id="defs3338">
  <linearGradient id="linearGradient5226">
   <stop id="stop5228" offset="0"/>
   <stop id="stop5230" style="stop-opacity:0" offset="1"/>
  </linearGradient>
  <linearGradient id="linearGradient4515">
   <stop id="stop4740" style="stop-color:#fff;stop-opacity:0" offset="0"/>
   <stop id="stop4742" style="stop-color:#fff" offset=".5"/>
   <stop id="stop4744" style="stop-color:#fff;stop-opacity:0" offset="1"/>
  </linearGradient>
  <linearGradient id="linearGradient4511" y2="154.5" gradientUnits="userSpaceOnUse" x2="223.02" y1="424" x1="322">
   <stop id="stop4507" style="stop-color:#c0c0c0" offset="0"/>
   <stop id="stop4509" style="stop-color:#d3d3d3" offset="1"/>
  </linearGradient>
  <linearGradient id="linearGradient4521" y2="352.07" xlink:href="#linearGradient4515" gradientUnits="userSpaceOnUse" x2="340" y1="223.4" x1="235.53"/>
  <clipPath id="clipPath4626" clipPathUnits="userSpaceOnUse">
   <path id="path4628" style="color:#000000;enable-background:accumulate;fill:#b3b5be" d="m184 272a16 16 0 0 0 -16 16 16 16 0 0 0 16 16 16 16 0 0 0 16 -16 16 16 0 0 0 -16 -16z"/>
  </clipPath>
  <linearGradient id="linearGradient4636" y2="297.42" xlink:href="#linearGradient5226" gradientUnits="userSpaceOnUse" x2="184.38" y1="272.44" x1="184.38"/>
  <clipPath id="clipPath4830" clipPathUnits="userSpaceOnUse">
   <path id="path4832" d="m288 184a104 104 0 0 0 -104 104 104 104 0 0 0 104 104 104 104 0 0 0 104 -104 104 104 0 0 0 -104 -104zm-0.2793 15.955c15.536-0.0507 30.852 4.0261 44.305 11.791l-18.033 31.236 18.035-31.236c21.521 12.428 37.253 33.711 42.266 58.912 1.4964 7.3088-3.3238 9.4744-8.0469 9.3438h-20.301c-5.9712 0-6.9906-2.8506-8.0976-6.6973-3.8245-13.016-12.521-23.761-23.855-30.322-11.35-6.5356-25.003-8.6942-38.188-5.498-3.8848 0.96464-6.864 1.5071-9.8496-3.6641l-10.15-17.582c-2.4747-4.025-3.0095-9.2821 4.0684-11.641 9.1243-3.0972 18.526-4.6122 27.848-4.6426zm-52.193 19.443c2.8158 0.0624 5.0166 2.2426 6.4219 4.8398l10.15 17.582c2.9856 5.1712 1.0259 7.4793-1.752 10.361-9.3603 9.8202-14.317 22.723-14.332 35.82 0.015 13.097 4.9718 26 14.332 35.82 2.7778 2.882 4.7375 5.1902 1.752 10.361l-10.15 17.582c-2.2484 4.1557-6.5338 7.2472-12.115 2.2969-7.2444-6.3533-13.258-13.737-17.945-21.795-7.812-13.429-11.939-28.733-11.941-44.266 0.003-24.852 10.568-49.118 29.887-66.061 2.093-1.8564 4.0039-2.5804 5.6934-2.543zm110.42 76.6h20.301c4.7231-0.13064 9.5433 2.0349 8.0469 9.3438-1.8799 9.4505-5.2678 18.349-9.9024 26.438-7.7242 13.48-18.912 24.707-32.363 32.475l-18.035-31.236 18.033 31.236c-21.524 12.424-47.821 15.408-72.152 7.1484-7.0778-2.3585-6.543-7.6156-4.0684-11.641l10.15-17.582c2.9856-5.1712 5.9648-4.6287 9.8496-3.6641 13.185 3.1961 26.838 1.0375 38.188-5.498 11.335-6.5614 20.031-17.306 23.855-30.322 1.107-3.8467 2.1265-6.6973 8.0976-6.6973z" style="opacity:.2;color:#000000;enable-background:accumulate;fill:#d11f47"/>
  </clipPath>
  <linearGradient id="linearGradient4840" y2="355.07" xlink:href="#linearGradient5226" gradientUnits="userSpaceOnUse" x2="293.05" y1="187.14" x1="293.05"/>
  <filter id="filter4846" style="color-interpolation-filters:sRGB" height="1.024" width="1.024" y="-.012" x="-.012">
   <feGaussianBlur id="feGaussianBlur4848" stdDeviation="1.0400197"/>
  </filter>
  <filter id="filter4858" style="color-interpolation-filters:sRGB" height="1.168" width="1.168" y="-0.084" x="-0.084">
   <feGaussianBlur id="feGaussianBlur4860" stdDeviation="1.12"/>
  </filter>
  <filter id="filter4870" style="color-interpolation-filters:sRGB" height="1.168" width="1.168" y="-0.084" x="-0.084">
   <feGaussianBlur id="feGaussianBlur4872" stdDeviation="1.12"/>
  </filter>
  <filter id="filter4882" style="color-interpolation-filters:sRGB" height="1.168" width="1.168" y="-0.084" x="-0.084">
   <feGaussianBlur id="feGaussianBlur4884" stdDeviation="1.12"/>
  </filter>
  <linearGradient id="linearGradient4928" y2="288" xlink:href="#linearGradient5226" gradientUnits="userSpaceOnUse" x2="192" y1="312" x1="192"/>
  <linearGradient id="linearGradient4936" y2="-404.26" xlink:href="#linearGradient5226" gradientUnits="userSpaceOnUse" x2="-3.7996" y1="-416.84" x1="17.99"/>
  <linearGradient id="linearGradient4944" y2="96.056" xlink:href="#linearGradient5226" gradientUnits="userSpaceOnUse" x2="-489.63" y1="84.056" x1="-510.41"/>
  <clipPath id="clipPath5047" clipPathUnits="userSpaceOnUse">
   <path id="path5049" style="opacity:.2;color:#000000;enable-background:accumulate;fill:#d11f47" d="m288 184a104 104 0 0 0 -104 104 104 104 0 0 0 104 104 104 104 0 0 0 104 -104 104 104 0 0 0 -104 -104zm-0.2793 15.955c15.536-0.0507 30.852 4.0261 44.305 11.791l-18.033 31.236 18.035-31.236c21.521 12.428 37.253 33.711 42.266 58.912 1.4964 7.3088-3.3238 9.4744-8.0469 9.3438h-20.301c-5.9712 0-6.9906-2.8506-8.0976-6.6973-3.8245-13.016-12.521-23.761-23.855-30.322-11.35-6.5356-25.003-8.6942-38.188-5.498-3.8848 0.96464-6.864 1.5071-9.8496-3.6641l-10.15-17.582c-2.4747-4.025-3.0095-9.2821 4.0684-11.641 9.1243-3.0972 18.526-4.6122 27.848-4.6426zm-52.193 19.443c2.8158 0.0624 5.0166 2.2426 6.4219 4.8398l10.15 17.582c2.9856 5.1712 1.0259 7.4793-1.752 10.361-9.3603 9.8202-14.317 22.723-14.332 35.82 0.015 13.097 4.9718 26 14.332 35.82 2.7778 2.882 4.7375 5.1902 1.752 10.361l-10.15 17.582c-2.2484 4.1557-6.5338 7.2472-12.115 2.2969-7.2444-6.3533-13.258-13.737-17.945-21.795-7.812-13.429-11.939-28.733-11.941-44.266 0.003-24.852 10.568-49.118 29.887-66.061 2.093-1.8564 4.0039-2.5804 5.6934-2.543zm110.42 76.6h20.301c4.7231-0.13064 9.5433 2.0349 8.0469 9.3438-1.8799 9.4505-5.2678 18.349-9.9024 26.438-7.7242 13.48-18.912 24.707-32.363 32.475l-18.035-31.236 18.033 31.236c-21.524 12.424-47.821 15.408-72.152 7.1484-7.0778-2.3585-6.543-7.6156-4.0684-11.641l10.15-17.582c2.9856-5.1712 5.9648-4.6287 9.8496-3.6641 13.185 3.1961 26.838 1.0375 38.188-5.498 11.335-6.5614 20.031-17.306 23.855-30.322 1.107-3.8467 2.1265-6.6973 8.0976-6.6973z"/>
  </clipPath>
  <filter id="filter5051" style="color-interpolation-filters:sRGB" height="1.0227" width="1.0254" y="-.011365" x="-.012710">
   <feGaussianBlur id="feGaussianBlur5053" stdDeviation="1.0803332"/>
  </filter>
  <linearGradient id="linearGradient5066" y2="387.59" gradientUnits="userSpaceOnUse" x2="318" y1="199.95" x1="287.72">
   <stop id="stop5062" style="stop-color:#adadad" offset="0"/>
   <stop id="stop5064" style="stop-color:#b9b9b9" offset="1"/>
  </linearGradient>
  <linearGradient id="linearGradient5070" y2="194.21" xlink:href="#linearGradient4515" gradientUnits="userSpaceOnUse" x2="243.09" y1="357.55" x1="327.55"/>
  <linearGradient id="linearGradient5115" y2="304" gradientUnits="userSpaceOnUse" x2="304" gradientTransform="translate(0,-576)" y1="304.9" x1="272">
   <stop id="stop5111" style="stop-color:#f8f8f8" offset="0"/>
   <stop id="stop5113" style="stop-color:#c5c5c5" offset="1"/>
  </linearGradient>
  <filter id="filter5181" style="color-interpolation-filters:sRGB" height="1.24" width="1.24" y="-.12" x="-.12">
   <feGaussianBlur id="feGaussianBlur5183" stdDeviation="1.5999999"/>
  </filter>
  <clipPath id="clipPath5222" clipPathUnits="userSpaceOnUse">
   <circle id="circle5224" r="184" style="opacity:.2;color:#000000;enable-background:accumulate;fill:#df382c" cx="288" cy="288"/>
  </clipPath>
  <linearGradient id="linearGradient5232" y2="288" xlink:href="#linearGradient5226" gradientUnits="userSpaceOnUse" x2="602" y1="288" x1="104"/>
  <linearGradient id="linearGradient5234" y2="288" xlink:href="#linearGradient5226" gradientUnits="userSpaceOnUse" x2="564.6" y1="288" x1="104"/>
  <filter id="filter5264" style="color-interpolation-filters:sRGB" height="1.192" width="1.192" y="-0.096" x="-0.096">
   <feGaussianBlur id="feGaussianBlur5266" stdDeviation="14.72"/>
  </filter>
  <filter id="filter4314" style="color-interpolation-filters:sRGB" height="1.144" width="1.144" y="-0.072" x="-0.072">
   <feGaussianBlur id="feGaussianBlur4316" stdDeviation="8.9561581"/>
  </filter>
 </defs>
 <metadata id="metadata3341">
  <rdf:RDF>
   <cc:Work rdf:about="">
    <dc:format>image/svg+xml</dc:format>
    <dc:type rdf:resource="http://purl.org/dc/dcmitype/StillImage"/>
    <dc:title/>
   </cc:Work>
  </rdf:RDF>
 </metadata>
 <g id="layer1" transform="translate(-32,-32)">
  <circle id="path4238" r="208" style="color:#000000;enable-background:accumulate;fill:#666" cx="288" cy="288"/>
 </g>
 <g id="layer5" transform="translate(-32,-32)">
  <path id="path4534" style="opacity:.6;color:#000000;filter:url(#filter4314);enable-background:accumulate" d="m288 148.74c-10.73-0.12-14.49 0.28-16 13.26l-0.57422 4.5879c-1.325 8.4184-1.58 12.23-9.5449 14.293-0.53373 0.1193-1.0666 0.24076-1.5977 0.36719-0.12553 0.0259-0.23448 0.0547-0.36328 0.0801l0.0156 0.004c-2.0109 0.48512-4.0021 1.0239-5.9727 1.6094l0.0195-0.0215c-0.32912 0.11246-0.62777 0.19952-0.93945 0.29688-0.29825 0.0912-0.59726 0.17993-0.89453 0.27343-8.0038 2.2452-10.123-0.93069-15.5-7.584l-2.793-3.6856c-3.8989-5.2431-6.7094-7.4815-9.7012-7.7246-0.37397-0.0304-0.75071-0.03-1.1328 0-2.6747 0.20988-5.6092 1.8507-9.6504 4.2441-9.3564 5.2641-12.409 7.4844-7.2266 19.48l1.7949 4.2598c3.2966 8.5632 5.0112 11.877-2.5938 18.52l0.20313-0.0449c-1.5718 1.4899-3.1039 3.0219-4.5938 4.5938l0.03-0.2c-6.6423 7.6049-9.9564 5.8904-18.52 2.5938l-4.2598-1.7949c-3.7488-1.6195-6.5428-2.4361-8.7734-2.5059-4.9073-0.15351-7.088 3.2999-10.707 9.7324-5.4708 9.237-7.0057 12.687 3.4805 20.484l3.6856 2.793c6.6533 5.377 9.8292 7.4962 7.584 15.5-0.0935 0.29727-0.18219 0.59628-0.27343 0.89453-0.0974 0.31168-0.18442 0.61033-0.29688 0.93945l0.0215-0.0195c-0.58546 1.9705-1.1243 3.9618-1.6094 5.9727l-0.004-0.0156c-0.0253 0.1288-0.0541 0.23775-0.0801 0.36328-0.12643 0.53107-0.24789 1.0639-0.36719 1.5977-2.0628 7.9649-5.8745 8.2199-14.293 9.5449l-4.59 0.58c-12.98 1.51-13.375 5.2651-13.256 16-0.11937 10.735 0.27575 14.49 13.256 16l4.5879 0.57422c8.4184 1.325 12.23 1.58 14.293 9.5449 0.1193 0.53373 0.24076 1.0666 0.36719 1.5977 0.0259 0.12553 0.0547 0.23448 0.0801 0.36328l0.004-0.0156c0.48512 2.0109 1.0239 4.0021 1.6094 5.9727l-0.0215-0.0195c0.11246 0.32912 0.19952 0.62777 0.29688 0.93945 0.0912 0.29825 0.17993 0.59726 0.27343 0.89453 2.2452 8.0038-0.93069 10.123-7.584 15.5l-3.6856 2.793c-10.486 7.7977-8.9513 11.247-3.4805 20.484 5.2641 9.3564 7.4844 12.409 19.48 7.2266l4.2598-1.7949c8.5632-3.2966 11.877-5.0112 18.52 2.5938l-0.0449-0.20313c1.4899 1.5718 3.0219 3.1039 4.5938 4.5938l-0.2-0.03c7.6049 6.6423 5.8904 9.9564 2.5938 18.52l-1.7949 4.2598c-5.1824 11.996-2.1298 14.216 7.2266 19.48 9.237 5.4708 12.687 7.0057 20.484-3.4805l2.793-3.6856c5.3771-6.6533 7.4962-9.8292 15.5-7.584 0.29727 0.0935 0.59628 0.18219 0.89453 0.27343 0.31168 0.0974 0.61033 0.18442 0.93945 0.29688l-0.0195-0.0215c1.9705 0.58546 3.9618 1.1243 5.9727 1.6094l-0.0156 0.004c0.1288 0.0253 0.23775 0.0541 0.36328 0.0801 0.53107 0.12643 1.0639 0.24789 1.5977 0.36719 7.9649 2.0628 8.2199 5.8745 9.5449 14.293l0.58 4.59c1.51 12.98 5.2651 13.375 16 13.256 10.735 0.11937 14.49-0.27576 16-13.256l0.57422-4.5879c1.325-8.4184 1.58-12.23 9.5449-14.293 0.53373-0.1193 1.0666-0.24076 1.5977-0.36719 0.12553-0.026 0.23448-0.0547 0.36328-0.0801l-0.0156-0.004c2.0109-0.48512 4.0021-1.0239 5.9727-1.6094l-0.0195 0.0215c0.32912-0.11246 0.62777-0.19952 0.93945-0.29688 0.29825-0.0912 0.59726-0.17993 0.89453-0.27343 8.0038-2.2452 10.123 0.93069 15.5 7.584l2.793 3.6856c7.7977 10.486 11.247 8.9513 20.484 3.4805 9.3564-5.2641 12.409-7.4844 7.2266-19.48l-1.7949-4.2598c-3.29-8.56-5-11.88 2.6-18.52l-0.20313 0.0449c1.5718-1.4899 3.1039-3.0219 4.5938-4.5938l-0.04 0.2c6.6423-7.6049 9.9564-5.8904 18.52-2.5938l4.2598 1.7949c11.996 5.1824 14.216 2.1298 19.48-7.2266 5.4708-9.237 7.0057-12.687-3.4805-20.484l-3.6856-2.793c-6.6533-5.377-9.8292-7.4962-7.584-15.5 0.0935-0.29727 0.18219-0.59628 0.27343-0.89453 0.0974-0.31168 0.18442-0.61033 0.29688-0.93945l-0.0215 0.0195c0.58546-1.9705 1.1243-3.9618 1.6094-5.9727l0.004 0.0156c0.0253-0.1288 0.0541-0.23775 0.0801-0.36328 0.12643-0.53107 0.24789-1.0639 0.36719-1.5977 2.0628-7.9649 5.8745-8.2199 14.293-9.5449l4.59-0.58c12.98-1.51 13.375-5.2651 13.256-16 0.12-10.73-0.28-14.49-13.26-16l-4.5879-0.57422c-8.4184-1.325-12.23-1.58-14.293-9.5449-0.1193-0.53373-0.24076-1.0666-0.36719-1.5977-0.026-0.12553-0.0547-0.23448-0.0801-0.36328l-0.004 0.0156c-0.48512-2.0109-1.0239-4.0021-1.6094-5.9727l0.0215 0.0195c-0.11246-0.32912-0.19952-0.62777-0.29688-0.93945-0.0912-0.29825-0.17993-0.59726-0.27343-0.89453-2.2452-8.0038 0.93069-10.123 7.584-15.5l3.6856-2.793c10.486-7.7977 8.9513-11.247 3.4805-20.484-3.619-6.4325-5.7997-9.8859-10.707-9.7324-2.2306 0.0698-5.0247 0.88636-8.7734 2.5059l-4.2598 1.7949c-8.56 3.29-11.88 5-18.52-2.6l0.0449 0.20313c-1.4899-1.5718-3.0219-3.1039-4.5938-4.5938l0.2 0.04c-7.6049-6.6423-5.8904-9.9564-2.5938-18.52l1.7949-4.2598c5.1824-11.996 2.1298-14.216-7.2266-19.48-4.6185-2.7354-7.7915-4.4872-10.783-4.2441-2.9917 0.24307-5.8023 2.4816-9.7012 7.7246l-2.793 3.6856c-5.3771 6.6533-7.4962 9.8292-15.5 7.584-0.29727-0.0935-0.59628-0.18219-0.89453-0.27343-0.31168-0.0974-0.61033-0.18442-0.93945-0.29688l0.0195 0.0215c-1.9705-0.58546-3.9618-1.1243-5.9727-1.6094l0.0156-0.004c-0.1288-0.0253-0.23775-0.0541-0.36328-0.0801-0.53107-0.12643-1.0639-0.24789-1.5977-0.36719-7.9649-2.0628-8.2199-5.8745-9.5449-14.293l-0.58-4.59c-1.51-12.98-5.2651-13.375-16-13.256zm-0.2793 61.209c-1.2281 0.004-2.4575 0.0365-3.6875 0.0938 1.2302-0.0558 2.4593-0.0897 3.6875-0.0938zm2.5996 0.0352c0.32908 0.009 0.65755 0.0228 0.98633 0.0352-0.32875-0.0125-0.65727-0.0264-0.98633-0.0352zm-2.32 0.01c6.0988 0 12.048 0.61187 17.789 1.7793-0.6943-0.14326-1.3901-0.27561-2.0879-0.40235 0.69773 0.1265 1.3936 0.25911 2.0879 0.40235 3.8156 0.78727 7.575 1.8268 11.254 3.1113a24 24 0 0 0 10.96 13.83 24 24 0 0 0 17.428 2.541c14.566 12.54 24.963 29.78 28.865 49.396 1.4964 7.3088-3.3238 9.4744-8.0469 9.3438h-20.301c-5.9712 0-6.9906-2.8506-8.0976-6.6973-3.8245-13.016-12.521-23.761-23.855-30.322-11.35-6.5356-25.003-8.6942-38.188-5.498-3.8848 0.96464-6.864 1.5071-9.8496-3.6641l-10.15-17.582c-2.4747-4.025-3.0095-9.2821 4.0684-11.641 4.2267-1.4347 8.514-2.5139 12.824-3.2793 2.4691-0.43846 4.9456-0.77423 7.4238-0.99805-2.4781 0.22778-4.9545 0.55955-7.4238 0.99805 4.96-0.87 10.08-1.32 15.3-1.32zm-4.459 0.0781c-1.1045 0.0577-2.2098 0.12833-3.3145 0.22852 1.1048-0.0984 2.2098-0.17221 3.3145-0.22852zm9.3965 0.0215c0.3707 0.0208 0.74111 0.0428 1.1113 0.0684-0.36991-0.0258-0.74093-0.0473-1.1113-0.0684zm2.5898 0.18555c0.41619 0.0358 0.83262 0.0697 1.248 0.11132-0.41566-0.042-0.83163-0.0752-1.248-0.11132zm1.8926 0.18359c1.1519 0.12408 2.3005 0.27219 3.4453 0.44141-1.1444-0.1699-2.294-0.31645-3.4453-0.44141zm4.0332 0.52734c0.65403 0.10118 1.3057 0.2123 1.957 0.32813-0.65106-0.11603-1.3033-0.22659-1.957-0.32813zm-65.926 18.4c2.8158 0.0624 5.0166 2.2426 6.4219 4.8398l10.15 17.582c2.9856 5.1712 1.0259 7.4793-1.752 10.361-9.3603 9.8202-14.317 22.723-14.332 35.82 0.015 13.097 4.9718 26 14.332 35.82 2.7778 2.882 4.7375 5.1902 1.752 10.361l-10.15 17.582c-2.2484 4.1557-6.5338 7.2472-12.115 2.2969-7.2444-6.3533-13.258-13.737-17.945-21.795-3.8802-6.6704-6.8493-13.804-8.8574-21.197-0.0274-0.10091-0.055-0.20173-0.082-0.30274-0.17141-0.64008-0.32937-1.2839-0.48633-1.9277-0.00015-0.00062 0.00015-0.001 0-0.002-0.17592-0.72168-0.34038-1.4459-0.49805-2.1719 0.15609 0.72635 0.32214 1.4502 0.49805 2.1719-0.3538-1.4704-0.66542-2.9584-0.94531-4.457a24 24 0 0 0 6.49 -16.38 24 24 0 0 0 -6.49 -16.37c0.21176-1.1362 0.43691-2.2667 0.69141-3.3867-0.25819 1.1204-0.48651 2.2469-0.70117 3.377a24 24 0 0 0 -0.01 -0.01c0.21387-1.1275 0.45336-2.2494 0.71094-3.3672 0.0246-0.10668 0.0473-0.21373 0.0723-0.32032 0.002-0.008 0.004-0.0169 0.006-0.0254 0.0966-0.41158 0.19635-0.8223 0.29883-1.2324 0.11678-0.46733 0.23301-0.93504 0.35742-1.4004 0.0333-0.12453 0.0677-0.24866 0.10157-0.37305 4.4376-16.311 13.561-31.353 26.793-42.957 2.093-1.8564 4.0039-2.5804 5.6934-2.543zm110.43 76.6h20.301c4.7231-0.13064 9.5433 2.0349 8.0469 9.3438-1.8799 9.4505-5.2678 18.349-9.9024 26.438-4.9773 8.6864-11.399 16.429-18.932 22.922a24 24 0 0 0 -6.0254 -0.6289 24 24 0 0 0 -11.43 3.21 24 24 0 0 0 -10.92 13.82c-2.6019 0.9099-5.2456 1.6913-7.9199 2.3535-0.37792 0.0936-0.75561 0.18877-1.1348 0.27735-0.0196 0.005-0.039 0.009-0.0586 0.0137-0.0448 0.0104-0.09 0.0189-0.13476 0.0293-0.75093 0.17365-1.5044 0.3363-2.2598 0.49024 0.75515-0.15388 1.5091-0.31665 2.2598-0.49024-6.36 1.46-13 2.23-19.83 2.23-5.9522 0-11.76-0.58788-17.373-1.7012 1.5554 0.31516 3.1144 0.58738 4.6758 0.8164 1.5614 0.22903 3.1253 0.41484 4.6895 0.5586 0.78206 0.0719 1.5636 0.13287 2.3457 0.18359 0.78212 0.0507 1.564 0.0914 2.3457 0.1211 1.5635 0.0594 3.126 0.0769 4.6856 0.0527s3.1176-0.0905 4.6699-0.19727c0.77615-0.0534 1.5505-0.11752 2.3242-0.1914 0.77371-0.0739 1.5456-0.15768 2.3164-0.25196 0.74937-0.0916 1.4979-0.19387 2.2441-0.30468-0.74628 0.11084-1.4948 0.213-2.2441 0.30468-0.77086 0.0943-1.5427 0.17802-2.3164 0.25196-0.77371 0.0739-1.5481 0.13795-2.3242 0.1914-1.5528 0.10694-3.1099 0.173-4.6699 0.19727-1.5598 0.0243-3.1219 0.007-4.6856-0.0527-0.78159-0.0296-1.5637-0.0704-2.3457-0.1211-0.7817-0.0506-1.5641-0.11182-2.3457-0.18359-1.5646-0.14368-3.1276-0.32957-4.6895-0.5586-1.5613-0.22893-3.1206-0.50128-4.6758-0.8164-0.3869-0.0784-0.77376-0.15647-1.1602-0.24024-0.18285-0.0396-0.3661-0.0763-0.54883-0.11718-0.0117-0.003-0.0235-0.005-0.0352-0.008-3.0245-0.67733-6.0318-1.5184-9.0098-2.5293-7.0778-2.3585-6.543-7.6156-4.0684-11.641l10.15-17.582c2.9856-5.1712 5.9648-4.6287 9.8496-3.6641 13.185 3.1961 26.838 1.0375 38.188-5.498 11.335-6.5614 20.031-17.306 23.855-30.322 1.107-3.8467 2.1265-6.6973 8.0976-6.6973zm-144.44 8.3906c0.13986 0.73532 0.28675 1.4694 0.44336 2.2012-0.15804-0.73068-0.30782-1.4626-0.44727-2.1973a24 24 0 0 0 0.004 -0.004zm104.05 69.883c-1.5067 0.30665-3.0209 0.57315-4.543 0.80078 1.5219-0.22755 3.0363-0.49416 4.543-0.80078z"/>
  <path id="path4451" style="color:#000000;enable-background:accumulate;fill:url(#linearGradient5066)" d="m288 182.32c-58.342 0-105.68 47.338-105.68 105.68s47.338 105.68 105.68 105.68 105.68-47.338 105.68-105.68-47.338-105.68-105.68-105.68zm-0.2793 17.633c15.536-0.0507 30.852 4.0261 44.305 11.791l-18.033 31.236 18.035-31.236c21.521 12.428 37.253 33.711 42.266 58.912 1.4964 7.3088-3.3238 9.4744-8.0469 9.3438h-20.301c-5.9712 0-6.9906-2.8506-8.0976-6.6973-3.8245-13.016-12.521-23.761-23.855-30.322-11.35-6.5356-25.003-8.6942-38.188-5.498-3.8848 0.96464-6.864 1.5071-9.8496-3.6641l-10.15-17.582c-2.4747-4.025-3.0095-9.2821 4.0684-11.641 9.1243-3.0972 18.526-4.6122 27.848-4.6426zm-52.193 19.443c2.8158 0.0624 5.0166 2.2426 6.4219 4.8398l10.15 17.582c2.9856 5.1712 1.0259 7.4793-1.752 10.361-9.3603 9.8202-14.317 22.723-14.332 35.82 0.015 13.097 4.9718 26 14.332 35.82 2.7778 2.882 4.7375 5.1902 1.752 10.361l-10.15 17.582c-2.2484 4.1557-6.5338 7.2472-12.115 2.2969-7.2444-6.3533-13.258-13.737-17.945-21.795-7.812-13.429-11.939-28.733-11.941-44.266 0.003-24.852 10.568-49.118 29.887-66.061 2.093-1.8564 4.0039-2.5804 5.6934-2.543zm110.42 76.61h20.301c4.7231-0.13064 9.5433 2.0349 8.0469 9.3438-1.8799 9.4505-5.2678 18.349-9.9024 26.438-7.7242 13.48-18.912 24.707-32.363 32.475l-18.035-31.236 18.033 31.236c-21.524 12.424-47.821 15.408-72.152 7.1484-7.0778-2.3585-6.543-7.6156-4.0684-11.641l10.15-17.582c2.9856-5.1712 5.9648-4.6287 9.8496-3.6641 13.185 3.1961 26.838 1.0375 38.188-5.498 11.335-6.5614 20.031-17.306 23.855-30.322 1.107-3.8467 2.1265-6.6973 8.0976-6.6973z"/>
  <path id="path5068" style="opacity:.6;color:#000000;enable-background:accumulate;fill:url(#linearGradient5070)" d="m288 182.32c-58.342 0-105.68 47.338-105.68 105.68s47.338 105.68 105.68 105.68 105.68-47.338 105.68-105.68-47.338-105.68-105.68-105.68zm-0.2793 17.633c15.536-0.0507 30.852 4.0261 44.305 11.791l-18.033 31.236 18.035-31.236c21.521 12.428 37.253 33.711 42.266 58.912 1.4964 7.3088-3.3238 9.4744-8.0469 9.3438h-20.301c-5.9712 0-6.9906-2.8506-8.0976-6.6973-3.8245-13.016-12.521-23.761-23.855-30.322-11.35-6.5356-25.003-8.6942-38.188-5.498-3.8848 0.96464-6.864 1.5071-9.8496-3.6641l-10.15-17.582c-2.4747-4.025-3.0095-9.2821 4.0684-11.641 9.1243-3.0972 18.526-4.6122 27.848-4.6426zm-52.193 19.443c2.8158 0.0624 5.0166 2.2426 6.4219 4.8398l10.15 17.582c2.9856 5.1712 1.0259 7.4793-1.752 10.361-9.3603 9.8202-14.317 22.723-14.332 35.82 0.015 13.097 4.9718 26 14.332 35.82 2.7778 2.882 4.7375 5.1902 1.752 10.361l-10.15 17.582c-2.2484 4.1557-6.5338 7.2472-12.115 2.2969-7.2444-6.3533-13.258-13.737-17.945-21.795-7.812-13.429-11.939-28.733-11.941-44.266 0.003-24.852 10.568-49.118 29.887-66.061 2.093-1.8564 4.0039-2.5804 5.6934-2.543zm110.42 76.61h20.301c4.7231-0.13064 9.5433 2.0349 8.0469 9.3438-1.8799 9.4505-5.2678 18.349-9.9024 26.438-7.7242 13.48-18.912 24.707-32.363 32.475l-18.035-31.236 18.033 31.236c-21.524 12.424-47.821 15.408-72.152 7.1484-7.0778-2.3585-6.543-7.6156-4.0684-11.641l10.15-17.582c2.9856-5.1712 5.9648-4.6287 9.8496-3.6641 13.185 3.1961 26.838 1.0375 38.188-5.498 11.335-6.5614 20.031-17.306 23.855-30.322 1.107-3.8467 2.1265-6.6973 8.0976-6.6973z"/>
  <g id="g4827" style="opacity:.5;filter:url(#filter4846);stroke:url(#linearGradient4840)" clip-path="url(#clipPath4830)">
   <circle id="path4750-0" cx="288" cy="288" r="104" style="opacity:1;stroke-linejoin:round;enable-background:accumulate;color:#000000;stroke:url(#linearGradient4840);stroke-width:4;fill:none"/>
  </g>
  <g id="g5041" style="opacity:.5;filter:url(#filter5051)" clip-path="url(#clipPath5047)">
   <g id="g4893" style="enable-background:new">
    <circle id="path4886" style="opacity:1;stroke-linejoin:round;stroke-width:4;color:#000000;stroke:url(#linearGradient4928);enable-background:accumulate;fill:none" cy="288" cx="184" r="24"/>
    <circle id="circle4888" style="opacity:1;stroke-linejoin:round;stroke-width:4;color:#000000;stroke:url(#linearGradient4936);enable-background:accumulate;fill:none" transform="rotate(120)" cy="-393.42" cx="1.4153" r="24"/>
    <circle id="circle4890" style="opacity:1;stroke-linejoin:round;stroke-width:4;color:#000000;stroke:url(#linearGradient4944);enable-background:accumulate;fill:none" transform="rotate(240)" cy="105.42" cx="-497.42" r="24"/>
   </g>
  </g>
  <path id="path5055" style="opacity:.3;color:#000000;enable-background:accumulate;fill:#fff" d="m254.21 212.1c-0.31093 2.0273 0.41482 4.2185 1.5918 6.1328l10.15 17.582c2.9856 5.1712 5.9648 4.6287 9.8496 3.6641 13.185-3.1961 26.838-1.0375 38.188 5.498 11.335 6.5614 20.031 17.306 23.855 30.322 1.107 3.8467 2.1265 6.6973 8.0976 6.6973h20.301c4.3729 0.12094 8.8204-1.7353 8.2695-7.8106-0.50116 4.4938-4.4171 5.9171-8.2695 5.8106h-20.301c-5.9712 0-6.9906-2.8506-8.0976-6.6973-3.727-12.685-12.088-23.2-23.002-29.801-0.28532-0.17257-0.56473-0.35431-0.85351-0.52148-11.35-6.5356-25.003-8.6942-38.188-5.498-3.8848 0.96464-6.864 1.5071-9.8496-3.6641l-10.15-17.582c-0.79686-1.2961-1.3866-2.7192-1.5918-4.1328zm59.779 30.877 17.16-29.721c-0.00077-0.00044-0.001-0.002-0.002-0.002zm-60.494 4.3828c-0.34382 1.8138-1.6202 3.2288-3.1504 4.8164-9.3603 9.8202-14.317 22.723-14.332 35.82 0.00039 0.33369 0.0186 0.66661 0.0254 1 0.25967-12.752 5.1849-25.25 14.307-34.82 2.047-2.1238 3.6435-3.9405 3.1504-6.8164zm-53.535 41.525c-0.005 0.37045-0.0156 0.7406-0.0156 1.1113 0.002 15.533 4.1294 30.836 11.941 44.266 4.6872 8.0576 10.701 15.442 17.945 21.795 5.5814 4.9503 9.8668 1.8588 12.115-2.2969l10.15-17.582c1.341-2.3226 1.6788-4.066 1.3984-5.5449-0.17605 1.0267-0.61298 2.1845-1.3984 3.5449l-10.15 17.582c-2.2484 4.1557-6.5338 7.2472-12.115 2.2969-7.2444-6.3533-13.258-13.737-17.945-21.795-7.6629-13.173-11.77-28.15-11.926-43.377zm174.55 14.922c-0.0441 0.48652-0.1117 0.99129-0.22265 1.5332-1.8799 9.4505-5.2678 18.349-9.9024 26.438-7.7242 13.48-18.912 24.707-32.363 32.475l-17.182-29.758 17.18 29.758c-0.28857 0.16656-0.58083 0.32512-0.87109 0.48828l0.87304 1.5117c13.451-7.7678 24.639-18.995 32.363-32.475 4.6345-8.088 8.0224-16.987 9.9024-26.438 0.27584-1.3473 0.33592-2.5176 0.22265-3.5332zm-43.363 60.934c-21.36 12.007-47.275 14.808-71.279 6.6602-3.7116-1.2368-5.3173-3.2725-5.6602-5.5078-0.43201 2.9765 0.86141 5.9088 5.6602 7.5078 24.332 8.2592 50.628 5.2754 72.152-7.1484z"/>
  <path id="path4356" style="color:#000000;enable-background:accumulate;fill:url(#linearGradient4511)" d="m288 138.74c-10.73-0.12-14.49 0.28-16 13.26l-0.57422 4.5879c-1.325 8.4184-1.58 12.23-9.5449 14.293-0.53373 0.1193-1.0666 0.24076-1.5977 0.36719-0.12553 0.0259-0.23448 0.0547-0.36328 0.0801l0.0156 0.004c-2.0109 0.48512-4.0021 1.0239-5.9727 1.6094l0.0195-0.0215c-0.32912 0.11246-0.62777 0.19952-0.93945 0.29688-0.29825 0.0912-0.59726 0.17993-0.89453 0.27343-8.0038 2.2452-10.123-0.93069-15.5-7.584l-2.793-3.6856c-3.8989-5.2431-6.7094-7.4815-9.7012-7.7246-0.37397-0.0304-0.75071-0.03-1.1328 0-2.6747 0.20988-5.6092 1.8507-9.6504 4.2441-9.3564 5.2641-12.409 7.4844-7.2266 19.48l1.7949 4.2598c3.2966 8.5632 5.0112 11.877-2.5938 18.52l0.20313-0.0449c-1.5718 1.4899-3.1039 3.0219-4.5938 4.5938l0.03-0.2c-6.6423 7.6049-9.9564 5.8904-18.52 2.5938l-4.2598-1.7949c-3.7488-1.6195-6.5428-2.4361-8.7734-2.5059-4.9073-0.15351-7.088 3.2999-10.707 9.7324-5.4708 9.237-7.0057 12.687 3.4805 20.484l3.6856 2.793c6.6533 5.377 9.8292 7.4962 7.584 15.5-0.0935 0.29727-0.18219 0.59628-0.27343 0.89453-0.0974 0.31168-0.18442 0.61033-0.29688 0.93945l0.0215-0.0195c-0.58546 1.9705-1.1243 3.9618-1.6094 5.9727l-0.004-0.0156c-0.0253 0.1288-0.0541 0.23775-0.0801 0.36328-0.12643 0.53107-0.24789 1.0639-0.36719 1.5977-2.0628 7.9649-5.8745 8.2199-14.293 9.5449l-4.59 0.58c-12.98 1.51-13.375 5.2651-13.256 16-0.11937 10.735 0.27575 14.49 13.256 16l4.5879 0.57422c8.4184 1.325 12.23 1.58 14.293 9.5449 0.1193 0.53373 0.24076 1.0666 0.36719 1.5977 0.0259 0.12553 0.0547 0.23448 0.0801 0.36328l0.004-0.0156c0.48512 2.0109 1.0239 4.0021 1.6094 5.9727l-0.0215-0.0195c0.11246 0.32912 0.19952 0.62777 0.29688 0.93945 0.0912 0.29825 0.17993 0.59726 0.27343 0.89453 2.2452 8.0038-0.93069 10.123-7.584 15.5l-3.6856 2.793c-10.486 7.7977-8.9513 11.247-3.4805 20.484 5.2641 9.3564 7.4844 12.409 19.48 7.2266l4.2598-1.7949c8.5632-3.2966 11.877-5.0112 18.52 2.5938l-0.0449-0.20313c1.4899 1.5718 3.0219 3.1039 4.5938 4.5938l-0.2-0.03c7.6049 6.6423 5.8904 9.9564 2.5938 18.52l-1.7949 4.2598c-5.1824 11.996-2.1298 14.216 7.2266 19.48 9.237 5.4708 12.687 7.0057 20.484-3.4805l2.793-3.6856c5.3771-6.6533 7.4962-9.8292 15.5-7.584 0.29727 0.0935 0.59628 0.18219 0.89453 0.27343 0.31168 0.0974 0.61033 0.18442 0.93945 0.29688l-0.0195-0.0215c1.9705 0.58546 3.9618 1.1243 5.9727 1.6094l-0.0156 0.004c0.1288 0.0253 0.23775 0.0541 0.36328 0.0801 0.53107 0.12643 1.0639 0.24789 1.5977 0.36719 7.9649 2.0628 8.2199 5.8745 9.5449 14.293l0.58 4.59c1.51 12.98 5.2651 13.375 16 13.256 10.735 0.11937 14.49-0.27576 16-13.256l0.57422-4.5879c1.325-8.4184 1.58-12.23 9.5449-14.293 0.53373-0.1193 1.0666-0.24076 1.5977-0.36719 0.12553-0.026 0.23448-0.0547 0.36328-0.0801l-0.0156-0.004c2.0109-0.48512 4.0021-1.0239 5.9727-1.6094l-0.0195 0.0215c0.32912-0.11246 0.62777-0.19952 0.93945-0.29688 0.29825-0.0912 0.59726-0.17993 0.89453-0.27343 8.0038-2.2452 10.123 0.93069 15.5 7.584l2.793 3.6856c7.7977 10.486 11.247 8.9513 20.484 3.4805 9.3564-5.2641 12.409-7.4844 7.2266-19.48l-1.7949-4.2598c-3.29-8.56-5-11.88 2.6-18.52l-0.20313 0.0449c1.5718-1.4899 3.1039-3.0219 4.5938-4.5938l-0.04 0.2c6.6423-7.6049 9.9564-5.8904 18.52-2.5938l4.2598 1.7949c11.996 5.1824 14.216 2.1298 19.48-7.2266 5.4708-9.237 7.0057-12.687-3.4805-20.484l-3.6856-2.793c-6.6533-5.377-9.8292-7.4962-7.584-15.5 0.0935-0.29727 0.18219-0.59628 0.27343-0.89453 0.0974-0.31168 0.18442-0.61033 0.29688-0.93945l-0.0215 0.0195c0.58546-1.9705 1.1243-3.9618 1.6094-5.9727l0.004 0.0156c0.0253-0.1288 0.0541-0.23775 0.0801-0.36328 0.12643-0.53107 0.24789-1.0639 0.36719-1.5977 2.0628-7.9649 5.8745-8.2199 14.293-9.5449l4.59-0.58c12.98-1.51 13.375-5.2651 13.256-16 0.12-10.73-0.28-14.49-13.26-16l-4.5879-0.57422c-8.4184-1.325-12.23-1.58-14.293-9.5449-0.1193-0.53373-0.24076-1.0666-0.36719-1.5977-0.026-0.12553-0.0547-0.23448-0.0801-0.36328l-0.004 0.0156c-0.48512-2.0109-1.0239-4.0021-1.6094-5.9727l0.0215 0.0195c-0.11246-0.32912-0.19952-0.62777-0.29688-0.93945-0.0912-0.29825-0.17993-0.59726-0.27343-0.89453-2.2452-8.0038 0.93069-10.123 7.584-15.5l3.6856-2.793c10.486-7.7977 8.9513-11.247 3.4805-20.484-3.619-6.4325-5.7997-9.8859-10.707-9.7324-2.2306 0.0698-5.0247 0.88636-8.7734 2.5059l-4.2598 1.7949c-8.56 3.29-11.88 5-18.52-2.6l0.0449 0.20313c-1.4899-1.5718-3.0219-3.1039-4.5938-4.5938l0.2 0.04c-7.6049-6.6423-5.8904-9.9564-2.5938-18.52l1.7949-4.2598c5.1824-11.996 2.1298-14.216-7.2266-19.48-4.6185-2.7354-7.7915-4.4872-10.783-4.2441-2.9917 0.24307-5.8023 2.4816-9.7012 7.7246l-2.793 3.6856c-5.3771 6.6533-7.4962 9.8292-15.5 7.584-0.29727-0.0935-0.59628-0.18219-0.89453-0.27343-0.31168-0.0974-0.61033-0.18442-0.93945-0.29688l0.0195 0.0215c-1.9705-0.58546-3.9618-1.1243-5.9727-1.6094l0.0156-0.004c-0.1288-0.0253-0.23775-0.0541-0.36328-0.0801-0.53107-0.12643-1.0639-0.24789-1.5977-0.36719-7.9649-2.0628-8.2199-5.8745-9.5449-14.293l-0.58-4.59c-1.51-12.98-5.2651-13.375-16-13.256zm0 45.26c10.421 0 20.487 1.5442 29.986 4.4102a24 24 0 0 0 10.01 30.31 24 24 0 0 0 31.21 -6.44c18.35 17.26 30.45 41.11 32.49 67.72h0.30469v8 8h-0.30469c-2.034 26.611-14.132 50.449-32.48 67.717a24 24 0 0 0 -19.79 -9.65 24 24 0 0 0 -11.43 3.21 24 24 0 0 0 -10 30.31c-9.5 2.86-19.57 4.41-30 4.41-16.076 0-31.311-3.6678-44.914-10.209l-0.15821 0.27539-6.9277-4-6.9277-4 0.17578-0.30274c-21.01-14.43-36.47-36.38-42.48-61.94a24 24 0 0 0 14.74 -7.4336c0.28344 1.4902 0.59791 2.9742 0.95703 4.4473-0.35398-1.471-0.6653-2.9597-0.94531-4.459a24 24 0 0 0 6.48 -16.38 24 24 0 0 0 -6.49 -16.37c0.21176-1.1362 0.43691-2.2667 0.69141-3.3867-0.25819 1.1204-0.48651 2.2469-0.70117 3.377a24 24 0 0 0 -14.74 -7.4356c6.0125-25.557 21.471-47.512 42.484-61.953l-0.17578-0.30274 6.9277-4 6.9277-4 0.15821 0.27539c13.61-6.53 28.84-10.2 44.92-10.2zm-0.2793 15.953c-5.0036 0.0163-10.029 0.47639-15.023 1.3633 4.96-0.86 10.08-1.31 15.3-1.31 6.0988 0 12.048 0.61187 17.789 1.7793-5.9237-1.2222-11.978-1.846-18.068-1.8262zm-84.68 64.943c-0.0338 0.12439-0.0683 0.24852-0.10157 0.37305 0.033-0.1247 0.0681-0.24856 0.10157-0.37305zm-0.45899 1.7734c-0.10459 0.41855-0.20624 0.83775-0.30469 1.2578 0.0973-0.42105 0.20138-0.83913 0.30469-1.2578zm0.36719 44.096c0.0271 0.10101 0.0546 0.20183 0.082 0.30274-0.0271-0.101-0.0553-0.20159-0.082-0.30274zm106.21 62.691c-0.39767 0.0973-0.79354 0.1991-1.1934 0.29102 0.39875-0.0929 0.79597-0.19262 1.1934-0.29102zm-1.3203 0.31836c-6.37 1.46-13.01 2.23-19.84 2.23-5.9522 0-11.76-0.58788-17.373-1.7012 12.443 2.5213 25.132 2.2721 37.217-0.52344zm-38.961 0.1582c0.19441 0.0435 0.38944 0.0828 0.58399 0.125-0.19471-0.0413-0.38976-0.0824-0.58399-0.125z"/>
  <path id="path4513" style="opacity:.6;color:#000000;enable-background:accumulate;fill:url(#linearGradient4521)" d="m288 138.74c-10.73-0.12-14.49 0.28-16 13.26l-0.57422 4.5879c-1.325 8.4184-1.58 12.23-9.5449 14.293-0.53373 0.1193-1.0666 0.24076-1.5977 0.36719-0.12553 0.0259-0.23448 0.0547-0.36328 0.0801l0.0156 0.004c-2.0109 0.48512-4.0021 1.0239-5.9727 1.6094l0.0195-0.0215c-0.32912 0.11246-0.62777 0.19952-0.93945 0.29688-0.29825 0.0912-0.59726 0.17993-0.89453 0.27343-8.0038 2.2452-10.123-0.93069-15.5-7.584l-2.793-3.6856c-3.8989-5.2431-6.7094-7.4815-9.7012-7.7246-0.37397-0.0304-0.75071-0.03-1.1328 0-2.6747 0.20988-5.6092 1.8507-9.6504 4.2441-9.3564 5.2641-12.409 7.4844-7.2266 19.48l1.7949 4.2598c3.2966 8.5632 5.0112 11.877-2.5938 18.52l0.20313-0.0449c-1.5718 1.4899-3.1039 3.0219-4.5938 4.5938l0.03-0.2c-6.6423 7.6049-9.9564 5.8904-18.52 2.5938l-4.2598-1.7949c-3.7488-1.6195-6.5428-2.4361-8.7734-2.5059-4.9073-0.15351-7.088 3.2999-10.707 9.7324-5.4708 9.237-7.0057 12.687 3.4805 20.484l3.6856 2.793c6.6533 5.377 9.8292 7.4962 7.584 15.5-0.0935 0.29727-0.18219 0.59628-0.27343 0.89453-0.0974 0.31168-0.18442 0.61033-0.29688 0.93945l0.0215-0.0195c-0.58546 1.9705-1.1243 3.9618-1.6094 5.9727l-0.004-0.0156c-0.0253 0.1288-0.0541 0.23775-0.0801 0.36328-0.12643 0.53107-0.24789 1.0639-0.36719 1.5977-2.0628 7.9649-5.8745 8.2199-14.293 9.5449l-4.59 0.58c-12.98 1.51-13.375 5.2651-13.256 16-0.11937 10.735 0.27575 14.49 13.256 16l4.5879 0.57422c8.4184 1.325 12.23 1.58 14.293 9.5449 0.1193 0.53373 0.24076 1.0666 0.36719 1.5977 0.0259 0.12553 0.0547 0.23448 0.0801 0.36328l0.004-0.0156c0.48512 2.0109 1.0239 4.0021 1.6094 5.9727l-0.0215-0.0195c0.11246 0.32912 0.19952 0.62777 0.29688 0.93945 0.0912 0.29825 0.17993 0.59726 0.27343 0.89453 2.2452 8.0038-0.93069 10.123-7.584 15.5l-3.6856 2.793c-10.486 7.7977-8.9513 11.247-3.4805 20.484 5.2641 9.3564 7.4844 12.409 19.48 7.2266l4.2598-1.7949c8.5632-3.2966 11.877-5.0112 18.52 2.5938l-0.0449-0.20313c1.4899 1.5718 3.0219 3.1039 4.5938 4.5938l-0.2-0.03c7.6049 6.6423 5.8904 9.9564 2.5938 18.52l-1.7949 4.2598c-5.1824 11.996-2.1298 14.216 7.2266 19.48 9.237 5.4708 12.687 7.0057 20.484-3.4805l2.793-3.6856c5.3771-6.6533 7.4962-9.8292 15.5-7.584 0.29727 0.0935 0.59628 0.18219 0.89453 0.27343 0.31168 0.0974 0.61033 0.18442 0.93945 0.29688l-0.0195-0.0215c1.9705 0.58546 3.9618 1.1243 5.9727 1.6094l-0.0156 0.004c0.1288 0.0253 0.23775 0.0541 0.36328 0.0801 0.53107 0.12643 1.0639 0.24789 1.5977 0.36719 7.9649 2.0628 8.2199 5.8745 9.5449 14.293l0.58 4.59c1.51 12.98 5.2651 13.375 16 13.256 10.735 0.11937 14.49-0.27576 16-13.256l0.57422-4.5879c1.325-8.4184 1.58-12.23 9.5449-14.293 0.53373-0.1193 1.0666-0.24076 1.5977-0.36719 0.12553-0.026 0.23448-0.0547 0.36328-0.0801l-0.0156-0.004c2.0109-0.48512 4.0021-1.0239 5.9727-1.6094l-0.0195 0.0215c0.32912-0.11246 0.62777-0.19952 0.93945-0.29688 0.29825-0.0912 0.59726-0.17993 0.89453-0.27343 8.0038-2.2452 10.123 0.93069 15.5 7.584l2.793 3.6856c7.7977 10.486 11.247 8.9513 20.484 3.4805 9.3564-5.2641 12.409-7.4844 7.2266-19.48l-1.7949-4.2598c-3.29-8.56-5-11.88 2.6-18.52l-0.20313 0.0449c1.5718-1.4899 3.1039-3.0219 4.5938-4.5938l-0.04 0.2c6.6423-7.6049 9.9564-5.8904 18.52-2.5938l4.2598 1.7949c11.996 5.1824 14.216 2.1298 19.48-7.2266 5.4708-9.237 7.0057-12.687-3.4805-20.484l-3.6856-2.793c-6.6533-5.377-9.8292-7.4962-7.584-15.5 0.0935-0.29727 0.18219-0.59628 0.27343-0.89453 0.0974-0.31168 0.18442-0.61033 0.29688-0.93945l-0.0215 0.0195c0.58546-1.9705 1.1243-3.9618 1.6094-5.9727l0.004 0.0156c0.0253-0.1288 0.0541-0.23775 0.0801-0.36328 0.12643-0.53107 0.24789-1.0639 0.36719-1.5977 2.0628-7.9649 5.8745-8.2199 14.293-9.5449l4.59-0.58c12.98-1.51 13.375-5.2651 13.256-16 0.12-10.73-0.28-14.49-13.26-16l-4.5879-0.57422c-8.4184-1.325-12.23-1.58-14.293-9.5449-0.1193-0.53373-0.24076-1.0666-0.36719-1.5977-0.026-0.12553-0.0547-0.23448-0.0801-0.36328l-0.004 0.0156c-0.48512-2.0109-1.0239-4.0021-1.6094-5.9727l0.0215 0.0195c-0.11246-0.32912-0.19952-0.62777-0.29688-0.93945-0.0912-0.29825-0.17993-0.59726-0.27343-0.89453-2.2452-8.0038 0.93069-10.123 7.584-15.5l3.6856-2.793c10.486-7.7977 8.9513-11.247 3.4805-20.484-3.619-6.4325-5.7997-9.8859-10.707-9.7324-2.2306 0.0698-5.0247 0.88636-8.7734 2.5059l-4.2598 1.7949c-8.56 3.29-11.88 5-18.52-2.6l0.0449 0.20313c-1.4899-1.5718-3.0219-3.1039-4.5938-4.5938l0.2 0.04c-7.6049-6.6423-5.8904-9.9564-2.5938-18.52l1.7949-4.2598c5.1824-11.996 2.1298-14.216-7.2266-19.48-4.6185-2.7354-7.7915-4.4872-10.783-4.2441-2.9917 0.24307-5.8023 2.4816-9.7012 7.7246l-2.793 3.6856c-5.3771 6.6533-7.4962 9.8292-15.5 7.584-0.29727-0.0935-0.59628-0.18219-0.89453-0.27343-0.31168-0.0974-0.61033-0.18442-0.93945-0.29688l0.0195 0.0215c-1.9705-0.58546-3.9618-1.1243-5.9727-1.6094l0.0156-0.004c-0.1288-0.0253-0.23775-0.0541-0.36328-0.0801-0.53107-0.12643-1.0639-0.24789-1.5977-0.36719-7.9649-2.0628-8.2199-5.8745-9.5449-14.293l-0.58-4.59c-1.51-12.98-5.2651-13.375-16-13.256zm0 45.26c10.421 0 20.487 1.5442 29.986 4.4102a24 24 0 0 0 10.01 30.31 24 24 0 0 0 31.21 -6.44c18.35 17.26 30.45 41.11 32.49 67.72h0.30469v8 8h-0.30469c-2.034 26.611-14.132 50.449-32.48 67.717a24 24 0 0 0 -19.79 -9.65 24 24 0 0 0 -11.43 3.21 24 24 0 0 0 -10 30.31c-9.5 2.86-19.57 4.41-30 4.41-16.076 0-31.311-3.6678-44.914-10.209l-0.15821 0.27539-6.9277-4-6.9277-4 0.17578-0.30274c-21.01-14.43-36.47-36.38-42.48-61.94a24 24 0 0 0 14.74 -7.4336c0.28344 1.4902 0.59791 2.9742 0.95703 4.4473-0.35398-1.471-0.6653-2.9597-0.94531-4.459a24 24 0 0 0 6.48 -16.38 24 24 0 0 0 -6.49 -16.37c0.21176-1.1362 0.43691-2.2667 0.69141-3.3867-0.25819 1.1204-0.48651 2.2469-0.70117 3.377a24 24 0 0 0 -14.74 -7.4356c6.0125-25.557 21.471-47.512 42.484-61.953l-0.17578-0.30274 6.9277-4 6.9277-4 0.15821 0.27539c13.61-6.53 28.84-10.2 44.92-10.2zm-0.2793 15.953c-5.0036 0.0163-10.029 0.47639-15.023 1.3633 4.96-0.86 10.08-1.31 15.3-1.31 6.0988 0 12.048 0.61187 17.789 1.7793-5.9237-1.2222-11.978-1.846-18.068-1.8262zm-84.68 64.943c-0.0338 0.12439-0.0683 0.24852-0.10157 0.37305 0.033-0.1247 0.0681-0.24856 0.10157-0.37305zm-0.45899 1.7734c-0.10459 0.41855-0.20624 0.83775-0.30469 1.2578 0.0973-0.42105 0.20138-0.83913 0.30469-1.2578zm0.36719 44.096c0.0271 0.10101 0.0546 0.20183 0.082 0.30274-0.0271-0.101-0.0553-0.20159-0.082-0.30274zm106.21 62.691c-0.39767 0.0973-0.79354 0.1991-1.1934 0.29102 0.39875-0.0929 0.79597-0.19262 1.1934-0.29102zm-1.3203 0.31836c-6.37 1.46-13.01 2.23-19.84 2.23-5.9522 0-11.76-0.58788-17.373-1.7012 12.443 2.5213 25.132 2.2721 37.217-0.52344zm-38.961 0.1582c0.19441 0.0435 0.38944 0.0828 0.58399 0.125-0.19471-0.0413-0.38976-0.0824-0.58399-0.125z"/>
  <path id="path4525" style="opacity:.3;color:#000000;enable-background:accumulate;fill:#fff" d="m288 138.74c-10.73-0.12-14.49 0.28-16 13.26l-0.57422 4.5879c-1.325 8.4184-1.58 12.23-9.5449 14.293-0.53373 0.1193-1.0666 0.24076-1.5977 0.36719-0.12553 0.0259-0.23448 0.0547-0.36328 0.0801l0.0156 0.004c-2.0109 0.48512-4.0021 1.0239-5.9727 1.6094l0.0195-0.0215c-0.32912 0.11246-0.62777 0.19952-0.93945 0.29688-0.29825 0.0912-0.59726 0.17993-0.89453 0.27343-8.0038 2.2452-10.123-0.93069-15.5-7.584l-2.793-3.6856c-3.8989-5.2431-6.7094-7.4815-9.7012-7.7246-0.37397-0.0304-0.75071-0.03-1.1328 0-2.6747 0.20988-5.6092 1.8507-9.6504 4.2441-6.7042 3.7719-10.149 5.9987-9.6699 11.361 0.48495-3.9927 3.8587-6.0918 9.6699-9.3613 4.0412-2.3935 6.9757-4.0343 9.6504-4.2441 0.38211-0.03 0.75885-0.0304 1.1328 0 2.9917 0.24307 5.8023 2.4816 9.7012 7.7246l2.793 3.6856c5.3771 6.6533 7.4962 9.8292 15.5 7.584 0.29727-0.0935 0.59628-0.18223 0.89453-0.27343 0.31168-0.0974 0.61033-0.18442 0.93945-0.29688l-0.0195 0.0215c1.9705-0.58546 3.9618-1.1243 5.9727-1.6094l-0.0156-0.004c0.1288-0.0254 0.23775-0.0542 0.36328-0.0801 0.53107-0.12643 1.0639-0.24789 1.5977-0.36719 7.9649-2.0628 8.2199-5.8745 9.5449-14.293l0.57-4.59c1.51-12.98 5.2651-13.375 16-13.256 10.735-0.11937 14.49 0.27576 16 13.256l0.57422 4.5879c1.325 8.4184 1.58 12.23 9.5449 14.293 0.53373 0.1193 1.0666 0.24076 1.5977 0.36719 0.12553 0.026 0.23448 0.0548 0.36328 0.0801l-0.0156 0.004c2.0109 0.48512 4.0021 1.0239 5.9727 1.6094l-0.0195-0.0215c0.32912 0.11246 0.62777 0.19948 0.93945 0.29688 0.29825 0.0912 0.59726 0.17993 0.89453 0.27343 8.0038 2.2452 10.123-0.93069 15.5-7.584l2.793-3.6856c3.8989-5.2431 6.7094-7.4815 9.7012-7.7246 2.9918-0.24306 6.1647 1.5087 10.783 4.2441 5.8113 3.2695 9.185 5.3686 9.6699 9.3613 0.47934-5.3626-2.9657-7.5894-9.6699-11.361-4.6185-2.7354-7.7915-4.4872-10.783-4.2441-2.9917 0.24307-5.8023 2.4816-9.7012 7.7246l-2.793 3.6856c-5.3771 6.6533-7.4962 9.8292-15.5 7.584-0.29727-0.0935-0.59628-0.18219-0.89453-0.27343-0.31168-0.0974-0.61033-0.18442-0.93945-0.29688l0.0195 0.0215c-1.9705-0.58546-3.9618-1.1243-5.9727-1.6094l0.0156-0.004c-0.1288-0.0253-0.23775-0.0541-0.36328-0.0801-0.53107-0.12643-1.0639-0.24789-1.5977-0.36719-7.9649-2.0628-8.2199-5.8745-9.5449-14.293l-0.57-4.59c-1.51-12.98-5.2651-13.375-16-13.256zm29.309 51.475a24 24 0 0 0 -1.2461 8.6934 24 24 0 0 1 1.9238 -8.502c-0.22432-0.0677-0.45278-0.12521-0.67774-0.19141zm-106.64 2.8594c-0.29838 2.4934-1.8054 4.8536-5.3184 7.9219l0.20313-0.0449c-1.5718 1.4899-3.1039 3.0219-4.5938 4.5938l0.04-0.2c-6.6423 7.6049-9.9564 5.8904-18.52 2.5938l-4.2598-1.7949c-3.7488-1.6195-6.5428-2.4361-8.7734-2.5059-4.9073-0.15351-7.088 3.2999-10.707 9.7324-2.8609 4.8304-4.6238 8.0769-4.1758 11.191 0.34737-2.5544 1.9165-5.3768 4.1758-9.1914 3.619-6.4325 5.7997-9.8859 10.707-9.7324 2.2306 0.0698 5.0247 0.88637 8.7734 2.5059l4.2598 1.7949c8.5632 3.2966 11.877 5.0112 18.52-2.5938l-0.0449 0.20313c1.4899-1.5718 3.0219-3.1039 4.5938-4.5938l-0.2 0.04c4.431-3.8702 5.6845-6.6148 5.3184-9.9219zm154.67 0c-0.36615 3.307 0.88731 6.0517 5.3184 9.9219l-0.20313-0.0449c1.5718 1.4899 3.1039 3.0219 4.5938 4.5938l-0.05-0.2c6.6423 7.6049 9.9565 5.8904 18.52 2.5938l4.2598-1.7949c3.7488-1.6195 6.5428-2.4361 8.7734-2.5059 4.9073-0.15352 7.088 3.2999 10.707 9.7324 2.2593 3.8146 3.8284 6.637 4.1758 9.1914 0.44802-3.1146-1.3149-6.361-4.1758-11.191-3.619-6.4325-5.7997-9.8859-10.707-9.7324-2.2306 0.0698-5.0247 0.88636-8.7734 2.5059l-4.2598 1.7949c-8.56 3.3-11.88 5.01-18.52-2.59l0.0449 0.20313c-1.4899-1.5718-3.0219-3.1039-4.5938-4.5938l0.2 0.04c-3.513-3.0683-5.02-5.4284-5.3184-7.9219zm-77.615 6.875c-5.0036 0.0163-10.029 0.47639-15.023 1.3633 4.96-0.87 10.08-1.32 15.3-1.32 6.0988 0 12.048 0.61187 17.789 1.7793-5.9237-1.2222-11.978-1.846-18.068-1.8262zm-113.58 48.787c-0.09 1.0151-0.2958 2.1302-0.6543 3.4082-0.0935 0.29727-0.18219 0.59628-0.27343 0.89453-0.0974 0.31168-0.18442 0.61033-0.29688 0.93945l0.0215-0.0195c-0.58546 1.9705-1.1243 3.9618-1.6094 5.9727l-0.004-0.0156c-0.0253 0.1288-0.0541 0.23775-0.0801 0.36328-0.12643 0.53107-0.24789 1.0639-0.36719 1.5977-2.0628 7.9649-5.8745 8.2199-14.293 9.5449l-4.59 0.57c-12.98 1.51-13.375 5.2651-13.256 16-0.005 0.48287 0.002 0.87893 0 1.334-0.08-10.19 0.57-13.85 13.26-15.33l4.5879-0.57422c8.4185-1.325 12.23-1.58 14.293-9.5449 0.1193-0.53373 0.24076-1.0666 0.36719-1.5977 0.026-0.12553 0.0548-0.23448 0.0801-0.36328l0.004 0.0156c0.48512-2.0109 1.0239-4.0021 1.6094-5.9727l-0.0215 0.0195c0.11246-0.32912 0.19948-0.62777 0.29688-0.93945 0.0912-0.29825 0.17993-0.59726 0.27343-0.89453 0.61177-2.1808 0.80816-3.9162 0.6543-5.4082zm227.71 0c-0.15386 1.492 0.0425 3.2274 0.6543 5.4082 0.0935 0.29727 0.18223 0.59628 0.27343 0.89453 0.0974 0.31168 0.18442 0.61033 0.29688 0.93945l-0.0215-0.0195c0.58546 1.9705 1.1243 3.9618 1.6094 5.9727l0.004-0.0156c0.0254 0.1288 0.0541 0.23775 0.0801 0.36328 0.12643 0.53107 0.24789 1.0639 0.36719 1.5977 2.0628 7.9649 5.8745 8.2199 14.293 9.5449l4.6 0.57c12.396 1.442 13.302 5.0045 13.256 14.666-0.002-0.2341 0.003-0.42494 0-0.66602 0.12-10.73-0.28-14.49-13.26-16l-4.5879-0.57422c-8.4184-1.325-12.23-1.58-14.293-9.5449-0.1193-0.53373-0.24076-1.0666-0.36719-1.5977-0.026-0.12553-0.0547-0.23448-0.0801-0.36328l-0.004 0.0156c-0.48512-2.0109-1.0239-4.0021-1.6094-5.9727l0.0215 0.0195c-0.11246-0.32912-0.19952-0.62777-0.29688-0.93945-0.0912-0.29825-0.17993-0.59726-0.27343-0.89453-0.3585-1.278-0.56431-2.3931-0.6543-3.4082zm-214.62 15.527c-0.16333 0.63898-0.32514 1.2783-0.47656 1.9219a24 24 0 0 1 14.74 7.4356c0.10318-0.54319 0.22659-1.0818 0.33789-1.623a24 24 0 0 0 -0.32813 -0.36718c0.21176-1.1362 0.43691-2.2667 0.69141-3.3867-0.25819 1.1204-0.48651 2.2469-0.70117 3.377a24 24 0 0 0 -14.264 -7.3574zm15.801 0.6289c-0.0338 0.12439-0.0683 0.24852-0.10157 0.37305 0.033-0.1247 0.0681-0.24856 0.10157-0.37305zm-0.45899 1.7734c-0.10459 0.41855-0.20624 0.83775-0.30469 1.2578 0.0973-0.42105 0.20138-0.83913 0.30469-1.2578zm0.45899 0.22656c-0.0335 0.12449-0.0686 0.24835-0.10157 0.37305 0.0333-0.12453 0.0678-0.24866 0.10157-0.37305zm-0.45899 1.7734c-0.10331 0.41868-0.20739 0.83676-0.30469 1.2578 0.0984-0.42006 0.2001-0.83926 0.30469-1.2578zm-0.73633 3.3379c-0.10967 0.54265-0.2303 1.0811-0.33203 1.627a24 24 0 0 1 6.46 15.63 24 24 0 0 0 0.04 -1.28 24 24 0 0 0 -6.15 -15.99zm189.87 23.98c-2.034 26.611-14.132 50.449-32.48 67.717a24 24 0 0 0 -19.79 -9.65 24 24 0 0 0 -11.43 3.21 24 24 0 0 0 -11.94 21.59 24 24 0 0 1 11.94 -19.59 24 24 0 0 1 11.434 -3.207 24 24 0 0 1 19.781 9.6426c18.34-17.27 30.44-41.11 32.48-67.72h0.30469v-2h-0.30469zm-189.86 9.998a24 24 0 0 1 -0.008 0.01c0.19617 0.94668 0.40194 1.8911 0.63086 2.8301-0.22605-0.93941-0.42883-1.8879-0.62305-2.8398zm1.1094 4.7676c0.0271 0.10101 0.0546 0.20183 0.082 0.30274-0.0271-0.101-0.0553-0.20159-0.082-0.30274zm0 2c0.0267 0.10115 0.0549 0.20174 0.082 0.30274-0.0274-0.10091-0.0549-0.20173-0.082-0.30274zm-15.707 0.97852a24 24 0 0 1 -0.47657 0.0801c6.0148 25.551 21.473 47.501 42.482 61.939l-0.17578 0.30274 6.9277 4 6.9277 4 0.15821-0.27539c13.61 6.53 28.84 10.2 44.92 10.2 10.426 0 20.497-1.5455 30-4.4141a24 24 0 0 1 -0.67383 -1.8106c-9.31 2.74-19.15 4.22-29.33 4.22-16.076 0-31.311-3.6678-44.914-10.209l-0.15821 0.27539-6.9277-4-6.9277-4 0.17578-0.30274c-20.481-14.075-35.682-35.29-42.006-60.02zm-13.098 15.516c-0.41082 3.9838-3.3978 6.1798-8.2383 10.092l-3.6856 2.793c-6.1557 4.5775-8.15 7.6618-7.6562 11.293 0.40872-2.8413 2.6538-5.573 7.6562-9.293l3.6856-2.793c5.591-4.5185 8.7119-6.7492 8.2383-12.092zm227.71 0c-0.47361 5.3425 2.6473 7.5733 8.2383 12.092l3.6856 2.793c5.0025 3.72 7.2475 6.4517 7.6562 9.293 0.49377-3.6311-1.5005-6.7154-7.6562-11.293l-3.6856-2.793c-4.8405-3.912-7.8275-6.108-8.2383-10.092zm-92.691 44.197c-0.39767 0.0973-0.79354 0.1991-1.1934 0.29102 0.39875-0.0929 0.79597-0.19262 1.1934-0.29102zm-1.3203 0.31836c-6.37 1.44-13.01 2.21-19.84 2.21-5.9522 0-11.76-0.58788-17.373-1.7012 12.443 2.5213 25.132 2.2721 37.217-0.52344zm-38.961 0.1582c0.19441 0.0435 0.38944 0.0828 0.58399 0.125-0.19471-0.0413-0.38976-0.0824-0.58399-0.125zm40.281 1.5234c-0.39739 0.0984-0.79461 0.19812-1.1934 0.29102 0.39982-0.0919 0.79569-0.19372 1.1934-0.29102zm-40.281 0.47656c0.19423 0.0426 0.38928 0.0837 0.58399 0.125-0.19455-0.0422-0.38958-0.0815-0.58399-0.125zm-58.219 8.9883c-0.26226 2.3688-1.3488 5.0239-2.7246 8.5976l-1.7949 4.2598c-1.9636 4.5453-2.7392 7.6834-2.4434 10.119 0.18963-2.1214 0.97435-4.7187 2.4434-8.1191l1.7949-4.2598c1.7738-4.6075 3.0722-7.6934 2.7246-10.598zm154.67 0c-0.34754 2.9043 0.95079 5.9902 2.7246 10.598l1.7949 4.2598c1.4681 3.3983 2.2531 5.9945 2.4434 8.1152 0.29452-2.4352-0.48082-5.5724-2.4434-10.115l-1.7949-4.2598c-1.3758-3.5738-2.4624-6.2289-2.7246-8.5976z"/>
  <g id="g4575">
   <circle id="circle4388" style="color:#000000;enable-background:accumulate;fill:#a8a8a8" cx="-497.42" transform="rotate(240)" cy="105.42" r="16"/>
   <circle id="circle4392" style="color:#000000;enable-background:accumulate;fill:#bcbcbc" cy="288" cx="184" r="16"/>
   <circle id="circle4396" style="color:#000000;enable-background:accumulate;fill:#cfcfcf" cx="1.4153" transform="rotate(120)" cy="-393.42" r="16"/>
   <path id="circle4580" style="opacity:.3;color:#000000;enable-background:accumulate;fill:#fff" d="m355.96 198.84a16 16 0 0 1 -2.1016 7.0938 16 16 0 0 1 -21.855 5.8555 16 16 0 0 1 -7.957 -12.75 16 16 0 0 0 7.957 14.75 16 16 0 0 0 21.855 -5.8555 16 16 0 0 0 2.1016 -9.0938zm-187.92 90.01a16 16 0 0 0 -0.04 1.15 16 16 0 0 0 16 16 16 16 0 0 0 16 -16 16 16 0 0 0 -0.043 -0.85352 16 16 0 0 1 -15.96 14.85 16 16 0 0 1 -15.96 -15.15zm187.92 90.203a16 16 0 0 1 -7.96 12.87 16 16 0 0 1 -21.855 -5.8574 16 16 0 0 1 -2.1035 -6.9805 16 16 0 0 0 2.1035 8.9805 16 16 0 0 0 21.855 5.8574 16 16 0 0 0 7.959 -14.867z"/>
   <path id="circle4726" style="opacity:.1;color:#000000;enable-background:accumulate" d="m340.38 181.94a16 16 0 0 0 -1.1309 0.0137 16 16 0 0 0 -13.102 7.9824 16 16 0 0 0 -2.1016 9.1055 16 16 0 0 1 2.1016 -7.1055 16 16 0 0 1 13.102 -7.9824 16 16 0 0 1 8.7539 2.125 16 16 0 0 1 7.957 12.764 16 16 0 0 0 -7.96 -14.76 16 16 0 0 0 -7.62 -2.14zm-156.38 90.06a16 16 0 0 0 -16 16 16 16 0 0 0 0.043 0.85352 16 16 0 0 1 15.96 -14.85 16 16 0 0 1 15.96 15.15 16 16 0 0 0 0.04 -1.15 16 16 0 0 0 -16 -16zm155.62 90.07a16 16 0 0 0 -7.62 2.14 16 16 0 0 0 -7.959 14.875 16 16 0 0 1 7.959 -12.875 16 16 0 0 1 7.623 -2.1406 16 16 0 0 1 14.232 7.9961 16 16 0 0 1 2.1035 6.9902 16 16 0 0 0 -2.1035 -8.9902 16 16 0 0 0 -14.232 -7.9961z"/>
   <g id="g4623" style="opacity:.5;filter:url(#filter4858);stroke:url(#linearGradient4636)" clip-path="url(#clipPath4626)">
    <path id="path4607" d="m184 272a16 16 0 0 0 -16 16 16 16 0 0 0 16 16 16 16 0 0 0 16 -16 16 16 0 0 0 -16 -16z" style="opacity:1;enable-background:accumulate;color:#000000;stroke:url(#linearGradient4636);stroke-width:4;fill:none"/>
   </g>
   <g id="g4710" style="opacity:.5;filter:url(#filter4870);stroke:url(#linearGradient4636)" transform="translate(156 -90.067)" clip-path="url(#clipPath4626)">
    <path id="path4712" style="opacity:1;enable-background:accumulate;color:#000000;stroke:url(#linearGradient4636);stroke-width:4;fill:none" d="m184 272a16 16 0 0 0 -16 16 16 16 0 0 0 16 16 16 16 0 0 0 16 -16 16 16 0 0 0 -16 -16z"/>
   </g>
   <g id="g4718" style="opacity:.5;filter:url(#filter4882);stroke:url(#linearGradient4636)" clip-path="url(#clipPath4626)" transform="translate(156 90.067)">
    <path id="path4720" d="m184 272a16 16 0 0 0 -16 16 16 16 0 0 0 16 16 16 16 0 0 0 16 -16 16 16 0 0 0 -16 -16z" style="opacity:1;enable-background:accumulate;color:#000000;stroke:url(#linearGradient4636);stroke-width:4;fill:none"/>
   </g>
   <circle id="path5074" r="39" style="opacity:.5;stroke-linejoin:round;stroke-width:2;color:#000000;stroke:#000;enable-background:accumulate;fill:none" cx="288" cy="288"/>
   <path id="circle5076" style="opacity:.4;color:#000000;enable-background:accumulate;fill:#fff" d="m288 330.17a40 40 0 0 1 -40 -40 40 40 0 0 1 0.04 -1.17 40 40 0 0 0 39.96 39.17 40 40 0 0 0 39.959 -38.828 40 40 0 0 1 0.041 0.82812 40 40 0 0 1 -40 40z"/>
   <path id="circle5076-7" style="opacity:.4;color:#000000;enable-background:accumulate;fill:#fff" d="m288 250a38 38 0 0 0 -38 38 38 38 0 0 0 0.041 1.168 38 38 0 0 1 37.96 -37.17 38 38 0 0 1 37.96 36.83 38 38 0 0 0 0.04 -0.83 38 38 0 0 0 -38 -38z"/>
  </g>
  <circle id="circle5117" style="opacity:.5;color:#000000;filter:url(#filter5181);enable-background:accumulate" transform="rotate(90)" cy="-288" cx="289" r="16"/>
  <circle id="circle5185" style="opacity:.2;color:#000000;enable-background:accumulate" transform="rotate(90)" cy="-288" cx="290" r="16"/>
  <circle id="path5107" style="color:#000000;enable-background:accumulate;fill:url(#linearGradient5115)" cx="288" transform="rotate(90)" cy="-288" r="16"/>
 </g>
 <g id="layer2" transform="translate(-32,-32)">
  <g id="g5219" style="opacity:.6;filter:url(#filter5264);stroke:url(#linearGradient5232)" transform="rotate(90,288,288)" clip-path="url(#clipPath5222)">
   <circle id="circle5217" r="184" style="opacity:1;stroke-width:64;color:#000000;stroke:url(#linearGradient5234);enable-background:accumulate;fill:none" cx="288" cy="288"/>
  </g>
 </g>
 <g id="layer3">
  <path id="rect4158" style="color:#000000;enable-background:accumulate;fill:#d3d3d3" d="m0 0v512h512v-512zm256 72c101.62 0 184 82.38 184 184s-82.38 184-184 184-184-82.38-184-184 82.38-184 184-184z"/>
  <path id="path4269" style="opacity:.25;color:#000000;enable-background:accumulate;fill:#fff" d="m0 256v256h512v-256h-72c0 100.03-79.82 181.42-179.25 183.94-1.58 0.04-3.16 0.06-4.75 0.06-101.62 0-184-82.38-184-184h-72z"/>
 </g>
</svg>
