<?xml version="1.0" encoding="UTF-8" standalone="no"?>
<!-- Created with Inkscape (http://www.inkscape.org/) -->
<svg id="svg3336" xmlns:rdf="http://www.w3.org/1999/02/22-rdf-syntax-ns#" style="enable-background:new" xmlns="http://www.w3.org/2000/svg" height="512" viewBox="0 0 512.40002 512" width="512.4" version="1.1" xmlns:cc="http://creativecommons.org/ns#" xmlns:xlink="http://www.w3.org/1999/xlink" xmlns:dc="http://purl.org/dc/elements/1.1/">
 <defs id="defs3338">
  <linearGradient id="linearGradient4912" y2="494" gradientUnits="userSpaceOnUse" x2="112" gradientTransform="matrix(1 0 0 1.0756 0 -531.36)" y1="18" x1="384">
   <stop id="stop4270" style="stop-color:#f37e40" offset="0"/>
   <stop id="stop4272" style="stop-color:#ea5420" offset="1"/>
  </linearGradient>
  <filter id="filter4278" style="color-interpolation-filters:sRGB" height="1.0216" width="1.027" y="-.0108" x="-.0135">
   <feGaussianBlur id="feGaussianBlur4280" stdDeviation="1.368"/>
  </filter>
  <linearGradient id="linearGradient4290" y2="252.01" gradientUnits="userSpaceOnUse" x2="402.37" y1="106" x1="134.6">
   <stop id="stop4286" style="stop-opacity:.27842" offset="0"/>
   <stop id="stop4292" style="stop-opacity:.72157" offset=".27541"/>
   <stop id="stop4288" style="stop-opacity:0" offset="1"/>
  </linearGradient>
  <filter id="filter4294" style="color-interpolation-filters:sRGB" height="1.1728" width="1.216" y="-.0864" x="-.108">
   <feGaussianBlur id="feGaussianBlur4296" stdDeviation="10.944"/>
  </filter>
 </defs>
 <metadata id="metadata3341">
  <rdf:RDF>
   <cc:Work rdf:about="">
    <dc:format>image/svg+xml</dc:format>
    <dc:type rdf:resource="http://purl.org/dc/dcmitype/StillImage"/>
    <dc:title/>
   </cc:Work>
  </rdf:RDF>
 </metadata>
 <g id="layer3">
  <rect id="rect4158" style="color:#000000;enable-background:accumulate;fill:url(#linearGradient4912)" transform="scale(1,-1)" height="512" width="512" y="-512" x="0"/>
 </g>
 <g id="layer2" transform="translate(0,18)">
  <path id="path4180-7" style="opacity:0.08;color:#000000;enable-background:accumulate;fill:#fff" d="m285.2-18-272.65 512h499.85v-512z"/>
 </g>
 <g id="layer4">
  <path id="path4276" d="m134.6 106 0.7347 199.98s-1.0534 83.814 90.014 101.48c52.377 10.16 152.45-13.399 152.45-13.399v-288.06h-82.374v211.82h-78.452l0.00029-129.26h-31.381l44.14-82.56z" style="filter:url(#filter4278);opacity:.1"/>
  <path id="path4282" d="m134.6 106 0.7347 199.98s-1.0534 83.814 90.014 101.48c52.377 10.16 152.45-13.399 152.45-13.399v-288.06h-82.374v211.82h-78.452l0.00029-129.26h-31.381l44.14-82.56z" style="filter:url(#filter4294);opacity:.2;fill:url(#linearGradient4290)"/>
  <path id="path4299" style="fill:#f8f8f8" d="m134.6 104 0.7347 199.98s-1.0534 83.814 90.014 101.48c52.377 10.16 152.45-13.399 152.45-13.399v-288.06h-82.374v211.82h-78.452l0.00029-129.26h-31.381l44.14-82.56z"/>
  <path id="path4117" style="fill:#fff" d="m134.6 86v2h94.054l1.069-2h-95.123zm160.83 0v2h82.374v-2h-82.374zm-108.76 82.563-1.069 2h31.381v-2h-30.312zm30.311 129.26v2h78.452v-2h-78.452z" transform="translate(0,18)"/>
 </g>
 <g id="layer1" style="display:none" transform="translate(0 -558.36)">
  <path id="path3774" d="m166.05 576.36h179.89c145.3 0 166.05 20.737 166.05 165.9v144.2c0 145.16-20.757 165.9-166.05 165.9h-179.89c-145.29 0-166.05-20.8-166.05-165.94v-144.2c0-145.16 20.757-165.9 166.05-165.9z" style="stroke:#00f;fill:#00f;display:inline;fill-opacity:.081181"/>
  <circle id="path4118" style="stroke-width:.83333;fill-opacity:.081181;color:#000000;stroke:#00f;enable-background:accumulate;display:inline;fill:#00f" cx="256" transform="matrix(1.2 0 0 1.2 -51.2 528.76)" cy="238" r="120"/>
  <rect id="rect4152" style="stroke-linejoin:round;fill-opacity:.081181;color:#000000;stroke:#00f;stroke-linecap:round;enable-background:accumulate;display:inline;fill:#00f" height="272" width="272" y="678.36" x="120"/>
  <rect id="rect4154" style="stroke-linejoin:round;fill-opacity:.081181;color:#000000;stroke:#00f;stroke-linecap:round;enable-background:accumulate;display:inline;fill:#00f" height="240" width="304" y="694.36" x="104"/>
  <rect id="rect4156" style="stroke-linejoin:round;fill-opacity:.081181;color:#000000;stroke:#00f;stroke-linecap:round;enable-background:accumulate;display:inline;fill:#00f" height="304" width="240" y="662.36" x="136"/>
 </g>
</svg>
