<?xml version="1.0" encoding="UTF-8" standalone="no"?>
<!-- Created with Inkscape (http://www.inkscape.org/) -->
<svg id="svg3336" xmlns:rdf="http://www.w3.org/1999/02/22-rdf-syntax-ns#" style="enable-background:new" xmlns="http://www.w3.org/2000/svg" height="512" viewBox="0 0 512 512" width="512" version="1.1" xmlns:cc="http://creativecommons.org/ns#" xmlns:xlink="http://www.w3.org/1999/xlink" xmlns:dc="http://purl.org/dc/elements/1.1/">
 <defs id="defs3338">
  <linearGradient id="linearGradient4343">
   <stop id="stop4345" style="stop-color:#f37e40" offset="0"/>
   <stop id="stop4347" style="stop-color:#f37e40;stop-opacity:0" offset="1"/>
  </linearGradient>
  <linearGradient id="linearGradient4912" y2="494" gradientUnits="userSpaceOnUse" x2="129.91" gradientTransform="matrix(1 0 0 1.0756 0 -531.36)" y1="18" x1="307.61">
   <stop id="stop7539" style="stop-color:#f37e40" offset="0"/>
   <stop id="stop7541" style="stop-color:#ea5420" offset="1"/>
  </linearGradient>
  <linearGradient id="linearGradient4323" y2="239.46" xlink:href="#linearGradient4343" gradientUnits="userSpaceOnUse" x2="303.44" gradientTransform="matrix(.97842 0 0 .97842 5.5252 5.5252)" y1="148.76" x1="267.93"/>
  <linearGradient id="linearGradient4332" y2="390.18" xlink:href="#linearGradient4343" gradientUnits="userSpaceOnUse" x2="252.34" gradientTransform="matrix(.97842 0 0 .97842 5.5252 5.5252)" y1="337.76" x1="252.34"/>
  <filter id="filter4304" style="color-interpolation-filters:sRGB" height="1.024" width="1.024" y="-.012" x="-.012">
   <feGaussianBlur id="feGaussianBlur4306" stdDeviation="1.36"/>
  </filter>
  <linearGradient id="linearGradient4316" y2="397.26" gradientUnits="userSpaceOnUse" x2="184.08" y1="120" x1="184.08">
   <stop id="stop4312" style="stop-opacity:0" offset="0"/>
   <stop id="stop4318" offset=".67239"/>
   <stop id="stop4314" style="stop-opacity:.228" offset="1"/>
  </linearGradient>
  <filter id="filter4320" style="color-interpolation-filters:sRGB" height="1.192" width="1.192" y="-.096" x="-.096">
   <feGaussianBlur id="feGaussianBlur4322" stdDeviation="10.88"/>
  </filter>
 </defs>
 <metadata id="metadata3341">
  <rdf:RDF>
   <cc:Work rdf:about="">
    <dc:format>image/svg+xml</dc:format>
    <dc:type rdf:resource="http://purl.org/dc/dcmitype/StillImage"/>
    <dc:title/>
   </cc:Work>
  </rdf:RDF>
 </metadata>
 <g id="layer3">
  <rect id="rect4158" style="color:#000000;enable-background:accumulate;fill:url(#linearGradient4912)" transform="scale(1,-1)" height="512" width="512" y="-512" x="0"/>
 </g>
 <g id="layer2" transform="translate(0,18)">
  <rect id="rect4235-2" style="opacity:0.08;color:#000000;enable-background:accumulate;fill:#fff" transform="rotate(90)" height="512" width="203.81" y="-512" x="290.19"/>
 </g>
 <g id="layer4">
  <path id="rect4299" style="opacity:.1;color:#000000;filter:url(#filter4304);enable-background:accumulate" d="m231.1 122-0.79492 1.6797c-8.9742 18.974-17.691 38.204-26.152 57.689-8.4592 19.482-17.047 39.987-25.76 61.514l-0.006 0.0137-0.004 0.0117c-4.9404 12.576-9.9791 25.643-15.094 39.092h-15.3c-15.512 0-28 12.488-28 28 0 13.674 9.706 24.993 22.631 27.484-6.0638 16.649-12.321 34.12-18.816 52.607l-1.375 3.9082h56.533l11.428-32.648c2.818-7.7026 5.5331-15.506 8.207-23.352h112.47c2.6733 7.797 5.4055 15.478 8.2227 22.99 3.8299 10.213 7.5305 20.552 11.105 31.021l0.67968 1.9883h2.0996 56.369l-1.373-3.9082c-6.51-18.47-12.82-35.94-18.99-52.58 13-2.43 22.79-13.78 22.79-27.51 0-15.512-12.488-28-28-28h-15.746c-5.1762-13.448-10.314-26.515-15.404-39.092l-0.0117-0.0254c-8.4565-21.525-16.915-42.028-25.375-61.512-8.4609-19.486-17.178-38.717-26.152-57.691l-0.79-1.68h-49.416zm23.732 62.154c5.0978 12.039 10.61 25.417 17.25 42.461 6.6957 17.186 13.633 35.821 20.727 55.385h-75.943c7.062-19.521 13.891-38.037 20.359-54.988l0.002-0.004c0.003-0.008 0.007-0.0192 0.01-0.0273 6.6438-16.83 12.303-30.428 17.596-42.826z"/>
  <path id="path4308" d="m231.1 122-0.79492 1.6797c-8.9742 18.974-17.691 38.204-26.152 57.689-8.4592 19.482-17.047 39.987-25.76 61.514l-0.006 0.0137-0.004 0.0117c-4.9404 12.576-9.9791 25.643-15.094 39.092h-15.3c-15.512 0-28 12.488-28 28 0 13.674 9.706 24.993 22.631 27.484-6.0638 16.649-12.321 34.12-18.816 52.607l-1.375 3.9082h56.533l11.428-32.648c2.818-7.7026 5.5331-15.506 8.207-23.352h112.47c2.6733 7.797 5.4055 15.478 8.2227 22.99 3.8299 10.213 7.5305 20.552 11.105 31.021l0.67968 1.9883h2.0996 56.369l-1.373-3.9082c-6.51-18.47-12.82-35.94-18.99-52.58 13-2.43 22.79-13.78 22.79-27.51 0-15.512-12.488-28-28-28h-15.746c-5.1762-13.448-10.314-26.515-15.404-39.092l-0.0117-0.0254c-8.4565-21.525-16.915-42.028-25.375-61.512-8.4609-19.486-17.178-38.717-26.152-57.691l-0.79-1.68h-49.416zm23.732 62.154c5.0978 12.039 10.61 25.417 17.25 42.461 6.6957 17.186 13.633 35.821 20.727 55.385h-75.943c7.062-19.521 13.891-38.037 20.359-54.988l0.002-0.004c0.003-0.008 0.007-0.0192 0.01-0.0273 6.6438-16.83 12.303-30.428 17.596-42.826z" style="opacity:.2;color:#000000;filter:url(#filter4320);enable-background:accumulate;fill:url(#linearGradient4316)"/>
  <path id="path4304" style="fill:#f5f5f5" d="m231.1 120-0.79497 1.6797c-8.9742 18.974-17.693 38.205-26.154 57.69-8.4592 19.482-17.045 39.986-25.758 61.512l-0.006 0.0134-0.004 0.0134c-8.4557 21.524-17.166 44.327-26.133 68.407-8.968 24.086-18.447 50.343-28.437 78.776l-1.374 3.9079h56.532l11.428-32.649c3.6084-9.8628 7.08-19.86 10.463-29.947h107.98c3.3823 10.071 6.8558 19.962 10.464 29.586 3.8299 10.213 7.5316 20.553 11.107 31.023l0.67839 1.9874h2.1002 56.37l-1.374-3.9079c-10-28.43-19.61-54.69-28.84-78.77l-0.01-0.0267c-8.9622-24.069-17.796-46.862-26.505-68.38l-0.0115-0.0267c-8.4565-21.525-16.914-42.029-25.374-61.512-8.4609-19.486-17.179-38.716-26.154-57.69l-0.79497-1.6797h-49.416zm23.732 62.154c5.0978 12.039 10.61 25.418 17.25 42.462 7.1965 18.471 14.664 38.565 22.314 59.747h-79.114c7.6302-21.152 14.989-41.128 21.942-59.351l0.002-0.004c0.003-0.008 0.007-0.0186 0.01-0.0267 6.6438-16.83 12.304-30.428 17.596-42.827z"/>
  <path id="path4330" style="opacity:.1;fill:url(#linearGradient4323)" d="m254.83 182.15c5.0978 12.039 10.61 25.417 17.25 42.461 6.6957 17.186 13.633 35.821 20.727 55.385h55.445c-5.1762-13.448-10.314-26.515-15.404-39.092l-0.0117-0.0254c-8.4565-21.525-16.915-42.028-25.375-61.512-8.4609-19.486-17.178-38.717-26.152-57.691l-0.8-1.68z"/>
  <path id="path4328" style="opacity:.1;fill:url(#linearGradient4332)" d="m142.63 335.48c-6.0638 16.649-12.321 34.12-18.816 52.607l-1.375 3.9082h56.533l11.428-32.648c2.818-7.7026 5.5331-15.506 8.207-23.352h-50.61c-1.8382 0-3.6316-0.18065-5.3691-0.51562zm226.58 0.0273c-1.69 0.32-3.43 0.49-5.21 0.49h-52.918c2.6733 7.797 5.4055 15.478 8.2227 22.99 3.8299 10.213 7.5305 20.552 11.105 31.021l0.67968 1.9883h2.0996 56.369l-1.373-3.9082c-6.4917-18.476-12.805-35.938-18.975-52.58z"/>
  <path id="path4293" style="opacity:.6;fill:#fff" d="m231.1 120-0.79492 1.6797c-8.9742 18.974-17.691 38.204-26.152 57.689-8.4592 19.482-17.047 39.987-25.76 61.514l-0.006 0.0137-0.004 0.0117c-8.4557 21.524-17.165 44.328-26.131 68.408-8.968 24.086-18.448 50.343-28.438 78.775l-1.375 3.9082h0.70313l0.67187-1.9082c9.9898-28.432 19.469-54.69 28.438-78.775 8.9661-24.08 17.675-46.885 26.131-68.408l0.004-0.0117 0.006-0.0137c8.713-21.526 17.301-42.032 25.76-61.514 8.4609-19.486 17.178-38.715 26.152-57.689l0.79-1.68h49.416l0.79493 1.6797c8.9742 18.974 17.691 38.206 26.152 57.691 8.4599 19.483 16.918 39.987 25.375 61.512l0.0117 0.0254c8.7093 21.518 17.542 44.312 26.504 68.381l0.01 0.0274c9.225 24.088 18.833 50.346 28.822 78.775l0.66992 1.9082h0.70312l-1.373-3.9082c-9.98-28.44-19.59-54.7-28.82-78.78l-0.01-0.0274c-8.9622-24.069-17.795-46.863-26.504-68.381l-0.0117-0.0254c-8.4565-21.525-16.915-42.028-25.375-61.512-8.4609-19.486-17.178-38.717-26.152-57.691l-0.79-1.68h-49.416zm-15.092 164.36c-0.24342 0.67395-0.48062 1.3236-0.72461 2h79.113c-0.244-0.6756-0.48293-1.3266-0.72656-2h-77.662z"/>
  <rect id="rect4270" style="color:#000000;enable-background:accumulate;fill:#f8f8f8" rx="28" ry="28" height="56" width="272" y="280" x="120"/>
  <rect id="rect4272" style="opacity:.2;color:#000000;enable-background:accumulate;fill:#fbc58c" ry="16.029" height="32.058" width="248" y="292" x="132"/>
  <rect id="rect4301" style="color:#000000;enable-background:accumulate;fill:#ea5420" transform="scale(1,-1)" ry="16.029" height="32.057" width="169.52" y="-324.06" x="132"/>
  <path id="rect4386" style="color:#000000;enable-background:accumulate;fill:#fff" d="m148 280c-15.512 0-28 12.488-28 28 0 0.33539 0.0138 0.66753 0.0254 1 0.52401-15.044 12.798-27 27.975-27h216c15.177 0 27.451 11.956 27.975 27 0.0116-0.33247 0.0254-0.66461 0.0254-1 0-15.512-12.488-28-28-28h-216z"/>
 </g>
 <g id="layer1" style="display:none" transform="translate(0 -558.36)">
  <path id="path3774" d="m166.05 576.36h179.89c145.3 0 166.05 20.737 166.05 165.9v144.2c0 145.16-20.757 165.9-166.05 165.9h-179.89c-145.29 0-166.05-20.8-166.05-165.94v-144.2c0-145.16 20.757-165.9 166.05-165.9z" style="stroke:#00f;fill:#00f;display:inline;fill-opacity:.081181"/>
  <circle id="path4118" style="stroke-width:.83333;fill-opacity:.081181;color:#000000;stroke:#00f;enable-background:accumulate;display:inline;fill:#00f" cx="256" transform="matrix(1.2 0 0 1.2 -51.2 528.76)" cy="238" r="120"/>
  <rect id="rect4152" style="stroke-linejoin:round;fill-opacity:.081181;color:#000000;stroke:#00f;stroke-linecap:round;enable-background:accumulate;display:inline;fill:#00f" height="272" width="272" y="678.36" x="120"/>
  <rect id="rect4154" style="stroke-linejoin:round;fill-opacity:.081181;color:#000000;stroke:#00f;stroke-linecap:round;enable-background:accumulate;display:inline;fill:#00f" height="240" width="304" y="694.36" x="104"/>
  <rect id="rect4156" style="stroke-linejoin:round;fill-opacity:.081181;color:#000000;stroke:#00f;stroke-linecap:round;enable-background:accumulate;display:inline;fill:#00f" height="304" width="240" y="662.36" x="136"/>
 </g>
</svg>
