<?xml version="1.0" encoding="UTF-8" standalone="no"?>
<!-- Created with Inkscape (http://www.inkscape.org/) -->
<svg id="svg3289" xmlns:rdf="http://www.w3.org/1999/02/22-rdf-syntax-ns#" xmlns="http://www.w3.org/2000/svg" height="90" width="90" version="1.1" xmlns:cc="http://creativecommons.org/ns#" xmlns:xlink="http://www.w3.org/1999/xlink" xmlns:dc="http://purl.org/dc/elements/1.1/">
 <defs id="defs3291">
  <clipPath id="clipPath3844" clipPathUnits="userSpaceOnUse">
   <path id="path3846" style="opacity:.25;color:#000000;fill:#f0f" d="m449 384c-11.598 0-21 9.402-21 21s9.402 21 21 21 21-9.402 21-21-9.402-21-21-21zm0 17c2.2091 0 4 1.7909 4 4s-1.7909 4-4 4-4-1.7909-4-4 1.7909-4 4-4z"/>
  </clipPath>
 </defs>
 <metadata id="metadata3294">
  <rdf:RDF>
   <cc:Work rdf:about="">
    <dc:format>image/svg+xml</dc:format>
    <dc:type rdf:resource="http://purl.org/dc/dcmitype/StillImage"/>
    <dc:title/>
   </cc:Work>
  </rdf:RDF>
 </metadata>
 <g id="layer1" transform="translate(0 -962.36)">
  <g id="g4451" transform="translate(-789 604.36)">
   <g id="g4441" transform="translate(385,-2)">
    <rect id="rect4443" style="color:#000000;fill:none" height="90" width="90" y="360" x="404"/>
    <path id="path3009" style="opacity:.25;color:#000000;fill:#ccc" d="m30 24.5a6.5 6.5 0 1 1 -13 0 6.5 6.5 0 1 1 13 0z" transform="matrix(3.2308 0 0 3.2308 373.08 325.85)"/>
    <path id="path3052" style="stroke-linejoin:round;stroke-width:5.25;color:#000000;stroke:#ccc;fill:none" d="m66 45a21 21 0 1 1 -42 0 21 21 0 1 1 42 0z" transform="matrix(1.1429 0 0 1.1429 397.57 353.57)"/>
    <path id="rect3809" style="color:#000000;fill:#ccc" d="m466.61 374.84c-1.2418-0.0747-2.4362 0.50514-3.7397 1.8084l-0.82512 0.82522c6.2395 2.9952 11.314 8.0696 14.309 14.309l0.82522-0.82522c2.9796-2.9796 2.1764-5.3558-1.5977-9.1298l-3.58-3.58c-2.1229-2.1229-3.7935-3.3101-5.3901-3.4061z"/>
    <path id="path3817" style="color:#000000;fill:#ccc" d="m419.01 387.22c-0.0747 1.2418 0.50513 2.4362 1.8084 3.7398l0.82523 0.82511c2.9952-6.2395 8.0696-11.314 14.309-14.309l-0.82523-0.82522c-2.9796-2.9796-5.3558-2.1764-9.1298 1.5977l-3.5817 3.5817c-2.1229 2.1229-3.3101 3.7935-3.4061 5.3901z"/>
    <path id="path3831" style="color:#000000;fill:#ccc" d="m45 40c-2.761 0-5 2.239-5 5s2.239 5 5 5 5-2.239 5-5-2.239-5-5-5zm0 3c1.105 0 2 0.895 2 2s-0.895 2-2 2-2-0.895-2-2 0.895-2 2-2z" transform="translate(404,360)"/>
    <g id="g3835" style="stroke:#ccc" clip-path="url(#clipPath3844)">
     <path id="path3825" style="stroke-width:4;color:#000000;stroke:#ccc;stroke-linecap:round;fill:none" d="m45 42v-13" transform="translate(404,360)"/>
     <path id="path3827" style="stroke-width:4;color:#000000;stroke:#ccc;stroke-linecap:round;fill:none" d="m451.12 407.12 6.8995 6.8995"/>
    </g>
   </g>
  </g>
 </g>
</svg>
