<?xml version="1.0" encoding="UTF-8" standalone="no"?>
<!-- Created with Inkscape (http://www.inkscape.org/) -->
<svg id="svg3289" xmlns:rdf="http://www.w3.org/1999/02/22-rdf-syntax-ns#" xmlns="http://www.w3.org/2000/svg" height="90" width="90" version="1.1" xmlns:cc="http://creativecommons.org/ns#" xmlns:dc="http://purl.org/dc/elements/1.1/">
 <metadata id="metadata3294">
  <rdf:RDF>
   <cc:Work rdf:about="">
    <dc:format>image/svg+xml</dc:format>
    <dc:type rdf:resource="http://purl.org/dc/dcmitype/StillImage"/>
    <dc:title/>
   </cc:Work>
  </rdf:RDF>
 </metadata>
 <g id="layer1" transform="translate(0 -962.36)">
  <g id="g4451" transform="translate(-789 604.36)">
   <rect id="rect4453" style="fill:none" height="90" width="90" y="358" x="789"/>
   <path id="path4455" d="m823 384-10 10v18l10 10z" style="fill:#ccc"/>
   <path id="path4457" d="m808.38 394c-4.07 0-4.38 1.55-4.38 6.19v4.8214c0 4.6378 0.4117 6.9911 4.375 6.9911h2.625v-18z" style="fill:#ccc"/>
   <path id="rect4459" style="opacity:.25;color:#000000;fill:#ccc" d="m811 394h2v18h-2z"/>
   <path id="rect3019" style="opacity:.5;color:#000000;fill:#ccc" d="m841.88 390-3.88 3.88 9.12 9.12-9.12 9.12 3.88 3.88 9.12-9.12 9.12 9.12 3.88-3.88-9.12-9.12 9.12-9.12-3.88-3.88-9.12 9.12z"/>
  </g>
 </g>
</svg>
