<?xml version="1.0" encoding="UTF-8" standalone="no"?>
<!-- Created with Inkscape (http://www.inkscape.org/) -->
<svg id="svg4479" xmlns:rdf="http://www.w3.org/1999/02/22-rdf-syntax-ns#" xmlns="http://www.w3.org/2000/svg" height="90" viewBox="0 0 90 90.000001" width="90" version="1.1" xmlns:cc="http://creativecommons.org/ns#" xmlns:dc="http://purl.org/dc/elements/1.1/">
 <metadata id="metadata4484">
  <rdf:RDF>
   <cc:Work rdf:about="">
    <dc:format>image/svg+xml</dc:format>
    <dc:type rdf:resource="http://purl.org/dc/dcmitype/StillImage"/>
    <dc:title/>
   </cc:Work>
  </rdf:RDF>
 </metadata>
 <g id="layer1" transform="translate(833.57 -695.93)">
  <g id="g4496" transform="translate(-863.57 -110.43)">
   <g id="g4577" transform="translate(-30 504)">
    <rect id="rect4503" style="opacity:.1;color:#000000;fill:none" height="90" width="90" y="302.36" x="60"/>
    <path id="path4562" style="color-rendering:auto;block-progression:tb;isolation:auto;mix-blend-mode:normal;shape-rendering:auto;color:#000000;image-rendering:auto;text-indent:0;text-transform:none;fill:#808080" d="m105 326.36c-11.562 0-21 9.4376-21 21s9.4376 21 21 21 21-9.4376 21-21-9.4376-21-21-21zm0 6c8.3198 0 15 6.6802 15 15s-6.6802 15-15 15-15-6.6802-15-15 6.6802-15 15-15z"/>
    <path id="circle4564" style="color:#000000;fill:#808080" d="m105 329.36a18 18 0 0 1 18 18 18 18 0 0 1 -18 18"/>
    <path id="rect4566" style="color:#000000;fill:#808080" d="m64 344.36v6h14v-6h-14zm68 0v6h14v-6h-14z"/>
    <path id="path4571" style="color:#000000;fill:#808080" d="m108 305.36-6 1.5v13.5h6zm0 69h-6v14h6z"/>
    <path id="path4121" style="color:#000000;fill:#808080" d="m73.887 374.23 4.2427 4.2427 9.8995-9.8995-4.2427-4.2426-9.8995 9.8995zm48.083-48.083 4.2426 4.2426 9.8995-9.8995-4.2427-4.2427-9.8995 9.8995z"/>
    <path id="path4123" style="color:#000000;fill:#808080" d="m78.13 316.25-4.2427 4.2427 9.8995 9.8995 4.2426-4.2426-9.8995-9.8995zm48.083 48.083-4.2426 4.2426 9.8995 9.8995 4.2427-4.2427-9.8995-9.8995z"/>
   </g>
  </g>
 </g>
</svg>
