<?xml version="1.0" encoding="UTF-8" standalone="no"?>
<!-- Created with Inkscape (http://www.inkscape.org/) -->
<svg id="svg4479" xmlns:rdf="http://www.w3.org/1999/02/22-rdf-syntax-ns#" xmlns="http://www.w3.org/2000/svg" height="90" viewBox="0 0 90 90.000001" width="90" version="1.1" xmlns:cc="http://creativecommons.org/ns#" xmlns:dc="http://purl.org/dc/elements/1.1/">
 <metadata id="metadata4484">
  <rdf:RDF>
   <cc:Work rdf:about="">
    <dc:format>image/svg+xml</dc:format>
    <dc:type rdf:resource="http://purl.org/dc/dcmitype/StillImage"/>
    <dc:title/>
   </cc:Work>
  </rdf:RDF>
 </metadata>
 <g id="layer1" transform="translate(833.57 -695.93)">
  <g id="g4496" transform="translate(-863.57 -110.43)">
   <g id="g4577" transform="translate(-30 504)">
    <rect id="rect4503" style="opacity:.1;color:#000000;fill:none" height="90" width="90" y="302.36" x="60"/>
    <path id="path4562" style="opacity:.5;color-rendering:auto;color:#000000;isolation:auto;shape-rendering:auto;block-progression:tb;text-decoration-line:none;image-rendering:auto;text-indent:0;text-transform:none;fill:#808080" d="m108 305.36-6 1.5v13.5h6v-15zm-29.869 10.887-4.2441 4.2441 9.9004 9.8984 4.2422-4.2422-9.8984-9.9004zm53.738 0-9.8984 9.9004 4.2422 4.2422 9.9004-9.8984-4.2441-4.2441zm-26.87 10.11c-11.562 0-21 9.4376-21 21s9.4376 21 21 21 21-9.4376 21-21-9.4376-21-21-21zm0 6v30c-8.3198 0-15-6.6802-15-15s6.6802-15 15-15zm-41 12v6h14v-6h-14zm68 0v6h14v-6h-14zm-48.213 19.971-9.9004 9.8984 4.2441 4.2441 9.8984-9.9004-4.2422-4.2422zm42.426 0-4.2422 4.2422 9.8984 9.9004 4.2441-4.2441-9.9004-9.8984zm-24.21 10.03v14h6v-14h-6z"/>
   </g>
  </g>
 </g>
</svg>
