<?xml version="1.0" encoding="UTF-8" standalone="no"?>
<!-- Created with Inkscape (http://www.inkscape.org/) -->
<svg id="svg3289" xmlns:rdf="http://www.w3.org/1999/02/22-rdf-syntax-ns#" xmlns="http://www.w3.org/2000/svg" height="90" width="90" version="1.1" xmlns:cc="http://creativecommons.org/ns#" xmlns:xlink="http://www.w3.org/1999/xlink" xmlns:dc="http://purl.org/dc/elements/1.1/">
 <metadata id="metadata3294">
  <rdf:RDF>
   <cc:Work rdf:about="">
    <dc:format>image/svg+xml</dc:format>
    <dc:type rdf:resource="http://purl.org/dc/dcmitype/StillImage"/>
    <dc:title/>
   </cc:Work>
  </rdf:RDF>
 </metadata>
 <g id="layer1" transform="translate(0 -962.36)">
  <g id="g4451" transform="translate(-789 604.36)">
   <path id="path3871" style="opacity:.25;fill:#19b6ee" d="m804.59 387.03c-0.21156 0.75197-0.34449 1.6315-0.4375 2.625l25.836 23.789c2.3685 2.4021 5.5544 2.4513 8.3391-0.0135l25.51-23.56c-0.0845-0.9996-0.20949-1.8632-0.40625-2.625l-26.094 24.094c-1.9441 1.5963-4.3319 1.6274-6.375 0z"/>
   <rect id="rect3332" style="fill:none" height="90" width="90" y="358" x="789"/>
   <path id="path3011" style="fill:#19b6ee" transform="translate(789,358)" d="m35 24c-13.473 0-17.99-0.001-19.406 5.031l26.375 24.313c2.098 1.674 4.193 1.855 6.375 0l26.094-24.063c-1.344-5.264-5.761-5.281-19.438-5.281h-20zm-19.969 9.969c-0.017 0.634-0.031 1.314-0.031 2.031v18c0 12 2 12 20 12h20c18 0 20 0 20-12v-18c0-0.607-0.019-1.172-0.031-1.719l-13.813 12.719 12.688 14.656-15.094-12.437-7.656 7.031-0.063 0.031c-1.683 1.662-3.685 3.037-5.812 3.031-2.146-0.004-4.17-1.377-5.938-3.031l-7.687-7.062-15.094 12.437 12.656-14.656-14.125-13.031z"/>
   <path id="path3851" style="opacity:.5;color:#000000;fill:#19b6ee" d="m15.188 31.688c-0.069 0.699-0.134 1.441-0.157 2.281l14.125 13.031-12.656 14.656 15.094-12.437 7.687 7.062c1.768 1.654 3.792 3.027 5.938 3.031 0.266 0.001 0.519-0.022 0.781-0.062 1.308-0.202 2.575-0.875 3.719-1.781 0.457-0.363 0.891-0.772 1.312-1.188l0.063-0.031 7.656-7.031 15.094 12.437-12.688-14.656 13.813-12.719c-0.019-0.857-0.064-1.627-0.125-2.343l-0.406 0.343-16.907 15.594-7.593 7-0.594 0.563c-2.785 2.464-5.975 2.402-8.344 0l-25.406-23.407-0.406-0.343z" transform="translate(789,358)"/>
  </g>
 </g>
 <g id="layer2" style="display:none">
  <path id="path3011-4" style="fill:#f0f;display:inline" d="m213.5 189.36c-9 0-10 0-10 6v9c0 6 1 6 10 6h10c9 0 10 0 10-6v-9c0-6-1-6-10-6z" transform="matrix(2 0 0 2 -392 -354.72)"/>
  <path id="path3804-1" d="m5.5 19v52h79v-52zm7.0312 7.1875 29.438 27.156c2.0986 1.6744 4.1933 1.8549 6.3749 0l29.468-27.156 2.719 2.968-19.375 17.844 12.688 14.656-15.094-12.437-7.656 7.031-0.063 0.031c-1.6834 1.6616-3.6849 3.0363-5.8125 3.0313-2.1459-0.004-4.1698-1.3777-5.9375-3.0313l-7.687-7.062-15.094 12.437 12.656-14.656-19.344-17.844z" style="color:#000000;display:inline;fill:#00f"/>
 </g>
</svg>
