<?xml version="1.0" encoding="UTF-8" standalone="no"?>
<!-- Created with Inkscape (http://www.inkscape.org/) -->
<svg id="svg3289" xmlns:rdf="http://www.w3.org/1999/02/22-rdf-syntax-ns#" xmlns="http://www.w3.org/2000/svg" height="90" width="90" version="1.1" xmlns:cc="http://creativecommons.org/ns#" xmlns:xlink="http://www.w3.org/1999/xlink" xmlns:dc="http://purl.org/dc/elements/1.1/">
 <defs id="defs3291">
  <clipPath id="clipPath3824-3-5" clipPathUnits="userSpaceOnUse">
   <path id="path3826-8-9" d="m205 183.36v33h27v-33h-27zm12.562 4.4062 1.6094 1.5781 4.6875 4.6875 0.64063 0.67188-0.64063 0.67187-4.4219 4.4219v0.125l4.4219 4.4219 0.64063 0.67188-0.64063 0.67187-4.6875 4.6875-1.6094 1.5781v-2.25-8.0312l-4.0156 4.0156-1.3438-1.3438 4.4844-4.4844-4.4844-4.4844 1.3438-1.3438 4.0156 4.0156v-8.0312-2.25zm1.875 4.5312v4.8125l2.4062-2.4062-2.4062-2.4062zm0 10.312v4.8125l2.4062-2.4062-2.4062-2.4062z" style="opacity:.58108;color:#000000;fill:#f00"/>
  </clipPath>
 </defs>
 <metadata id="metadata3294">
  <rdf:RDF>
   <cc:Work rdf:about="">
    <dc:format>image/svg+xml</dc:format>
    <dc:type rdf:resource="http://purl.org/dc/dcmitype/StillImage"/>
    <dc:title/>
   </cc:Work>
  </rdf:RDF>
 </metadata>
 <g id="layer1" transform="translate(0 -962.36)">
  <g id="g5165" transform="translate(-62 486)">
   <rect id="rect5167" style="fill:none" height="90" width="90" y="476.36" x="62"/>
   <path id="path5169" style="fill:#ccc;display:none" d="m218 184.86c-9 0-10 0-10 6v18c0 6 1 6 10 6h1c9 0 10 0 10-6v-18c0-6-1-6-10-6z" clip-path="url(#clipPath3824-3-5)" transform="matrix(2 0 0 2 -330 121.64)"/>
   <path id="path5182" style="fill:#ccc" d="m41 38c-14.296 0-15.927 0.075-16 9.1v7.9 7.9c0.073 9.025 1.704 9.1 16 9.1h8c14.296 0 15.927-0.075 16-9.1v-7.9-7.9c-0.073-9.025-1.704-9.1-16-9.1h-8zm4 7c3.314 0 6 2.686 6 6 0 2.219-1.209 4.152-3 5.189v7.811h-6v-7.811c-1.791-1.037-3-2.97-3-5.189 0-3.314 2.686-6 6-6z" transform="translate(62 476.36)"/>
   <path id="rect5190" style="color-rendering:auto;block-progression:tb;shape-rendering:auto;color:#000000;image-rendering:auto;text-indent:0;text-transform:none;fill:#ccc" d="m45 18c-7.159 0-13 5.841-13 13v11.5c0 0.219 0.022 0.432 0.033 0.648h4.998c-0.016-0.214-0.031-0.428-0.031-0.648v-11.5c0-4.475 3.525-8 8-8s8 3.525 8 8v11.5c0 0.22-0.015 0.434-0.031 0.648h4.998c0.011-0.216 0.033-0.429 0.033-0.648v-11.5c0-7.159-5.841-13-13-13z" transform="translate(62 476.36)"/>
  </g>
 </g>
 <g id="layer3" style="display:none">
  <path id="path3011-1" style="opacity:.5;fill:#f0f;display:inline" d="m213.5 189.36c-9 0-10 0-10 6v9c0 6 1 6 10 6h10c9 0 10 0 10-6v-9c0-6-1-6-10-6z" transform="matrix(2 0 0 2 -392 -354.72)"/>
  <path id="path3804-0" d="m5.5 19v52h79v-52zm7.0312 7.1875 29.438 27.156c2.0986 1.6744 4.1933 1.8549 6.3749 0l29.468-27.156 2.719 2.968-19.375 17.844 12.688 14.656-15.094-12.437-7.656 7.031-0.063 0.031c-1.6834 1.6616-3.6849 3.0363-5.8125 3.0313-2.1459-0.004-4.1698-1.3777-5.9375-3.0313l-7.687-7.062-15.094 12.437 12.656-14.656-19.344-17.844z" style="color:#000000;display:inline;fill:#00f"/>
 </g>
</svg>
