<?xml version="1.0" encoding="UTF-8" standalone="no"?>
<!-- Created with Inkscape (http://www.inkscape.org/) -->
<svg id="svg3289" xmlns:rdf="http://www.w3.org/1999/02/22-rdf-syntax-ns#" xmlns="http://www.w3.org/2000/svg" height="90" width="90" version="1.1" xmlns:cc="http://creativecommons.org/ns#" xmlns:xlink="http://www.w3.org/1999/xlink" xmlns:dc="http://purl.org/dc/elements/1.1/">
 <metadata id="metadata3294">
  <rdf:RDF>
   <cc:Work rdf:about="">
    <dc:format>image/svg+xml</dc:format>
    <dc:type rdf:resource="http://purl.org/dc/dcmitype/StillImage"/>
    <dc:title/>
   </cc:Work>
  </rdf:RDF>
 </metadata>
 <g id="layer1" transform="translate(-0.0000408 -962.36)">
  <rect id="rect4431" style="fill:none" height="90" width="90" y="962.36" x="0.0000408"/>
  <path id="path4046" style="color:#000000;fill:#ccc" d="m44.799 21.627a3.7899 3.8185 0 0 0 -3.078 1.904l-22.414 39.117a3.7899 3.8185 0 0 0 3.279 5.731h44.828a3.7899 3.8185 0 0 0 3.279 -5.731l-22.414-39.117a3.7899 3.8185 0 0 0 -3.48 -1.904zm-0.797 18.373c3.143 0 5.542 0.576 7.197 1.729 1.676 1.152 2.516 2.913 2.516 5.281 0 2.954-1.457 4.954-4.369 6.002 0.398 0.482 0.848 1.068 1.351 1.759 0.503 0.692 1.016 1.447 1.539 2.264 0.524 0.796 1.028 1.624 1.51 2.483 0.482 0.838 0.912 1.665 1.289 2.482h-4.431c-0.399-0.754-0.829-1.507-1.29-2.262-0.46-0.775-0.932-1.52-1.414-2.232-0.461-0.733-0.921-1.415-1.382-2.043-0.461-0.65-0.891-1.226-1.289-1.729-0.294 0.021-0.545 0.032-0.754 0.032h-0.598-1.916v8.234h-3.961v-21.467c0.964-0.209 1.991-0.345 3.08-0.408 1.09-0.084 2.063-0.125 2.922-0.125zm0.283 3.426c-0.838 0-1.612 0.031-2.324 0.094v7.041h1.728c0.964 0 1.812-0.054 2.545-0.159 0.734-0.104 1.341-0.292 1.823-0.564 0.502-0.273 0.881-0.641 1.132-1.102 0.252-0.461 0.377-1.047 0.377-1.759 0-0.671-0.125-1.237-0.377-1.698-0.251-0.461-0.619-0.827-1.101-1.099-0.461-0.273-1.017-0.462-1.666-0.567-0.65-0.125-1.362-0.187-2.137-0.187z" transform="translate(0.0000408 962.36)"/>
 </g>
</svg>
