<?xml version="1.0" encoding="UTF-8" standalone="no"?>
<!-- Created with Inkscape (http://www.inkscape.org/) -->
<svg id="svg3289" xmlns:rdf="http://www.w3.org/1999/02/22-rdf-syntax-ns#" xmlns="http://www.w3.org/2000/svg" height="90" width="90" version="1.1" xmlns:cc="http://creativecommons.org/ns#" xmlns:xlink="http://www.w3.org/1999/xlink" xmlns:dc="http://purl.org/dc/elements/1.1/">
 <defs id="defs3291">
  <clipPath id="clipPath3017-4" clipPathUnits="userSpaceOnUse">
   <path id="path3019-4" style="color:#000000;fill:#f0f" d="m199 186.36v27h39v-27h-39zm25.141 7.5c0.53199 0.00001 0.98285 0.0788 1.4062 0.15625 0.43428 0.0665 0.85228 0.1503 1.1562 0.25 0.31487 0.0883 0.52331 0.15051 0.71875 0.25 0.20629 0.0995 0.3975 0.21035 0.48438 0.26562l-0.71875 2.0469c-0.34742-0.18802-0.73152-0.33605-1.1875-0.46875-0.44518-0.14367-0.95236-0.1875-1.4844-0.1875-1.1834 0.00002-2.0774 0.29423-2.6094 0.96875-0.52114 0.66344-0.76563 1.589-0.76563 2.75 0 0.56396 0.0883 1.0825 0.21875 1.5469 0.13021 0.45338 0.2863 0.84012 0.54688 1.1719 0.26054 0.33171 0.60914 0.5933 1 0.78125 0.39089 0.17694 0.86949 0.23437 1.3906 0.23437 0.28227 0 0.47638 0.0119 0.67188 0 0.20624-0.0118 0.39486-0.029 0.54687-0.0625v-4.0156h2.5781v5.6875c-0.30401 0.12179-0.77997 0.30476-1.4531 0.4375-0.67315 0.14368-1.5276 0.1875-2.5156 0.1875-0.84687 0-1.5864-0.10962-2.2812-0.375-0.684-0.2654-1.3395-0.66323-1.8281-1.1719-0.48862-0.50864-0.85358-1.1498-1.125-1.8906-0.26054-0.74088-0.39062-1.5803-0.39062-2.5312 0-0.96201 0.15999-1.8217 0.45312-2.5625 0.29316-0.74084 0.70844-1.382 1.2188-1.8906 0.51031-0.5197 1.0816-0.87523 1.7656-1.1406 0.69-0.26 1.42-0.43 2.2-0.43zm-11.953 0.0312c0.16265-0.0119 0.35294 0 0.53125 0 0.65923 0.00002 1.2433 0.11625 1.7188 0.28125 0.48629 0.15417 0.87409 0.3747 1.1875 0.67187 0.31336 0.28617 0.55183 0.60379 0.70312 1 0.15137 0.3852 0.20313 0.8659 0.20313 1.3281 0 0.45128-0.11057 0.86764-0.35938 1.2969-0.24855 0.41823-0.57856 0.73303-1 0.95313 0.58353 0.24213 1.046 0.57822 1.3594 1.0625 0.32418 0.47325 0.46874 1.0474 0.46875 1.7188-0.00001 0.52829-0.0772 1.0332-0.25 1.4844-0.17294 0.44026-0.44508 0.85733-0.8125 1.1875-0.36744 0.31919-0.8335 0.54724-1.4062 0.73438-0.56193 0.17614-1.2219 0.25-2 0.25-0.29181 0-0.61332 0.0114-0.9375-0.0312-0.32423-0.033-0.65054-0.12135-0.95313-0.1875-0.30257-0.0659-0.53269-0.11021-0.78125-0.1875-0.24856-0.077-0.46891-0.15257-0.60937-0.21875l0.45312-2.0625c0.28095 0.12087 0.6615 0.24753 1.0938 0.39062 0.44307 0.13221 1.0235 0.21875 1.6719 0.21875 0.74564 0 1.2323-0.13585 1.5781-0.42187 0.34578-0.28617 0.54688-0.67198 0.54688-1.1562 0-0.29717-0.0577-0.53625-0.1875-0.73438-0.11866-0.20911-0.29951-0.37891-0.51563-0.5-0.21615-0.13219-0.5099-0.26849-0.8125-0.3125-0.29178-0.0549-0.57125-0.0625-0.90625-0.0625h-0.98437v-1.9375h1.125c0.23775 0 0.42449-0.0808 0.64062-0.125 0.2269-0.044 0.4677-0.0885 0.64063-0.1875 0.17295-0.11003 0.29336-0.26138 0.39062-0.4375 0.10805-0.18702 0.125-0.42798 0.125-0.70312 0-0.20913-0.0387-0.37719-0.125-0.53125-0.0864-0.15419-0.18757-0.27592-0.32812-0.375-0.12981-0.0994-0.23818-0.19035-0.42188-0.23438-0.17296-0.0549-0.36315-0.0625-0.54687-0.0625-0.46469 0.00003-0.94393 0.0601-1.3438 0.20313-0.38903 0.14289-0.73834 0.32216-1.0625 0.53125l-0.84375-1.8281c0.17295-0.11026 0.38242-0.17568 0.60937-0.29687 0.23773-0.12084 0.46902-0.24468 0.75-0.34375 0.28097-0.0989 0.59286-0.2152 0.90625-0.28125 0.16-0.03 0.31-0.08 0.48-0.09z"/>
  </clipPath>
 </defs>
 <metadata id="metadata3294">
  <rdf:RDF>
   <cc:Work rdf:about="">
    <dc:format>image/svg+xml</dc:format>
    <dc:type rdf:resource="http://purl.org/dc/dcmitype/StillImage"/>
    <dc:title/>
   </cc:Work>
  </rdf:RDF>
 </metadata>
 <g id="layer1" transform="translate(0 -962.36)">
  <g id="g4451" transform="translate(-789 604.36)">
   <g id="g4507" transform="matrix(2 0 0 2 397 3.2756)">
    <rect id="rect4509" style="fill:none" height="45" width="45" y="177.36" x="196"/>
    <path id="path3011" style="fill:#ccc" transform="matrix(.5 0 0 .5 196 177.36)" d="m35 24c-18 0-20 0-20 12v18c0 12 2 12 20 12h20c18 0 20 0 20-12v-18c0-12-2-12-20-12h-20zm21.281 9c1.064 0 1.966 0.158 2.813 0.312 0.868 0.134 1.704 0.301 2.312 0.5 0.63 0.177 1.047 0.302 1.438 0.5 0.412 0.2 0.795 0.421 0.968 0.532l-1.437 4.094c-0.695-0.377-1.463-0.673-2.375-0.938-0.89-0.287-1.905-0.375-2.969-0.375-2.367 0-4.155 0.588-5.219 1.937-1.042 1.327-1.531 3.178-1.531 5.5 0 1.128 0.177 2.165 0.438 3.094 0.26 0.907 0.572 1.68 1.093 2.344 0.522 0.663 1.219 1.187 2 1.562 0.782 0.354 1.739 0.469 2.782 0.469 0.564 0 0.952 0.024 1.344 0 0.412-0.023 0.789-0.058 1.093-0.125v-8.031h5.157v11.375c-0.609 0.244-1.56 0.61-2.907 0.875-1.346 0.287-3.055 0.375-5.031 0.375-1.694 0-3.173-0.219-4.562-0.75-1.368-0.531-2.68-1.326-3.657-2.344-0.977-1.017-1.707-2.299-2.25-3.781-0.521-1.482-0.781-3.161-0.781-5.063 0-1.924 0.32-3.643 0.906-5.124 0.587-1.482 1.417-2.764 2.438-3.782 1.02-1.039 2.163-1.75 3.531-2.281 1.39-0.531 2.843-0.875 4.406-0.875zm-23.906 0.062c0.325-0.023 0.706 0 1.063 0 1.318 0.001 2.486 0.233 3.437 0.563 0.973 0.308 1.748 0.749 2.375 1.344 0.627 0.572 1.104 1.207 1.406 2 0.303 0.77 0.406 1.732 0.406 2.656 0 0.903-0.221 1.735-0.718 2.594-0.497 0.836-1.157 1.466-2 1.906 1.167 0.484 2.092 1.156 2.718 2.125 0.649 0.946 0.938 2.095 0.938 3.438 0 1.056-0.154 2.066-0.5 2.968-0.346 0.881-0.89 1.715-1.625 2.375-0.735 0.639-1.667 1.095-2.813 1.469-1.123 0.352-2.443 0.5-4 0.5-0.583 0-1.226 0.023-1.874-0.062-0.649-0.066-1.302-0.243-1.907-0.376-0.605-0.131-1.065-0.22-1.562-0.374s-0.938-0.306-1.219-0.438l0.906-4.125c0.562 0.242 1.323 0.495 2.188 0.781 0.886 0.265 2.047 0.438 3.344 0.438 1.491 0 2.464-0.272 3.156-0.844 0.691-0.572 1.094-1.344 1.094-2.312 0-0.595-0.116-1.073-0.376-1.469-0.237-0.418-0.599-0.758-1.031-1-0.432-0.265-1.02-0.537-1.625-0.625-0.583-0.11-1.142-0.125-1.812-0.125h-1.969v-3.875h2.25c0.475 0 0.849-0.162 1.281-0.25 0.454-0.088 0.936-0.177 1.282-0.375 0.345-0.22 0.586-0.523 0.781-0.875 0.216-0.374 0.25-0.856 0.25-1.406 0-0.419-0.078-0.755-0.25-1.063-0.173-0.308-0.375-0.552-0.657-0.75-0.259-0.199-0.476-0.381-0.843-0.469-0.346-0.11-0.727-0.125-1.094-0.125-0.929 0-1.888 0.12-2.687 0.407-0.779 0.285-1.477 0.644-2.126 1.062l-1.687-3.656c0.346-0.221 0.765-0.352 1.219-0.594 0.475-0.242 0.938-0.489 1.5-0.688 0.562-0.197 1.185-0.43 1.812-0.562 0.324-0.066 0.644-0.167 0.969-0.188z"/>
   </g>
  </g>
 </g>
 <g id="layer2" style="display:none">
  <path id="path3011-3" style="fill:#ccc;display:inline" d="m213.5 189.36c-9 0-10 0-10 6v9c0 6 1 6 10 6h10c9 0 10 0 10-6v-9c0-6-1-6-10-6z" clip-path="url(#clipPath3017-4)" transform="matrix(2 0 0 2 -392 -354.72)"/>
 </g>
</svg>
