<?xml version="1.0" encoding="UTF-8" standalone="no"?>
<!-- Created with Inkscape (http://www.inkscape.org/) -->
<svg id="svg3289" xmlns:rdf="http://www.w3.org/1999/02/22-rdf-syntax-ns#" xmlns="http://www.w3.org/2000/svg" height="90" width="90" version="1.1" xmlns:cc="http://creativecommons.org/ns#" xmlns:xlink="http://www.w3.org/1999/xlink" xmlns:dc="http://purl.org/dc/elements/1.1/">
 <metadata id="metadata3294">
  <rdf:RDF>
   <cc:Work rdf:about="">
    <dc:format>image/svg+xml</dc:format>
    <dc:type rdf:resource="http://purl.org/dc/dcmitype/StillImage"/>
    <dc:title/>
   </cc:Work>
  </rdf:RDF>
 </metadata>
 <g id="layer1" transform="translate(0 -962.36)">
  <g id="g4451" transform="translate(-789 604.36)">
   <g id="g4507" transform="matrix(2 0 0 2 397 3.2756)">
    <rect id="rect4509" style="fill:none" height="45" width="45" y="177.36" x="196"/>
    <path id="rect3045" style="opacity:.5;color:#000000;fill:#ccc" d="m51 24c-6.079 0-11.3 3.614-13.656 8.812-1.375-1.715-3.475-2.812-5.844-2.812-4.142 0-7.5 3.358-7.5 7.5 0 0.472 0.042 0.927 0.125 1.375-5.33 1.953-9.125 7.039-9.125 13.063v0.124c0 7.72 6.218 13.938 13.938 13.938h32.124c7.72 0 13.938-6.218 13.938-13.938v-0.124c0-5.979-3.733-11.046-9-13.032-0.051-8.24-6.747-14.906-15-14.906z" transform="matrix(.5 0 0 .5 196 177.36)"/>
   </g>
  </g>
 </g>
</svg>
