<?xml version="1.0" encoding="UTF-8" standalone="no"?>
<!-- Created with Inkscape (http://www.inkscape.org/) -->
<svg id="svg4874" xmlns:rdf="http://www.w3.org/1999/02/22-rdf-syntax-ns#" xmlns="http://www.w3.org/2000/svg" height="48" viewBox="0 0 48 48" width="48" version="1.1" xmlns:cc="http://creativecommons.org/ns#" xmlns:dc="http://purl.org/dc/elements/1.1/">
 <metadata id="metadata4879">
  <rdf:RDF>
   <cc:Work rdf:about="">
    <dc:format>image/svg+xml</dc:format>
    <dc:type rdf:resource="http://purl.org/dc/dcmitype/StillImage"/>
    <dc:title/>
   </cc:Work>
  </rdf:RDF>
 </metadata>
 <g id="layer1" transform="translate(67.857 -126.51)">
  <path id="path4265-0-4" style="fill:#808080" d="m17 0v3.9453c1.214 1.6131 2.412 3.2646 3.58 4.9922 1.48 2.1885 2.868 4.4275 4.168 6.7165 1.32 2.324 2.895 5.517 3.914 7.701l0.002 0.008v0.002l0.297 0.635-0.297 0.635v0.002l-0.002 0.008c-1.019 2.184-2.594 5.377-3.914 7.701-1.3 2.289-2.688 4.528-4.168 6.716-1.168 1.728-2.366 3.382-3.58 4.995v3.943c2.075-2.661 4.073-5.346 5.908-8.082 2.066-3.08 3.917-6.069 5.553-8.963 1.506-2.665 2.638-4.933 3.539-6.955-0.901-2.022-2.033-4.29-3.539-6.955-1.636-2.894-3.487-5.883-5.553-8.963-1.835-2.7363-3.833-5.4212-5.908-8.082z" transform="translate(-67.857 126.51)"/>
  <rect id="rect4782-01" style="color:#000000;fill:none" transform="matrix(0,1,1,0,0,0)" height="96" width="96" y="-67.857" x="78.505"/>
 </g>
</svg>
