<?xml version="1.0" encoding="UTF-8" standalone="no"?>
<!-- Created with Inkscape (http://www.inkscape.org/) -->
<svg id="svg3140" xmlns:rdf="http://www.w3.org/1999/02/22-rdf-syntax-ns#" xmlns="http://www.w3.org/2000/svg" height="90" width="90" version="1.1" xmlns:cc="http://creativecommons.org/ns#" xmlns:dc="http://purl.org/dc/elements/1.1/">
 <defs id="defs3142">
  <clipPath id="clipPath2991-6" clipPathUnits="userSpaceOnUse">
   <path id="path2993-6" d="m0 968.36v84h16.375c-1.5251-1.7576-2.6594-3.8737-3.25-6-0.99619-3.5863-1.0938-7.3341-1.0938-12v-36c0-4.6659 0.09756-8.4137 1.0938-12 0.99619-3.5863 3.5082-7.1465 6.9062-9 6.796-3.74 14.469-3.01 27.969-3.01h6c10.951 0 18.075-0.45164 24 1.3438v-7.37z" style="color:#000000;fill:#f0f"/>
  </clipPath>
 </defs>
 <metadata id="metadata3145">
  <rdf:RDF>
   <cc:Work rdf:about="">
    <dc:format>image/svg+xml</dc:format>
    <dc:type rdf:resource="http://purl.org/dc/dcmitype/StillImage"/>
    <dc:title/>
   </cc:Work>
  </rdf:RDF>
 </metadata>
 <g id="layer1" transform="translate(0 -962.36)">
  <rect id="rect4198" style="color:#000000;fill:none" height="90" width="90" y="962.36" x="0"/>
  <path id="path3759" style="fill:#808080" d="m18 995.36v36c0 18 3 18 30 18h6c27 0 30 0 30-18v-36c0-18-3-18-30-18h-6c-27 0-30 0-30 18zm30-12h6c24 0 24 0 24 12v36c0 12 0 12-24 12h-6c-24 0-24 0-24-12v-36c0-12 0-12 24-12z"/>
  <path id="path3762" style="fill:#808080" transform="translate(0 962.36)" d="m36 3c-27 0-30 0-30 18v36c0 9.832 0.9124 14.288 6.125 16.312-0.05-1.363-0.094-2.776-0.094-4.312v-10c-0.006-0.664-0.031-1.244-0.031-2v-36c0-11.787 0.128-11.996 22.875-12 0.359-0.0068 0.755 0.0038 1.125 0 1.799-0.0184 3.91-0.0183 6 0 1.926 0.0169 3.781 0.0312 6 0.0312 0.6 0.0033 1.377-0.0057 1.938 0h4.062c6.799 0 12.116-0.1726 16.594 0.125-2.592-6.1487-9.72-6.1562-28.594-6.1562h-6z"/>
 </g>
 <g id="layer2" style="display:none">
  <path id="path3759-8" style="fill:#808080" d="m18 33v36c0 18 3 18 30 18h6c27 0 30 0 30-18v-36c0-18-3-18-30-18h-6c-27 0-30 0-30 18zm30-12h6c24 0 24 0 24 12v36c0 12 0 12-24 12h-6c-24 0-24 0-24-12v-36c0-12 0-12 24-12z"/>
  <path id="path3762-0" style="fill:#808080" d="m6 986.36v36c0 18 3 18 30 18h6c27 0 30 0 30-18v-36c0-18-3-18-30-18h-6c-27-0.04-30-0.04-30 17.96zm30-12h6c24 0 24 0 24 12v36c0 12 0 12-24 12h-6c-24 0-24 0-24-12v-36c0-12.04 0-12.04 24-12.04z" clip-path="url(#clipPath2991-6)" transform="translate(0 -965.36)"/>
 </g>
</svg>
