<?xml version="1.0" encoding="UTF-8" standalone="no"?>
<!-- Created with Inkscape (http://www.inkscape.org/) -->
<svg id="svg3140" xmlns:rdf="http://www.w3.org/1999/02/22-rdf-syntax-ns#" xmlns="http://www.w3.org/2000/svg" height="90" width="90" version="1.1" xmlns:cc="http://creativecommons.org/ns#" xmlns:dc="http://purl.org/dc/elements/1.1/">
 <metadata id="metadata3145">
  <rdf:RDF>
   <cc:Work rdf:about="">
    <dc:format>image/svg+xml</dc:format>
    <dc:type rdf:resource="http://purl.org/dc/dcmitype/StillImage"/>
    <dc:title/>
   </cc:Work>
  </rdf:RDF>
 </metadata>
 <g id="layer1" transform="translate(0 -962.36)">
  <rect id="rect4198" style="color:#000000;fill:none" height="90" width="89.689" y="962.36" x="0"/>
  <g id="g4978" transform="translate(-60 548)">
   <path id="path3016" style="fill:#808080" d="m33 12c-27 0-30 0-30 18v30c0 18 3 18 30 18h15c27 0 30 0 30-18v-30c0-18-3-18-30-18h-15zm31.5 9c2.485 0 4.5 1.926 4.5 4.438 0 2.511-2.015 4.562-4.5 4.562s-4.5-2.051-4.5-4.562c0-2.512 2.015-4.438 4.5-4.438zm-41.719 15c1.265-0.022 2.657 0 4.219 0h12c12.5 0 15 0 15 11v11c0 11-2.5 11-15 11h-12c-12.5 0-15 0-15-11v-11c0-9.625 1.929-10.85 10.781-11z" transform="translate(60 414.36)"/>
   <path id="path3807" style="color:#000000;fill:#808080" d="m113.92 179.14c-0.52479 0.30299-8.7464-4.4438-8.7464-5.0498 0-0.60597 8.2216-5.3527 8.7464-5.0498 0.52478 0.30299 0.52478 9.7965 0 10.1z" transform="matrix(2.5864 0 0 4.1586 -146.01 -264.63)"/>
   <path id="path3779" style="fill:#808080" d="m63 456.36h3v-18h-3c-3 0-3 1-3 5v8c0.00002 4 0.00002 5 3 5z"/>
   <rect id="rect3036" style="color:#000000;fill:none" transform="translate(60 414.36)" height="90" width="90" y=".000017383" x="0"/>
  </g>
  <rect id="rect3797" style="color:#000000;fill:none" height="90" width="89.689" y="962.36" x="140"/>
 </g>
</svg>
