<?xml version="1.0" encoding="UTF-8" standalone="no"?>
<!-- Created with Inkscape (http://www.inkscape.org/) -->
<svg id="svg3140" xmlns:rdf="http://www.w3.org/1999/02/22-rdf-syntax-ns#" xmlns="http://www.w3.org/2000/svg" height="90" width="90" version="1.1" xmlns:cc="http://creativecommons.org/ns#" xmlns:dc="http://purl.org/dc/elements/1.1/">
 <defs id="defs3142">
  <clipPath id="clipPath3841-3" clipPathUnits="userSpaceOnUse">
   <path id="path3843-3" style="opacity:.52703;color:#000000;fill:#00f" d="m-6 30v30h102v-30h-42v18h-18v-18h-42z"/>
  </clipPath>
 </defs>
 <metadata id="metadata3145">
  <rdf:RDF>
   <cc:Work rdf:about="">
    <dc:format>image/svg+xml</dc:format>
    <dc:type rdf:resource="http://purl.org/dc/dcmitype/StillImage"/>
    <dc:title/>
   </cc:Work>
  </rdf:RDF>
 </metadata>
 <g id="layer1" transform="translate(0 -962.36)">
  <path id="path3834" style="block-progression:tb;text-indent:0;color:#000000;text-transform:none;fill:#808080" transform="translate(0 962.36)" d="m36 33.156c-11.286 0.511-21.65 2.023-28.406 4.532l-0.094 0.031c-3.1322 1.169-5.4271 2.317-6.7812 4.656-0.6845 1.182-0.91349 2.839-0.4688 4.187 0.44469 1.349 1.3265 2.337 2.3125 3.126 3.9439 3.154 10.794 4.823 21.062 6.093l0.751-5.969c-9.745-1.205-16.32-3.48-18-4.781 0.4598-0.361 1.3576-1.004 3.2812-1.719 5.5288-2.052 15.39-3.494 26.344-4.031v-6.125zm18 0.032v6.062c3.999 0.179 7.925 0.48 11.625 0.938 9.745 1.205 16.321 3.48 18 4.781-0.46 0.361-1.358 1.004-3.281 1.719-6.748 2.504-20.57 4.312-35.344 4.312v6c15.231 0 29.151-1.623 37.406-4.688 3.186-1.182 5.506-2.322 6.875-4.687 0.685-1.182 0.914-2.839 0.469-4.187-0.445-1.349-1.327-2.337-2.312-3.126-3.944-3.154-10.794-4.823-21.063-6.093l-0.375-0.031c-3.869-0.469-7.908-0.797-12-1z"/>
  <rect id="rect4198" style="color:#000000;fill:none" height="90" width="90" y="962.36" x="0"/>
  <path id="path3153" d="m53.848 1004.1v22.12l-17.696-11.06 17.696-11.06z"/>
  <path id="path4984" style="color:#000000;fill:#808080" transform="matrix(2.2976 0 0 2.3698 -207.64 602.79)" d="m113.92 179.14c-0.52479 0.30299-8.7464-4.4438-8.7464-5.0498 0-0.60597 8.2216-5.3527 8.7464-5.0498 0.52 0.31 0.52 9.8 0 10.1z"/>
  <path id="rect3056" style="color:#000000;fill:#808080" d="m42 0v41.281c2.1197-1.2462 4.1989-2.4268 6-3.3438v-37.937zm0 64.719v10.281h6v-6.9375c-1.801-0.916-3.88-2.097-6-3.343zm0 16.281v9h6v-9z" transform="translate(0 962.36)"/>
 </g>
 <g id="layer2" style="display:none">
  <path id="path3834-1" style="stroke-width:6;color:#000000;stroke:#808080;display:inline;fill:none" d="m24 52.794a42 9 0 1 1 21 1.2058" clip-path="url(#clipPath3841-3)" transform="matrix(.99984 0 0 1 .0072895 -.00104)"/>
  <rect id="rect4198-5" style="color:#000000;display:inline;fill:none" height="90" width="90" y=".0000026172" x="0"/>
  <path id="path3153-9" d="m53.848 41.692v22.12l-17.696-11.061 17.696-11.059z"/>
  <path id="path4984-3" style="color:#000000;display:inline;fill:#808080" transform="matrix(2.2976 0 0 2.3698 -207.64 -359.58)" d="m113.92 179.14c-0.52479 0.30299-8.7464-4.4438-8.7464-5.0498 0-0.60597 8.2216-5.3527 8.7464-5.0498 0.52 0.31 0.52 9.8 0 10.1z"/>
  <path id="rect3056-0" style="color:#000000;display:inline;fill:#808080" d="m42 0v41.281c2.1197-1.2462 4.1989-2.4268 6-3.3438v-37.937zm0 64.719v10.281h6v-6.9375c-1.801-0.916-3.88-2.097-6-3.343zm0 16.281v9h6v-9z"/>
 </g>
</svg>
