<?xml version="1.0" encoding="UTF-8" standalone="no"?>
<!-- Created with Inkscape (http://www.inkscape.org/) -->
<svg id="svg3140" xmlns:rdf="http://www.w3.org/1999/02/22-rdf-syntax-ns#" xmlns="http://www.w3.org/2000/svg" height="90" width="90" version="1.1" xmlns:cc="http://creativecommons.org/ns#" xmlns:dc="http://purl.org/dc/elements/1.1/">
 <metadata id="metadata3145">
  <rdf:RDF>
   <cc:Work rdf:about="">
    <dc:format>image/svg+xml</dc:format>
    <dc:type rdf:resource="http://purl.org/dc/dcmitype/StillImage"/>
    <dc:title/>
   </cc:Work>
  </rdf:RDF>
 </metadata>
 <g id="layer1" transform="translate(0 -962.36)">
  <rect id="rect4198" style="color:#000000;fill:none" height="90" width="90" y="962.36" x="0"/>
  <g id="g4978" transform="translate(-60 548)">
   <path id="path4984" style="color:#000000;fill:#808080" d="m45 12.656c-3.59 0-31.701 48.001-29.906 51.063 0.574 0.98 6.748 1.647 14.906 2v12.281h30v-12.281c8.158-0.353 14.332-1.02 14.906-2 1.795-3.062-26.316-51.063-29.906-51.063zm0 8.875c0.521 0.717 0.877 1.138 1.469 2 2.994 4.364 6.792 10.307 10.375 16.407 3.583 6.099 6.901 12.237 9.25 16.968 0.463 0.933 0.754 1.387 1.125 2.188-0.924 0.089-1.491 0.299-2.594 0.375-3.06 0.21-6.726 0.348-10.625 0.437v12.094h-18v-12.094c-3.899-0.089-7.565-0.227-10.625-0.437-1.103-0.076-1.67-0.286-2.594-0.375 0.371-0.801 0.631-1.255 1.094-2.188 2.348-4.731 5.698-10.869 9.281-16.968 3.583-6.1 7.349-12.043 10.344-16.407 0.592-0.862 0.979-1.283 1.5-2z" transform="translate(60 414.36)"/>
   <rect id="rect3034" style="color:#000000;fill:none" transform="translate(60 414.36)" height="90" width="90" y=".000076294" x="0"/>
  </g>
 </g>
</svg>
