<?xml version="1.0" encoding="UTF-8" standalone="no"?>
<!-- Created with Inkscape (http://www.inkscape.org/) -->
<svg id="svg3289" xmlns:rdf="http://www.w3.org/1999/02/22-rdf-syntax-ns#" xmlns="http://www.w3.org/2000/svg" height="90" width="90" version="1.1" xmlns:cc="http://creativecommons.org/ns#" xmlns:dc="http://purl.org/dc/elements/1.1/">
 <metadata id="metadata3294">
  <rdf:RDF>
   <cc:Work rdf:about="">
    <dc:format>image/svg+xml</dc:format>
    <dc:type rdf:resource="http://purl.org/dc/dcmitype/StillImage"/>
    <dc:title/>
   </cc:Work>
  </rdf:RDF>
 </metadata>
 <g id="layer1" transform="translate(0 -962.36)">
  <g id="g4451" transform="matrix(-1 0 0 1 879 604.36)">
   <rect id="rect4257" style="opacity:.4;fill:none" height="90" width="90" y="358" x="789"/>
   <path id="path4259" style="fill:#df382c" d="m795 428.73c0-28.78 38.05-64.73 64.64-64.73 2.0851 0 17.042 7.9904 12.511 12.528-6.2554 6.2638-18.766 12.528-22.936 10.44-3.5167-1.7607-2.2229-8.3518-6.2554-8.3518s-9.0356 9.0477-14.596 14.616c-5.5603 5.5678-18.766 14.846-18.766 18.791 0 4.1677 6.6029 3.2501 8.3405 6.2638 2.3441 4.0655-4.1702 16.703-10.426 22.967-4.17 4.18-12.51-10.44-12.51-12.52z"/>
  </g>
 </g>
</svg>
