<?xml version="1.0" encoding="UTF-8" standalone="no"?>
<!-- Created with Inkscape (http://www.inkscape.org/) -->
<svg id="svg3443" xmlns:rdf="http://www.w3.org/1999/02/22-rdf-syntax-ns#" xmlns="http://www.w3.org/2000/svg" height="90.016" width="90" version="1.1" xmlns:cc="http://creativecommons.org/ns#" xmlns:dc="http://purl.org/dc/elements/1.1/">
 <metadata id="metadata3448">
  <rdf:RDF>
   <cc:Work rdf:about="">
    <dc:format>image/svg+xml</dc:format>
    <dc:type rdf:resource="http://purl.org/dc/dcmitype/StillImage"/>
    <dc:title/>
   </cc:Work>
  </rdf:RDF>
 </metadata>
 <g id="layer1" transform="translate(0 -962.35)">
  <g id="g4136" transform="matrix(1.875 0 0 1.875 -990 -830.82)">
   <rect id="rect4134" style="color:#000000;fill:none" transform="translate(0 412.36)" height="48" width="48" y="544" x="528"/>
  </g>
  <g id="g3466" transform="translate(-528 48)">
   <rect id="rect3470" style="color:#000000;fill:#808080" height="42" width="6" y="962.36" x="594"/>
   <rect id="rect3472" style="color:#000000;fill:#808080" transform="rotate(90)" height="42" width="6" y="-618" x="980.36"/>
   <rect id="rect3474" style="color:#000000;fill:none" height="90" width="90" y="914.36" x="528"/>
   <path id="path4093" style="fill:#808080" d="m20.922 6.0156v6.0004c0 3.23-2.692 5.922-5.922 5.922s-5.9219-2.692-5.9219-5.922v-5.7933c-7.9595 0.5877-9.0781 2.8733-9.0781 11.793v30c0 12 2 12 20 12h20c18 0 20 0 20-12v-30c0-8.92-1.119-11.206-9.078-11.793v5.793c0 3.23-2.692 5.922-5.922 5.922s-5.922-2.692-5.922-5.922v-6.0004h-18.156zm-4.969 15.031c1.203-0.009 2.547-0.004 4.047 0h20c12-0.03 14-0.03 13.969 5.969v21c0.031 6-1.969 6-13.969 5.968h-20c-12 0.033-14 0.033-13.969-5.968l0.0002-21c-0.0273-5.25 1.5005-5.907 9.9218-5.969z" transform="translate(528 914.35)"/>
   <rect id="rect4102" style="color:#000000;fill:#808080" ry="3" height="15" width="6" y="914.36" x="540"/>
   <rect id="rect4110" style="color:#000000;fill:#808080" ry="3" height="15" width="6" y="914.36" x="570"/>
  </g>
 </g>
</svg>
