<?xml version="1.0" encoding="UTF-8" standalone="no"?>
<!-- Created with Inkscape (http://www.inkscape.org/) -->
<svg id="svg3443" xmlns:rdf="http://www.w3.org/1999/02/22-rdf-syntax-ns#" xmlns="http://www.w3.org/2000/svg" height="90.016" width="90" version="1.1" xmlns:cc="http://creativecommons.org/ns#" xmlns:dc="http://purl.org/dc/elements/1.1/">
 <metadata id="metadata3448">
  <rdf:RDF>
   <cc:Work rdf:about="">
    <dc:format>image/svg+xml</dc:format>
    <dc:type rdf:resource="http://purl.org/dc/dcmitype/StillImage"/>
    <dc:title/>
   </cc:Work>
  </rdf:RDF>
 </metadata>
 <g id="layer1" transform="translate(0 -962.35)">
  <g id="g4136" transform="matrix(1.875 0 0 1.875 -990 -830.82)">
   <rect id="rect4134" style="color:#000000;fill:none" transform="translate(0 412.36)" height="48" width="48" y="544" x="528"/>
  </g>
  <g id="g3466" transform="translate(-528 48)">
   <rect id="rect3470" style="color:#000000;fill:#808080" height="42" width="6" y="962.36" x="594"/>
   <rect id="rect3472" style="color:#000000;fill:#808080" transform="rotate(90)" height="42" width="6" y="-618" x="980.36"/>
   <rect id="rect3474" style="color:#000000;fill:none" height="90" width="90" y="914.36" x="528"/>
   <path id="path3004" style="fill:#808080" d="m548 932.36c-18 0-20 0-20 12v18c0 12 2 12 20 12h20c18 0 20 0 20-12v-18c0-12-2-12-20-12zm-8 10h36v4h-36zm0 8h36v4h-36zm0 8h21v4h-21z"/>
   <path id="path3774" style="color:#000000;fill:#808080" d="m540 973.03v13.333l13.333-13.333z"/>
  </g>
 </g>
</svg>
